Mont_NUM_170818_Light.ufo
<glyph name="exclam" format="1">
  <advance width="127"/>
  <unicode hex="0021"/>
  <outline>
    <contour>
      <point x="71" y="114" type="line"/>
      <point x="73" y="308" type="line"/>
      <point x="73" y="405" type="line"/>
      <point x="54" y="405" type="line"/>
      <point x="54" y="308" type="line"/>
      <point x="55" y="114" type="line"/>
    </contour>
    <component base="period" xOffset="7.042"/>
  </outline>
</glyph>
<glyph name="numbersign" format="1">
  <advance width="456"/>
  <unicode hex="0023"/>
  <outline>
    <contour>
      <point x="292" y="0" type="line"/>
      <point x="348" y="415" type="line"/>
      <point x="330" y="415" type="line"/>
      <point x="275" y="0" type="line"/>
    </contour>
    <contour>
      <point x="405" y="120" type="line"/>
      <point x="405" y="138" type="line"/>
      <point x="29" y="138" type="line"/>
      <point x="29" y="120" type="line"/>
    </contour>
    <contour>
      <point x="125" y="0" type="line"/>
      <point x="180" y="415" type="line"/>
      <point x="163" y="415" type="line"/>
      <point x="108" y="0" type="line"/>
    </contour>
    <contour>
      <point x="426" y="275" type="line"/>
      <point x="426" y="292" type="line"/>
      <point x="49" y="292" type="line"/>
      <point x="50" y="275" type="line"/>
    </contour>
  </outline>
</glyph>
<glyph name="dollar" format="1">
  <advance width="383"/>
  <unicode hex="0024"/>
  <outline>
    <contour>
      <point x="197" y="-42" type="line"/>
      <point x="197" y="42" type="line"/>
      <point x="180" y="42" type="line"/>
      <point x="180" y="-42" type="line"/>
    </contour>
    <contour>
      <point x="197" y="372" type="line"/>
      <point x="197" y="448" type="line"/>
      <point x="180" y="448" type="line"/>
      <point x="180" y="372" type="line"/>
    </contour>
    <component base="S"/>
  </outline>
</glyph>
<glyph name="ampersand" format="1">
  <advance width="405"/>
  <unicode hex="0026"/>
  <outline>
    <contour>
      <point x="375" y="168" type="curve"/>
      <point x="365" y="180"/>
      <point x="351" y="190"/>
      <point x="351" y="194" type="curve"/>
      <point x="301" y="93"/>
      <point x="235" y="35"/>
      <point x="164" y="35" type="curve" smooth="yes"/>
      <point x="107" y="35"/>
      <point x="61" y="72"/>
      <point x="61" y="123" type="curve" smooth="yes"/>
      <point x="61" y="227"/>
      <point x="273" y="228"/>
      <point x="273" y="323" type="curve" smooth="yes"/>
      <point x="273" y="359"/>
      <point x="242" y="385"/>
      <point x="196" y="385" type="curve" smooth="yes"/>
      <point x="145" y="385"/>
      <point x="111" y="356"/>
      <point x="113" y="321" type="curve" smooth="yes"/>
      <point x="113" y="248"/>
      <point x="222" y="165"/>
      <point x="387" y="15" type="curve"/>
      <point x="386" y="10"/>
      <point x="391" y="13"/>
      <point x="389" y="13" type="curve"/>
      <point x="223" y="163"/>
      <point x="112" y="249"/>
      <point x="112" y="319" type="curve" smooth="yes"/>
      <point x="112" y="360"/>
      <point x="155" y="389"/>
      <point x="204" y="397" type="curve" smooth="yes"/>
      <point x="248" y="401"/>
      <point x="274" y="380"/>
      <point x="270" y="345" type="curve" smooth="yes"/>
      <point x="266" y="247"/>
      <point x="41" y="248"/>
      <point x="41" y="123" type="curve" smooth="yes"/>
      <point x="41" y="60"/>
      <point x="96" y="13"/>
      <point x="171" y="-2" type="curve" smooth="yes"/>
      <point x="248" y="-2"/>
      <point x="323" y="66"/>
    </contour>
  </outline>
</glyph>
<glyph name="quotesingle" format="1">
  <advance width="95"/>
  <unicode hex="0027"/>
  <outline>
    <contour>
      <point x="56" y="297" type="line"/>
      <point x="56" y="415" type="line"/>
      <point x="39" y="415" type="line"/>
      <point x="39" y="297" type="line"/>
    </contour>
  </outline>
</glyph>
<glyph name="parenleft" format="1">
  <advance width="180"/>
  <unicode hex="0028"/>
  <outline>
    <contour>
      <point x="156" y="-74" type="line"/>
      <point x="109" y="-8"/>
      <point x="83" y="82"/>
      <point x="83" y="183" type="curve" smooth="yes"/>
      <point x="83" y="284"/>
      <point x="109" y="375"/>
      <point x="156" y="440" type="curve"/>
      <point x="138" y="440" type="line"/>
      <point x="90" y="375"/>
      <point x="65" y="284"/>
      <point x="65" y="183" type="curve" smooth="yes"/>
      <point x="65" y="82"/>
      <point x="90" y="-8"/>
      <point x="138" y="-74" type="curve"/>
    </contour>
  </outline>
</glyph>
<glyph name="asterisk" format="1">
  <advance width="195"/>
  <unicode hex="002A"/>
  <outline>
    <contour>
      <point x="105" y="267" type="line"/>
      <point x="105" y="335" type="line"/>
      <point x="169" y="301" type="line"/>
      <point x="176" y="314" type="line"/>
      <point x="112" y="348" type="line"/>
      <point x="176" y="381" type="line"/>
      <point x="169" y="395" type="line"/>
      <point x="105" y="360" type="line"/>
      <point x="105" y="429" type="line"/>
      <point x="90" y="429" type="line"/>
      <point x="90" y="360" type="line"/>
      <point x="26" y="395" type="line"/>
      <point x="19" y="381" type="line"/>
      <point x="83" y="348" type="line"/>
      <point x="19" y="314" type="line"/>
      <point x="26" y="301" type="line"/>
      <point x="90" y="335" type="line"/>
      <point x="90" y="267" type="line"/>
    </contour>
  </outline>
</glyph>
<glyph name="plus" format="1">
  <advance width="310"/>
  <unicode hex="002B"/>
  <outline>
    <contour>
      <point x="163" y="70" type="line"/>
      <point x="163" y="310" type="line"/>
      <point x="147" y="310" type="line"/>
      <point x="147" y="70" type="line"/>
    </contour>
    <contour>
      <point x="284" y="182" type="line"/>
      <point x="284" y="199" type="line"/>
      <point x="25" y="199" type="line"/>
      <point x="25" y="182" type="line"/>
    </contour>
  </outline>
</glyph>
<glyph name="comma" format="1">
  <advance width="114"/>
  <unicode hex="002C"/>
  <outline>
    <contour>
      <point x="51" y="-84" type="line"/>
      <point x="73" y="-6" type="line"/>
      <point x="75" y="3"/>
      <point x="77" y="8"/>
      <point x="77" y="16" type="curve" smooth="yes"/>
      <point x="77" y="25"/>
      <point x="69" y="35"/>
      <point x="57" y="35" type="curve" smooth="yes"/>
      <point x="45" y="35"/>
      <point x="37" y="27"/>
      <point x="37" y="16" type="curve" smooth="yes"/>
      <point x="37" y="5"/>
      <point x="46" y="-4"/>
      <point x="57" y="-4" type="curve"/>
      <point x="56" y="7" type="line"/>
      <point x="35" y="-84" type="line"/>
    </contour>
  </outline>
</glyph>
<glyph name="hyphen" format="1">
  <advance width="230"/>
  <unicode hex="002D"/>
  <outline>
    <contour>
      <point x="186" y="170" type="line"/>
      <point x="186" y="187" type="line"/>
      <point x="44" y="187" type="line"/>
      <point x="44" y="170" type="line"/>
    </contour>
  </outline>
</glyph>
<glyph name="period" format="1">
  <advance width="114"/>
  <unicode hex="002E"/>
  <outline>
    <contour>
      <point x="77" y="16" type="curve" smooth="yes"/>
      <point x="77" y="27"/>
      <point x="68" y="35"/>
      <point x="57" y="35" type="curve" smooth="yes"/>
      <point x="46" y="35"/>
      <point x="37" y="27"/>
      <point x="37" y="16" type="curve" smooth="yes"/>
      <point x="37" y="5"/>
      <point x="46" y="-4"/>
      <point x="57" y="-4" type="curve" smooth="yes"/>
      <point x="68" y="-4"/>
      <point x="77" y="5"/>
    </contour>
  </outline>
</glyph>
<glyph name="slash" format="1">
  <advance width="191"/>
  <unicode hex="002F"/>
  <outline>
    <contour>
      <point x="20" y="-76" type="line"/>
      <point x="217" y="489" type="line"/>
      <point x="198" y="489" type="line"/>
      <point x="1" y="-76" type="line"/>
    </contour>
  </outline>
</glyph>
<glyph name="zero" format="1">
  <advance width="420"/>
  <unicode hex="0030"/>
  <outline>
    <contour>
      <point x="383" y="208" type="curve" smooth="yes"/>
      <point x="383" y="335"/>
      <point x="313" y="417"/>
      <point x="210" y="417" type="curve" smooth="yes"/>
      <point x="107" y="417"/>
      <point x="37" y="335"/>
      <point x="37" y="208" type="curve" smooth="yes"/>
      <point x="37" y="80"/>
      <point x="107" y="-2"/>
      <point x="210" y="-2" type="curve" smooth="yes"/>
      <point x="313" y="-2"/>
      <point x="383" y="80"/>
    </contour>
    <contour>
      <point x="56" y="208" type="curve" smooth="yes"/>
      <point x="56" y="326"/>
      <point x="119" y="399"/>
      <point x="210" y="399" type="curve" smooth="yes"/>
      <point x="302" y="399"/>
      <point x="364" y="326"/>
      <point x="364" y="208" type="curve" smooth="yes"/>
      <point x="364" y="89"/>
      <point x="302" y="16"/>
      <point x="210" y="16" type="curve" smooth="yes"/>
      <point x="119" y="16"/>
      <point x="56" y="89"/>
    </contour>
  </outline>
</glyph>
<glyph name="one" format="1">
  <advance width="222"/>
  <unicode hex="0031"/>
  <outline>
    <contour>
      <point x="139" y="0" type="line"/>
      <point x="139" y="415" type="line"/>
      <point x="6" y="415" type="line"/>
      <point x="6" y="397" type="line"/>
      <point x="129" y="397" type="line"/>
      <point x="120" y="406" type="line"/>
      <point x="120" y="0" type="line"/>
    </contour>
  </outline>
</glyph>
<glyph name="two" format="1">
  <advance width="359"/>
  <unicode hex="0032"/>
  <outline>
    <contour>
      <point x="326" y="0" type="line"/>
      <point x="326" y="18" type="line"/>
      <point x="35" y="18" type="line"/>
      <point x="44" y="10" type="line"/>
      <point x="229" y="182" type="line" smooth="yes"/>
      <point x="288" y="236"/>
      <point x="302" y="270"/>
      <point x="302" y="310" type="curve" smooth="yes"/>
      <point x="302" y="376"/>
      <point x="248" y="417"/>
      <point x="162" y="417" type="curve" smooth="yes"/>
      <point x="95" y="417"/>
      <point x="45" y="397"/>
      <point x="12" y="361" type="curve"/>
      <point x="26" y="350" type="line"/>
      <point x="58" y="383"/>
      <point x="101" y="399"/>
      <point x="161" y="399" type="curve" smooth="yes"/>
      <point x="240" y="399"/>
      <point x="283" y="364"/>
      <point x="283" y="308" type="curve" smooth="yes"/>
      <point x="283" y="275"/>
      <point x="272" y="245"/>
      <point x="216" y="193" type="curve" smooth="yes"/>
      <point x="22" y="14" type="line"/>
      <point x="22" y="0" type="line"/>
    </contour>
  </outline>
</glyph>
<glyph name="three" format="1">
  <advance width="354"/>
  <unicode hex="0033"/>
  <outline>
    <contour>
      <point x="324" y="115" type="curve" smooth="yes"/>
      <point x="324" y="184"/>
      <point x="272" y="231"/>
      <point x="166" y="231" type="curve" smooth="yes"/>
      <point x="155" y="231" type="line"/>
      <point x="160" y="225" type="line"/>
      <point x="307" y="401" type="line"/>
      <point x="307" y="415" type="line"/>
      <point x="32" y="415" type="line"/>
      <point x="32" y="397" type="line"/>
      <point x="289" y="397" type="line"/>
      <point x="288" y="404" type="line"/>
      <point x="140" y="229" type="line"/>
      <point x="140" y="214" type="line"/>
      <point x="165" y="214" type="line" smooth="yes"/>
      <point x="261" y="214"/>
      <point x="305" y="175"/>
      <point x="305" y="115" type="curve" smooth="yes"/>
      <point x="305" y="55"/>
      <point x="259" y="16"/>
      <point x="173" y="16" type="curve" smooth="yes"/>
      <point x="108" y="16"/>
      <point x="54" y="39"/>
      <point x="28" y="69" type="curve"/>
      <point x="18" y="55" type="line"/>
      <point x="46" y="21"/>
      <point x="106" y="-2"/>
      <point x="173" y="-2" type="curve" smooth="yes"/>
      <point x="272" y="-2"/>
      <point x="324" y="46"/>
    </contour>
  </outline>
</glyph>
<glyph name="four" format="1">
  <advance width="416"/>
  <unicode hex="0034"/>
  <outline>
    <contour>
      <point x="406" y="120" type="line"/>
      <point x="406" y="138" type="line"/>
      <point x="40" y="138" type="line"/>
      <point x="51" y="134" type="line"/>
      <point x="301" y="415" type="line"/>
      <point x="279" y="415" type="line"/>
      <point x="29" y="134" type="line"/>
      <point x="29" y="120" type="line"/>
    </contour>
    <contour>
      <point x="307" y="0" type="line"/>
      <point x="307" y="243" type="line"/>
      <point x="288" y="243" type="line"/>
      <point x="288" y="138" type="line"/>
      <point x="288" y="120" type="line"/>
      <point x="288" y="0" type="line"/>
    </contour>
  </outline>
</glyph>
<glyph name="five" format="1">
  <advance width="354"/>
  <unicode hex="0035"/>
  <outline>
    <contour>
      <point x="326" y="115" type="curve" smooth="yes"/>
      <point x="326" y="183"/>
      <point x="282" y="227"/>
      <point x="144" y="227" type="curve" smooth="yes"/>
      <point x="60" y="227" type="line"/>
      <point x="67" y="217" type="line"/>
      <point x="90" y="406" type="line"/>
      <point x="82" y="397" type="line"/>
      <point x="303" y="397" type="line"/>
      <point x="303" y="415" type="line"/>
      <point x="73" y="415" type="line"/>
      <point x="48" y="209" type="line"/>
      <point x="141" y="209" type="line" smooth="yes"/>
      <point x="268" y="209"/>
      <point x="307" y="173"/>
      <point x="307" y="115" type="curve" smooth="yes"/>
      <point x="307" y="55"/>
      <point x="262" y="16"/>
      <point x="175" y="16" type="curve" smooth="yes"/>
      <point x="110" y="16"/>
      <point x="56" y="39"/>
      <point x="30" y="69" type="curve"/>
      <point x="20" y="55" type="line"/>
      <point x="48" y="21"/>
      <point x="108" y="-2"/>
      <point x="175" y="-2" type="curve" smooth="yes"/>
      <point x="274" y="-2"/>
      <point x="326" y="46"/>
    </contour>
  </outline>
</glyph>
<glyph name="six" format="1">
  <advance width="383"/>
  <unicode hex="0036"/>
  <outline>
    <contour>
      <point x="360" y="121" type="curve" smooth="yes"/>
      <point x="360" y="195"/>
      <point x="301" y="243"/>
      <point x="211" y="243" type="curve" smooth="yes"/>
      <point x="129" y="243"/>
      <point x="65" y="198"/>
      <point x="62" y="122" type="curve"/>
      <point x="68" y="129" type="line"/>
      <point x="58" y="158"/>
      <point x="56" y="190"/>
      <point x="56" y="209" type="curve" smooth="yes"/>
      <point x="56" y="336"/>
      <point x="126" y="399"/>
      <point x="231" y="399" type="curve" smooth="yes"/>
      <point x="266" y="399"/>
      <point x="298" y="394"/>
      <point x="320" y="381" type="curve"/>
      <point x="329" y="397" type="line"/>
      <point x="302" y="412"/>
      <point x="268" y="417"/>
      <point x="231" y="417" type="curve" smooth="yes"/>
      <point x="115" y="417"/>
      <point x="37" y="346"/>
      <point x="37" y="207" type="curve" smooth="yes"/>
      <point x="37" y="77"/>
      <point x="97" y="-2"/>
      <point x="214" y="-2" type="curve" smooth="yes"/>
      <point x="299" y="-2"/>
      <point x="360" y="46"/>
    </contour>
    <contour>
      <point x="76" y="119" type="curve" smooth="yes"/>
      <point x="76" y="179"/>
      <point x="130" y="225"/>
      <point x="210" y="225" type="curve" smooth="yes"/>
      <point x="290" y="225"/>
      <point x="340" y="184"/>
      <point x="340" y="120" type="curve" smooth="yes"/>
      <point x="340" y="57"/>
      <point x="289" y="15"/>
      <point x="214" y="15" type="curve" smooth="yes"/>
      <point x="123" y="15"/>
      <point x="76" y="69"/>
    </contour>
  </outline>
</glyph>
<glyph name="seven" format="1">
  <advance width="369"/>
  <unicode hex="0037"/>
  <outline>
    <contour>
      <point x="140" y="0" type="line"/>
      <point x="339" y="401" type="line"/>
      <point x="339" y="415" type="line"/>
      <point x="23" y="415" type="line"/>
      <point x="23" y="315" type="line"/>
      <point x="41" y="315" type="line"/>
      <point x="41" y="406" type="line"/>
      <point x="33" y="397" type="line"/>
      <point x="328" y="397" type="line"/>
      <point x="319" y="405" type="line"/>
      <point x="118" y="0" type="line"/>
    </contour>
  </outline>
</glyph>
<glyph name="eight" format="1">
  <advance width="404"/>
  <unicode hex="0038"/>
  <outline>
    <contour>
      <point x="369" y="112" type="curve" smooth="yes"/>
      <point x="369" y="181"/>
      <point x="306" y="223"/>
      <point x="202" y="223" type="curve" smooth="yes"/>
      <point x="97" y="223"/>
      <point x="35" y="181"/>
      <point x="35" y="112" type="curve" smooth="yes"/>
      <point x="35" y="42"/>
      <point x="97" y="-2"/>
      <point x="202" y="-2" type="curve" smooth="yes"/>
      <point x="306" y="-2"/>
      <point x="369" y="42"/>
    </contour>
    <contour>
      <point x="55" y="112" type="curve" smooth="yes"/>
      <point x="55" y="171"/>
      <point x="108" y="208"/>
      <point x="202" y="208" type="curve" smooth="yes"/>
      <point x="295" y="208"/>
      <point x="350" y="171"/>
      <point x="350" y="112" type="curve" smooth="yes"/>
      <point x="350" y="52"/>
      <point x="295" y="15"/>
      <point x="202" y="15" type="curve" smooth="yes"/>
      <point x="108" y="15"/>
      <point x="55" y="52"/>
    </contour>
    <contour>
      <point x="353" y="312" type="curve" smooth="yes"/>
      <point x="353" y="377"/>
      <point x="293" y="417"/>
      <point x="202" y="417" type="curve" smooth="yes"/>
      <point x="110" y="417"/>
      <point x="51" y="377"/>
      <point x="51" y="312" type="curve" smooth="yes"/>
      <point x="51" y="250"/>
      <point x="106" y="211"/>
      <point x="202" y="211" type="curve" smooth="yes"/>
      <point x="297" y="211"/>
      <point x="353" y="250"/>
    </contour>
    <contour>
      <point x="71" y="312" type="curve" smooth="yes"/>
      <point x="71" y="366"/>
      <point x="121" y="400"/>
      <point x="202" y="400" type="curve" smooth="yes"/>
      <point x="282" y="400"/>
      <point x="334" y="366"/>
      <point x="334" y="312" type="curve" smooth="yes"/>
      <point x="334" y="259"/>
      <point x="285" y="225"/>
      <point x="202" y="225" type="curve" smooth="yes"/>
      <point x="119" y="225"/>
      <point x="71" y="259"/>
    </contour>
  </outline>
</glyph>
<glyph name="less" format="1">
  <advance width="310"/>
  <unicode hex="003C"/>
  <outline>
    <contour>
      <point x="284" y="92" type="line"/>
      <point x="41" y="194" type="line"/>
      <point x="284" y="297" type="line"/>
      <point x="284" y="315" type="line"/>
      <point x="25" y="205" type="line"/>
      <point x="25" y="183" type="line"/>
      <point x="284" y="73" type="line"/>
    </contour>
  </outline>
</glyph>
<glyph name="question" format="1">
  <advance width="257"/>
  <unicode hex="003F"/>
  <outline>
    <contour>
      <point x="126" y="124" type="line"/>
      <point x="126" y="219"/>
      <point x="242" y="212"/>
      <point x="242" y="313" type="curve" smooth="yes"/>
      <point x="242" y="375"/>
      <point x="193" y="404"/>
      <point x="129" y="404" type="curve" smooth="yes"/>
      <point x="65" y="404"/>
      <point x="20" y="372"/>
      <point x="15" y="314" type="curve"/>
      <point x="33" y="313" type="line"/>
      <point x="37" y="361"/>
      <point x="73" y="386"/>
      <point x="128" y="386" type="curve" smooth="yes"/>
      <point x="184" y="386"/>
      <point x="224" y="362"/>
      <point x="224" y="312" type="curve" smooth="yes"/>
      <point x="224" y="219"/>
      <point x="109" y="226"/>
      <point x="109" y="124" type="curve"/>
    </contour>
    <component base="period" xOffset="60.293"/>
  </outline>
</glyph>
<glyph name="at" format="1">
  <advance width="654"/>
  <unicode hex="0040"/>
  <outline>
    <contour>
      <point x="443" y="-76" type="curve"/>
      <point x="437" y="-62" type="line"/>
      <point x="406" y="-78"/>
      <point x="358" y="-89"/>
      <point x="322" y="-89" type="curve" smooth="yes"/>
      <point x="166" y="-89"/>
      <point x="53" y="14"/>
      <point x="53" y="156" type="curve" smooth="yes"/>
      <point x="53" y="303"/>
      <point x="170" y="411"/>
      <point x="330" y="411" type="curve" smooth="yes"/>
      <point x="488" y="411"/>
      <point x="602" y="303"/>
      <point x="602" y="154" type="curve" smooth="yes"/>
      <point x="602" y="65"/>
      <point x="569" y="7"/>
      <point x="521" y="7" type="curve" smooth="yes"/>
      <point x="496" y="7"/>
      <point x="474" y="28"/>
      <point x="474" y="60" type="curve" smooth="yes"/>
      <point x="474" y="310" type="line"/>
      <point x="457" y="310" type="line"/>
      <point x="457" y="224" type="line"/>
      <point x="435" y="276"/>
      <point x="380" y="312"/>
      <point x="311" y="312" type="curve" smooth="yes"/>
      <point x="218" y="312"/>
      <point x="150" y="246"/>
      <point x="150" y="158" type="curve" smooth="yes"/>
      <point x="150" y="69"/>
      <point x="219" y="5"/>
      <point x="312" y="5" type="curve" smooth="yes"/>
      <point x="380" y="5"/>
      <point x="435" y="40"/>
      <point x="458" y="93" type="curve"/>
      <point x="458" y="57" type="line"/>
      <point x="459" y="18"/>
      <point x="486" y="-7"/>
      <point x="519" y="-7" type="curve" smooth="yes"/>
      <point x="579" y="-7"/>
      <point x="617" y="56"/>
      <point x="617" y="154" type="curve" smooth="yes"/>
      <point x="617" y="312"/>
      <point x="496" y="427"/>
      <point x="330" y="427" type="curve" smooth="yes"/>
      <point x="161" y="427"/>
      <point x="37" y="312"/>
      <point x="37" y="156" type="curve" smooth="yes"/>
      <point x="37" y="5"/>
      <point x="157" y="-104"/>
      <point x="322" y="-104" type="curve" smooth="yes"/>
      <point x="359" y="-104"/>
      <point x="410" y="-93"/>
    </contour>
    <contour>
      <point x="167" y="158" type="curve" smooth="yes"/>
      <point x="167" y="237"/>
      <point x="228" y="295"/>
      <point x="312" y="295" type="curve" smooth="yes"/>
      <point x="396" y="295"/>
      <point x="457" y="237"/>
      <point x="457" y="158" type="curve" smooth="yes"/>
      <point x="457" y="79"/>
      <point x="396" y="21"/>
      <point x="312" y="21" type="curve" smooth="yes"/>
      <point x="228" y="21"/>
      <point x="167" y="79"/>
    </contour>
  </outline>
</glyph>
<glyph name="A" format="1">
  <advance width="446"/>
  <unicode hex="0041"/>
  <outline>
    <contour>
      <point x="26" y="0" type="line"/>
      <point x="227" y="402" type="line"/>
      <point x="218" y="402" type="line"/>
      <point x="419" y="0" type="line"/>
      <point x="441" y="0" type="line"/>
      <point x="233" y="415" type="line"/>
      <point x="213" y="415" type="line"/>
      <point x="5" y="0" type="line"/>
    </contour>
    <contour>
      <point x="374" y="107" type="line"/>
      <point x="366" y="125" type="line"/>
      <point x="78" y="125" type="line"/>
      <point x="70" y="107" type="line"/>
    </contour>
    <contour>
      <point x="441" y="0" type="move" name="ogonek"/>
    </contour>
    <contour>
      <point x="223" y="415" type="move" name="top"/>
    </contour>
    <contour>
      <point x="69" y="415" type="move" name="topleft"/>
    </contour>
    <contour>
      <point x="223" y="0" type="move" name="bottom"/>
    </contour>
  </outline>
</glyph>
<glyph name="B" format="1">
  <advance width="482"/>
  <unicode hex="0042"/>
  <outline>
    <contour>
      <point x="277" y="0" type="line"/>
      <point x="387" y="0"/>
      <point x="441" y="39"/>
      <point x="441" y="109" type="curve" smooth="yes"/>
      <point x="441" y="179"/>
      <point x="388" y="216"/>
      <point x="285" y="216" type="curve"/>
      <point x="274" y="207" type="line"/>
      <point x="358" y="207"/>
      <point x="417" y="241"/>
      <point x="417" y="310" type="curve" smooth="yes"/>
      <point x="417" y="379"/>
      <point x="358" y="415"/>
      <point x="264" y="415" type="curve" smooth="yes"/>
      <point x="83" y="415" type="line"/>
      <point x="83" y="0" type="line"/>
    </contour>
    <contour>
      <point x="103" y="202" type="line"/>
      <point x="279" y="202" type="line" smooth="yes"/>
      <point x="372" y="202"/>
      <point x="422" y="174"/>
      <point x="422" y="110" type="curve" smooth="yes"/>
      <point x="422" y="46"/>
      <point x="372" y="17"/>
      <point x="279" y="17" type="curve" smooth="yes"/>
      <point x="103" y="17" type="line"/>
    </contour>
    <contour>
      <point x="103" y="398" type="line"/>
      <point x="266" y="398" type="line" smooth="yes"/>
      <point x="349" y="398"/>
      <point x="397" y="367"/>
      <point x="397" y="308" type="curve" smooth="yes"/>
      <point x="397" y="250"/>
      <point x="349" y="219"/>
      <point x="266" y="219" type="curve" smooth="yes"/>
      <point x="103" y="219" type="line"/>
    </contour>
    <contour>
      <point x="243" y="415" type="move" name="top"/>
    </contour>
    <contour>
      <point x="243" y="0" type="move" name="bottom"/>
    </contour>
  </outline>
</glyph>
<glyph name="C" format="1">
  <advance width="458"/>
  <unicode hex="0043"/>
  <outline>
    <contour>
      <point x="424" y="53" type="curve"/>
      <point x="412" y="66" type="line"/>
      <point x="372" y="31"/>
      <point x="323" y="16"/>
      <point x="269" y="16" type="curve" smooth="yes"/>
      <point x="148" y="16"/>
      <point x="57" y="99"/>
      <point x="57" y="208" type="curve" smooth="yes"/>
      <point x="57" y="316"/>
      <point x="148" y="399"/>
      <point x="269" y="399" type="curve" smooth="yes"/>
      <point x="323" y="399"/>
      <point x="372" y="385"/>
      <point x="412" y="349" type="curve"/>
      <point x="424" y="363" type="line"/>
      <point x="385" y="399"/>
      <point x="329" y="417"/>
      <point x="269" y="417" type="curve" smooth="yes"/>
      <point x="136" y="417"/>
      <point x="37" y="328"/>
      <point x="37" y="208" type="curve" smooth="yes"/>
      <point x="37" y="87"/>
      <point x="136" y="-2"/>
      <point x="269" y="-2" type="curve" smooth="yes"/>
      <point x="329" y="-2"/>
      <point x="385" y="16"/>
    </contour>
    <contour>
      <point x="263" y="415" type="move" name="top"/>
    </contour>
    <contour>
      <point x="262" y="0" type="move" name="bottom"/>
    </contour>
  </outline>
</glyph>
<glyph name="D" format="1">
  <advance width="531"/>
  <unicode hex="0044"/>
  <outline>
    <contour>
      <point x="256" y="0" type="line"/>
      <point x="399" y="0"/>
      <point x="494" y="87"/>
      <point x="494" y="208" type="curve" smooth="yes"/>
      <point x="494" y="328"/>
      <point x="399" y="415"/>
      <point x="256" y="415" type="curve" smooth="yes"/>
      <point x="83" y="415" type="line"/>
      <point x="83" y="0" type="line"/>
    </contour>
    <contour>
      <point x="103" y="397" type="line"/>
      <point x="255" y="397" type="line" smooth="yes"/>
      <point x="389" y="397"/>
      <point x="475" y="317"/>
      <point x="475" y="208" type="curve" smooth="yes"/>
      <point x="475" y="98"/>
      <point x="389" y="18"/>
      <point x="255" y="18" type="curve" smooth="yes"/>
      <point x="103" y="18" type="line"/>
    </contour>
    <contour>
      <point x="250" y="415" type="move" name="top"/>
    </contour>
    <contour>
      <point x="129" y="211" type="move" name="center"/>
    </contour>
    <contour>
      <point x="254" y="0" type="move" name="bottom"/>
    </contour>
  </outline>
</glyph>
<glyph name="E" format="1">
  <advance width="430"/>
  <unicode hex="0045"/>
  <outline>
    <contour>
      <point x="386" y="0" type="line"/>
      <point x="386" y="18" type="line"/>
      <point x="103" y="18" type="line"/>
      <point x="103" y="202" type="line"/>
      <point x="348" y="202" type="line"/>
      <point x="348" y="220" type="line"/>
      <point x="103" y="220" type="line"/>
      <point x="103" y="397" type="line"/>
      <point x="377" y="397" type="line"/>
      <point x="377" y="415" type="line"/>
      <point x="83" y="415" type="line"/>
      <point x="83" y="0" type="line"/>
    </contour>
    <contour>
      <point x="386" y="0" type="move" name="ogonek"/>
    </contour>
    <contour>
      <point x="230" y="415" type="move" name="top"/>
    </contour>
    <contour>
      <point x="25" y="415" type="move" name="topleft"/>
    </contour>
    <contour>
      <point x="241" y="0" type="move" name="bottom"/>
    </contour>
  </outline>
</glyph>
<glyph name="F" format="1">
  <advance width="407"/>
  <unicode hex="0046"/>
  <outline>
    <contour>
      <point x="103" y="0" type="line"/>
      <point x="103" y="189" type="line"/>
      <point x="348" y="189" type="line"/>
      <point x="348" y="207" type="line"/>
      <point x="103" y="207" type="line"/>
      <point x="103" y="397" type="line"/>
      <point x="377" y="397" type="line"/>
      <point x="377" y="415" type="line"/>
      <point x="83" y="415" type="line"/>
      <point x="83" y="0" type="line"/>
    </contour>
  </outline>
</glyph>
<glyph name="G" format="1">
  <advance width="498"/>
  <unicode hex="0047"/>
  <outline>
    <contour>
      <point x="428" y="51" type="curve"/>
      <point x="416" y="66" type="line"/>
      <point x="377" y="30"/>
      <point x="327" y="16"/>
      <point x="271" y="16" type="curve" smooth="yes"/>
      <point x="148" y="16"/>
      <point x="57" y="99"/>
      <point x="57" y="208" type="curve" smooth="yes"/>
      <point x="57" y="316"/>
      <point x="148" y="399"/>
      <point x="271" y="399" type="curve" smooth="yes"/>
      <point x="327" y="399"/>
      <point x="376" y="385"/>
      <point x="416" y="349" type="curve"/>
      <point x="428" y="363" type="line"/>
      <point x="389" y="399"/>
      <point x="333" y="417"/>
      <point x="271" y="417" type="curve" smooth="yes"/>
      <point x="136" y="417"/>
      <point x="37" y="328"/>
      <point x="37" y="208" type="curve" smooth="yes"/>
      <point x="37" y="87"/>
      <point x="136" y="-2"/>
      <point x="271" y="-2" type="curve" smooth="yes"/>
      <point x="332" y="-2"/>
      <point x="388" y="16"/>
    </contour>
    <contour>
      <point x="428" y="51" type="line"/>
      <point x="428" y="204" type="line"/>
      <point x="410" y="204" type="line"/>
      <point x="410" y="52" type="line"/>
    </contour>
    <contour>
      <point x="259" y="415" type="move" name="top"/>
    </contour>
    <contour>
      <point x="259" y="0" type="move" name="bottom"/>
    </contour>
  </outline>
</glyph>
<glyph name="H" format="1">
  <advance width="524"/>
  <unicode hex="0048"/>
  <outline>
    <contour>
      <point x="103" y="0" type="line"/>
      <point x="103" y="202" type="line"/>
      <point x="422" y="202" type="line"/>
      <point x="422" y="0" type="line"/>
      <point x="441" y="0" type="line"/>
      <point x="441" y="415" type="line"/>
      <point x="422" y="415" type="line"/>
      <point x="422" y="220" type="line"/>
      <point x="103" y="220" type="line"/>
      <point x="103" y="415" type="line"/>
      <point x="83" y="415" type="line"/>
      <point x="83" y="0" type="line"/>
    </contour>
    <contour>
      <point x="262" y="415" type="move" name="top"/>
    </contour>
    <contour>
      <point x="262" y="321" type="move" name="center"/>
    </contour>
    <contour>
      <point x="262" y="0" type="move" name="bottom"/>
    </contour>
  </outline>
</glyph>
<glyph name="I" format="1">
  <advance width="186"/>
  <unicode hex="0049"/>
  <outline>
    <contour>
      <point x="103" y="0" type="line"/>
      <point x="103" y="415" type="line"/>
      <point x="83" y="415" type="line"/>
      <point x="83" y="0" type="line"/>
    </contour>
    <contour>
      <point x="103" y="0" type="move" name="ogonek"/>
    </contour>
    <contour>
      <point x="93" y="415" type="move" name="top"/>
    </contour>
    <contour>
      <point x="25" y="415" type="move" name="topleft"/>
    </contour>
    <contour>
      <point x="93" y="0" type="move" name="bottom"/>
    </contour>
  </outline>
</glyph>
<glyph name="J" format="1">
  <advance width="310"/>
  <unicode hex="004A"/>
  <outline>
    <contour>
      <point x="230" y="118" type="curve" smooth="yes"/>
      <point x="230" y="415" type="line"/>
      <point x="43" y="415" type="line"/>
      <point x="43" y="397" type="line"/>
      <point x="211" y="397" type="line"/>
      <point x="211" y="119" type="line" smooth="yes"/>
      <point x="211" y="49"/>
      <point x="180" y="16"/>
      <point x="116" y="16" type="curve" smooth="yes"/>
      <point x="75" y="16"/>
      <point x="39" y="35"/>
      <point x="14" y="69" type="curve"/>
      <point x="2" y="57" type="line"/>
      <point x="26" y="20"/>
      <point x="69" y="-2"/>
      <point x="116" y="-2" type="curve" smooth="yes"/>
      <point x="192" y="-2"/>
      <point x="230" y="38"/>
    </contour>
    <contour>
      <point x="137" y="415" type="move" name="top"/>
    </contour>
  </outline>
</glyph>
<glyph name="K" format="1">
  <advance width="448"/>
  <unicode hex="004B"/>
  <outline>
    <contour>
      <point x="212" y="212" type="line"/>
      <point x="223" y="223" type="line"/>
      <point x="424" y="415" type="line"/>
      <point x="400" y="415" type="line"/>
      <point x="99" y="132" type="line"/>
      <point x="99" y="107" type="line"/>
    </contour>
    <contour>
      <point x="103" y="0" type="line"/>
      <point x="103" y="415" type="line"/>
      <point x="83" y="415" type="line"/>
      <point x="83" y="0" type="line"/>
    </contour>
    <contour>
      <point x="439" y="0" type="line"/>
      <point x="218" y="233" type="line"/>
      <point x="204" y="219" type="line"/>
      <point x="414" y="0" type="line"/>
    </contour>
    <contour>
      <point x="238" y="415" type="move" name="top"/>
    </contour>
    <contour>
      <point x="238" y="0" type="move" name="bottom"/>
    </contour>
  </outline>
</glyph>
<glyph name="L" format="1">
  <advance width="374"/>
  <unicode hex="004C"/>
  <outline>
    <contour>
      <point x="368" y="0" type="line"/>
      <point x="368" y="18" type="line"/>
      <point x="103" y="18" type="line"/>
      <point x="103" y="415" type="line"/>
      <point x="83" y="415" type="line"/>
      <point x="83" y="0" type="line"/>
    </contour>
    <contour>
      <point x="93" y="215" type="move" name="center"/>
    </contour>
    <contour>
      <point x="280" y="225" type="move" name="dot"/>
    </contour>
    <contour>
      <point x="93" y="415" type="move" name="top"/>
    </contour>
    <contour>
      <point x="286" y="415" type="move" name="topright"/>
    </contour>
    <contour>
      <point x="232" y="0" type="move" name="bottom"/>
    </contour>
  </outline>
</glyph>
<glyph name="M" format="1">
  <advance width="615"/>
  <unicode hex="004D"/>
  <outline>
    <contour>
      <point x="102" y="0" type="line"/>
      <point x="102" y="386" type="line"/>
      <point x="95" y="386" type="line"/>
      <point x="302" y="57" type="line"/>
      <point x="313" y="57" type="line"/>
      <point x="518" y="386" type="line"/>
      <point x="513" y="386" type="line"/>
      <point x="513" y="0" type="line"/>
      <point x="531" y="0" type="line"/>
      <point x="531" y="415" type="line"/>
      <point x="515" y="415" type="line"/>
      <point x="303" y="75" type="line"/>
      <point x="312" y="75" type="line"/>
      <point x="100" y="415" type="line"/>
      <point x="83" y="415" type="line"/>
      <point x="83" y="0" type="line"/>
    </contour>
    <contour>
      <point x="307" y="415" type="move" name="top"/>
    </contour>
    <contour>
      <point x="307" y="0" type="move" name="bottom"/>
    </contour>
  </outline>
</glyph>
<glyph name="N" format="1">
  <advance width="524"/>
  <unicode hex="004E"/>
  <outline>
    <contour>
      <point x="103" y="0" type="line"/>
      <point x="103" y="391" type="line"/>
      <point x="93" y="391" type="line"/>
      <point x="425" y="0" type="line"/>
      <point x="441" y="0" type="line"/>
      <point x="441" y="415" type="line"/>
      <point x="422" y="415" type="line"/>
      <point x="422" y="24" type="line"/>
      <point x="431" y="24" type="line"/>
      <point x="100" y="415" type="line"/>
      <point x="83" y="415" type="line"/>
      <point x="83" y="0" type="line"/>
    </contour>
    <contour>
      <point x="262" y="415" type="move" name="top"/>
    </contour>
    <contour>
      <point x="262" y="0" type="move" name="bottom"/>
    </contour>
  </outline>
</glyph>
<glyph name="O" format="1">
  <advance width="538"/>
  <unicode hex="004F"/>
  <outline>
    <contour>
      <point x="501" y="208" type="curve" smooth="yes"/>
      <point x="501" y="328"/>
      <point x="401" y="417"/>
      <point x="269" y="417" type="curve" smooth="yes"/>
      <point x="136" y="417"/>
      <point x="37" y="328"/>
      <point x="37" y="208" type="curve" smooth="yes"/>
      <point x="37" y="87"/>
      <point x="136" y="-2"/>
      <point x="269" y="-2" type="curve" smooth="yes"/>
      <point x="401" y="-2"/>
      <point x="501" y="87"/>
    </contour>
    <contour>
      <point x="57" y="208" type="curve" smooth="yes"/>
      <point x="57" y="317"/>
      <point x="148" y="399"/>
      <point x="269" y="399" type="curve" smooth="yes"/>
      <point x="390" y="399"/>
      <point x="481" y="317"/>
      <point x="481" y="208" type="curve" smooth="yes"/>
      <point x="481" y="98"/>
      <point x="390" y="16"/>
      <point x="269" y="16" type="curve" smooth="yes"/>
      <point x="148" y="16"/>
      <point x="57" y="98"/>
    </contour>
    <contour>
      <point x="269" y="0" type="move" name="bottom"/>
    </contour>
    <contour>
      <point x="304" y="0" type="move" name="ogonek"/>
    </contour>
    <contour>
      <point x="269" y="415" type="move" name="top"/>
    </contour>
    <contour>
      <point x="427" y="415" type="move" name="topright"/>
    </contour>
    <contour>
      <point x="37" y="415" type="move" name="topleft"/>
    </contour>
    <contour>
      <point x="269" y="208" type="move" name="center"/>
    </contour>
  </outline>
</glyph>
<glyph name="P" format="1">
  <advance width="458"/>
  <unicode hex="0050"/>
  <outline>
    <contour>
      <point x="103" y="0" type="line"/>
      <point x="103" y="149" type="line"/>
      <point x="94" y="139" type="line"/>
      <point x="239" y="139" type="line" smooth="yes"/>
      <point x="350" y="139"/>
      <point x="417" y="191"/>
      <point x="417" y="277" type="curve" smooth="yes"/>
      <point x="417" y="364"/>
      <point x="350" y="415"/>
      <point x="239" y="415" type="curve" smooth="yes"/>
      <point x="83" y="415" type="line"/>
      <point x="83" y="0" type="line"/>
    </contour>
    <contour>
      <point x="103" y="406" type="line"/>
      <point x="94" y="397" type="line"/>
      <point x="239" y="397" type="line" smooth="yes"/>
      <point x="342" y="397"/>
      <point x="397" y="353"/>
      <point x="397" y="277" type="curve" smooth="yes"/>
      <point x="397" y="201"/>
      <point x="342" y="158"/>
      <point x="239" y="158" type="curve" smooth="yes"/>
      <point x="94" y="158" type="line"/>
      <point x="103" y="149" type="line"/>
    </contour>
  </outline>
</glyph>
<glyph name="Q" format="1">
  <advance width="538"/>
  <unicode hex="0051"/>
  <outline>
    <contour>
      <point x="501" y="208" type="curve" smooth="yes"/>
      <point x="501" y="328"/>
      <point x="401" y="417"/>
      <point x="269" y="417" type="curve" smooth="yes"/>
      <point x="136" y="417"/>
      <point x="37" y="328"/>
      <point x="37" y="208" type="curve" smooth="yes"/>
      <point x="37" y="87"/>
      <point x="136" y="-2"/>
      <point x="269" y="-2" type="curve" smooth="yes"/>
      <point x="401" y="-2"/>
      <point x="501" y="87"/>
    </contour>
    <contour>
      <point x="520" y="-30" type="curve"/>
      <point x="509" y="-17" type="line"/>
      <point x="483" y="-45"/>
      <point x="454" y="-58"/>
      <point x="417" y="-58" type="curve" smooth="yes"/>
      <point x="377" y="-58"/>
      <point x="336" y="-37"/>
      <point x="293" y="8" type="curve"/>
      <point x="269" y="2" type="line"/>
      <point x="325" y="-52"/>
      <point x="369" y="-76"/>
      <point x="417" y="-76" type="curve" smooth="yes"/>
      <point x="458" y="-76"/>
      <point x="494" y="-60"/>
    </contour>
    <contour>
      <point x="57" y="208" type="curve" smooth="yes"/>
      <point x="57" y="316"/>
      <point x="148" y="399"/>
      <point x="269" y="399" type="curve" smooth="yes"/>
      <point x="390" y="399"/>
      <point x="481" y="316"/>
      <point x="481" y="208" type="curve" smooth="yes"/>
      <point x="481" y="99"/>
      <point x="390" y="16"/>
      <point x="269" y="16" type="curve" smooth="yes"/>
      <point x="148" y="16"/>
      <point x="57" y="99"/>
    </contour>
    <contour>
      <point x="269" y="415" type="move" name="top"/>
    </contour>
  </outline>
</glyph>
<glyph name="R" format="1">
  <advance width="461"/>
  <unicode hex="0052"/>
  <outline>
    <contour>
      <point x="103" y="0" type="line"/>
      <point x="103" y="149" type="line"/>
      <point x="94" y="140" type="line"/>
      <point x="239" y="140" type="line" smooth="yes"/>
      <point x="350" y="140"/>
      <point x="417" y="191"/>
      <point x="417" y="277" type="curve" smooth="yes"/>
      <point x="417" y="364"/>
      <point x="350" y="415"/>
      <point x="239" y="415" type="curve" smooth="yes"/>
      <point x="83" y="415" type="line"/>
      <point x="83" y="0" type="line"/>
    </contour>
    <contour>
      <point x="423" y="0" type="line"/>
      <point x="306" y="151" type="line"/>
      <point x="283" y="151" type="line"/>
      <point x="400" y="0" type="line"/>
    </contour>
    <contour>
      <point x="103" y="406" type="line"/>
      <point x="94" y="397" type="line"/>
      <point x="239" y="397" type="line" smooth="yes"/>
      <point x="342" y="397"/>
      <point x="397" y="353"/>
      <point x="397" y="277" type="curve" smooth="yes"/>
      <point x="397" y="201"/>
      <point x="342" y="158"/>
      <point x="239" y="158" type="curve" smooth="yes"/>
      <point x="94" y="158" type="line"/>
      <point x="103" y="149" type="line"/>
    </contour>
    <contour>
      <point x="236" y="415" type="move" name="top"/>
    </contour>
    <contour>
      <point x="236" y="0" type="move" name="bottom"/>
    </contour>
  </outline>
</glyph>
<glyph name="S" format="1">
  <advance width="388"/>
  <unicode hex="0053"/>
  <outline>
    <contour>
      <point x="352" y="104" type="curve" smooth="yes"/>
      <point x="352" y="254"/>
      <point x="68" y="177"/>
      <point x="68" y="311" type="curve" smooth="yes"/>
      <point x="68" y="359"/>
      <point x="110" y="399"/>
      <point x="202" y="399" type="curve" smooth="yes"/>
      <point x="243" y="399"/>
      <point x="289" y="388"/>
      <point x="325" y="364" type="curve"/>
      <point x="334" y="380" type="line"/>
      <point x="301" y="403"/>
      <point x="251" y="417"/>
      <point x="202" y="417" type="curve" smooth="yes"/>
      <point x="95" y="417"/>
      <point x="48" y="367"/>
      <point x="48" y="311" type="curve" smooth="yes"/>
      <point x="48" y="157"/>
      <point x="333" y="236"/>
      <point x="333" y="103" type="curve" smooth="yes"/>
      <point x="333" y="55"/>
      <point x="290" y="16"/>
      <point x="195" y="16" type="curve" smooth="yes"/>
      <point x="133" y="16"/>
      <point x="76" y="39"/>
      <point x="47" y="70" type="curve"/>
      <point x="36" y="55" type="line"/>
      <point x="67" y="21"/>
      <point x="130" y="-2"/>
      <point x="196" y="-2" type="curve" smooth="yes"/>
      <point x="304" y="-2"/>
      <point x="352" y="47"/>
    </contour>
    <contour>
      <point x="205" y="415" type="move" name="top"/>
    </contour>
    <contour>
      <point x="205" y="0" type="move" name="bottom"/>
    </contour>
  </outline>
</glyph>
<glyph name="T" format="1">
  <advance width="356"/>
  <unicode hex="0054"/>
  <outline>
    <contour>
      <point x="188" y="0" type="line"/>
      <point x="188" y="397" type="line"/>
      <point x="353" y="397" type="line"/>
      <point x="353" y="415" type="line"/>
      <point x="3" y="415" type="line"/>
      <point x="3" y="397" type="line"/>
      <point x="168" y="397" type="line"/>
      <point x="168" y="0" type="line"/>
    </contour>
    <contour>
      <point x="178" y="415" type="move" name="top"/>
    </contour>
    <contour>
      <point x="178" y="209" type="move" name="center"/>
    </contour>
    <contour>
      <point x="178" y="0" type="move" name="bottom"/>
    </contour>
  </outline>
</glyph>
<glyph name="U" format="1">
  <advance width="510"/>
  <unicode hex="0055"/>
  <outline>
    <contour>
      <point x="431" y="175" type="curve" smooth="yes"/>
      <point x="431" y="415" type="line"/>
      <point x="412" y="415" type="line"/>
      <point x="412" y="176" type="line" smooth="yes"/>
      <point x="412" y="68"/>
      <point x="355" y="16"/>
      <point x="255" y="16" type="curve" smooth="yes"/>
      <point x="156" y="16"/>
      <point x="99" y="68"/>
      <point x="99" y="176" type="curve" smooth="yes"/>
      <point x="99" y="415" type="line"/>
      <point x="79" y="415" type="line"/>
      <point x="79" y="175" type="line" smooth="yes"/>
      <point x="79" y="57"/>
      <point x="146" y="-2"/>
      <point x="255" y="-2" type="curve" smooth="yes"/>
      <point x="364" y="-2"/>
      <point x="431" y="57"/>
    </contour>
    <contour>
      <point x="376" y="0" type="move" name="ogonek"/>
    </contour>
    <contour>
      <point x="255" y="415" type="move" name="top"/>
    </contour>
    <contour>
      <point x="431" y="415" type="move" name="topright"/>
    </contour>
    <contour>
      <point x="255" y="0" type="move" name="bottom"/>
    </contour>
  </outline>
</glyph>
<glyph name="V" format="1">
  <advance width="434"/>
  <unicode hex="0056"/>
  <outline>
    <contour>
      <point x="227" y="0" type="line"/>
      <point x="429" y="415" type="line"/>
      <point x="408" y="415" type="line"/>
      <point x="212" y="13" type="line"/>
      <point x="223" y="13" type="line"/>
      <point x="27" y="415" type="line"/>
      <point x="6" y="415" type="line"/>
      <point x="207" y="0" type="line"/>
    </contour>
  </outline>
</glyph>
<glyph name="W" format="1">
  <advance width="722"/>
  <unicode hex="0057"/>
  <outline>
    <contour>
      <point x="207" y="0" type="line"/>
      <point x="363" y="394" type="line"/>
      <point x="359" y="394" type="line"/>
      <point x="515" y="0" type="line"/>
      <point x="535" y="0" type="line"/>
      <point x="695" y="415" type="line"/>
      <point x="675" y="415" type="line"/>
      <point x="520" y="13" type="line"/>
      <point x="530" y="13" type="line"/>
      <point x="371" y="415" type="line"/>
      <point x="352" y="415" type="line"/>
      <point x="192" y="13" type="line"/>
      <point x="203" y="13" type="line"/>
      <point x="48" y="415" type="line"/>
      <point x="27" y="415" type="line"/>
      <point x="187" y="0" type="line"/>
    </contour>
    <contour>
      <point x="361" y="415" type="move" name="top"/>
    </contour>
    <contour>
      <point x="361" y="0" type="move" name="bottom"/>
    </contour>
  </outline>
</glyph>
<glyph name="X" format="1">
  <advance width="404"/>
  <unicode hex="0058"/>
  <outline>
    <contour>
      <point x="38" y="0" type="line"/>
      <point x="205" y="205" type="line"/>
      <point x="198" y="205" type="line"/>
      <point x="365" y="0" type="line"/>
      <point x="389" y="0" type="line"/>
      <point x="210" y="220" type="line"/>
      <point x="210" y="209" type="line"/>
      <point x="376" y="415" type="line"/>
      <point x="353" y="415" type="line"/>
      <point x="199" y="224" type="line"/>
      <point x="206" y="224" type="line"/>
      <point x="51" y="415" type="line"/>
      <point x="28" y="415" type="line"/>
      <point x="195" y="206" type="line"/>
      <point x="195" y="222" type="line"/>
      <point x="15" y="0" type="line"/>
    </contour>
  </outline>
</glyph>
<glyph name="Y" format="1">
  <advance width="434"/>
  <unicode hex="0059"/>
  <outline>
    <contour>
      <point x="227" y="0" type="line"/>
      <point x="227" y="118" type="line"/>
      <point x="222" y="104" type="line"/>
      <point x="429" y="415" type="line"/>
      <point x="407" y="415" type="line"/>
      <point x="212" y="124" type="line"/>
      <point x="222" y="124" type="line"/>
      <point x="27" y="415" type="line"/>
      <point x="5" y="415" type="line"/>
      <point x="212" y="104" type="line"/>
      <point x="207" y="118" type="line"/>
      <point x="207" y="0" type="line"/>
    </contour>
    <contour>
      <point x="217" y="415" type="move" name="top"/>
    </contour>
    <contour>
      <point x="217" y="0" type="move" name="bottom"/>
    </contour>
  </outline>
</glyph>
<glyph name="Z" format="1">
  <advance width="412"/>
  <unicode hex="005A"/>
  <outline>
    <contour>
      <point x="388" y="0" type="line"/>
      <point x="388" y="18" type="line"/>
      <point x="51" y="18" type="line"/>
      <point x="53" y="11" type="line"/>
      <point x="381" y="401" type="line"/>
      <point x="381" y="415" type="line"/>
      <point x="35" y="415" type="line"/>
      <point x="35" y="397" type="line"/>
      <point x="362" y="397" type="line"/>
      <point x="360" y="404" type="line"/>
      <point x="32" y="14" type="line"/>
      <point x="32" y="0" type="line"/>
    </contour>
    <contour>
      <point x="210" y="415" type="move" name="top"/>
    </contour>
    <contour>
      <point x="216" y="0" type="move" name="bottom"/>
    </contour>
  </outline>
</glyph>
<glyph name="bracketleft" format="1">
  <advance width="186"/>
  <unicode hex="005B"/>
  <outline>
    <contour>
      <point x="169" y="-74" type="line"/>
      <point x="169" y="-56" type="line"/>
      <point x="86" y="-56" type="line"/>
      <point x="86" y="422" type="line"/>
      <point x="169" y="422" type="line"/>
      <point x="169" y="440" type="line"/>
      <point x="68" y="440" type="line"/>
      <point x="68" y="-74" type="line"/>
    </contour>
  </outline>
</glyph>
<glyph name="underscore" format="1">
  <advance width="347"/>
  <unicode hex="005F"/>
  <outline>
    <contour>
      <point x="347" y="-121" type="line"/>
      <point x="347" y="-105" type="line"/>
      <point x="0" y="-105" type="line"/>
      <point x="0" y="-121" type="line"/>
    </contour>
  </outline>
</glyph>
<glyph name="a" format="1">
  <advance width="371"/>
  <unicode hex="0061"/>
  <outline>
    <contour>
      <point x="303" y="0" type="line"/>
      <point x="303" y="199" type="line" smooth="yes"/>
      <point x="303" y="272"/>
      <point x="259" y="310"/>
      <point x="180" y="310" type="curve" smooth="yes"/>
      <point x="130" y="310"/>
      <point x="82" y="292"/>
      <point x="50" y="265" type="curve"/>
      <point x="60" y="251" type="line"/>
      <point x="89" y="276"/>
      <point x="131" y="292"/>
      <point x="180" y="292" type="curve" smooth="yes"/>
      <point x="248" y="292"/>
      <point x="283" y="261"/>
      <point x="283" y="199" type="curve" smooth="yes"/>
      <point x="283" y="82" type="line"/>
      <point x="284" y="72" type="line"/>
      <point x="284" y="0" type="line"/>
    </contour>
    <contour>
      <point x="290" y="79" type="curve"/>
      <point x="283" y="89" type="line"/>
      <point x="262" y="41"/>
      <point x="223" y="14"/>
      <point x="161" y="14" type="curve" smooth="yes"/>
      <point x="96" y="14"/>
      <point x="59" y="42"/>
      <point x="59" y="86" type="curve" smooth="yes"/>
      <point x="59" y="125"/>
      <point x="88" y="153"/>
      <point x="161" y="153" type="curve" smooth="yes"/>
      <point x="291" y="153" type="line"/>
      <point x="291" y="168" type="line"/>
      <point x="161" y="168" type="line" smooth="yes"/>
      <point x="71" y="168"/>
      <point x="40" y="130"/>
      <point x="40" y="85" type="curve" smooth="yes"/>
      <point x="40" y="33"/>
      <point x="83" y="-2"/>
      <point x="158" y="-2" type="curve" smooth="yes"/>
      <point x="227" y="-2"/>
      <point x="273" y="30"/>
    </contour>
    <contour>
      <point x="177" y="308" type="move" name="top"/>
    </contour>
    <contour>
      <point x="301" y="0" type="move" name="ogonek"/>
    </contour>
    <contour>
      <point x="182" y="0" type="move" name="bottom"/>
    </contour>
  </outline>
</glyph>
<glyph name="b" format="1">
  <advance width="432"/>
  <unicode hex="0062"/>
  <outline>
    <contour>
      <point x="398" y="154" type="curve" smooth="yes"/>
      <point x="398" y="246"/>
      <point x="328" y="310"/>
      <point x="237" y="310" type="curve" smooth="yes"/>
      <point x="145" y="310"/>
      <point x="79" y="247"/>
      <point x="79" y="154" type="curve" smooth="yes"/>
      <point x="79" y="62"/>
      <point x="145" y="-2"/>
      <point x="237" y="-2" type="curve" smooth="yes"/>
      <point x="328" y="-2"/>
      <point x="398" y="63"/>
    </contour>
    <contour>
      <point x="91" y="0" type="line"/>
      <point x="91" y="108" type="line"/>
      <point x="85" y="155" type="line"/>
      <point x="91" y="202" type="line"/>
      <point x="91" y="440" type="line"/>
      <point x="72" y="440" type="line"/>
      <point x="72" y="0" type="line"/>
    </contour>
    <contour>
      <point x="91" y="154" type="curve" smooth="yes"/>
      <point x="91" y="236"/>
      <point x="153" y="292"/>
      <point x="235" y="292" type="curve" smooth="yes"/>
      <point x="318" y="292"/>
      <point x="379" y="236"/>
      <point x="379" y="154" type="curve" smooth="yes"/>
      <point x="379" y="72"/>
      <point x="318" y="16"/>
      <point x="235" y="16" type="curve" smooth="yes"/>
      <point x="153" y="16"/>
      <point x="91" y="72"/>
    </contour>
  </outline>
</glyph>
<glyph name="c" format="1">
  <advance width="352"/>
  <unicode hex="0063"/>
  <outline>
    <contour>
      <point x="321" y="51" type="curve"/>
      <point x="307" y="63" type="line"/>
      <point x="282" y="31"/>
      <point x="242" y="16"/>
      <point x="199" y="16" type="curve" smooth="yes"/>
      <point x="115" y="16"/>
      <point x="53" y="72"/>
      <point x="53" y="154" type="curve" smooth="yes"/>
      <point x="53" y="236"/>
      <point x="115" y="292"/>
      <point x="199" y="292" type="curve" smooth="yes"/>
      <point x="242" y="292"/>
      <point x="282" y="277"/>
      <point x="307" y="245" type="curve"/>
      <point x="321" y="257" type="line"/>
      <point x="293" y="292"/>
      <point x="248" y="310"/>
      <point x="199" y="310" type="curve" smooth="yes"/>
      <point x="103" y="310"/>
      <point x="34" y="246"/>
      <point x="34" y="154" type="curve" smooth="yes"/>
      <point x="34" y="62"/>
      <point x="103" y="-2"/>
      <point x="199" y="-2" type="curve" smooth="yes"/>
      <point x="248" y="-2"/>
      <point x="293" y="16"/>
    </contour>
    <contour>
      <point x="188" y="308" type="move" name="top"/>
    </contour>
    <contour>
      <point x="188" y="0" type="move" name="bottom"/>
    </contour>
  </outline>
</glyph>
<glyph name="d" format="1">
  <advance width="432"/>
  <unicode hex="0064"/>
  <outline>
    <contour>
      <point x="354" y="154" type="curve" smooth="yes"/>
      <point x="354" y="247"/>
      <point x="287" y="310"/>
      <point x="196" y="310" type="curve" smooth="yes"/>
      <point x="104" y="310"/>
      <point x="34" y="246"/>
      <point x="34" y="154" type="curve" smooth="yes"/>
      <point x="34" y="63"/>
      <point x="104" y="-2"/>
      <point x="196" y="-2" type="curve" smooth="yes"/>
      <point x="287" y="-2"/>
      <point x="354" y="62"/>
    </contour>
    <contour>
      <point x="53" y="154" type="curve" smooth="yes"/>
      <point x="53" y="236"/>
      <point x="115" y="292"/>
      <point x="197" y="292" type="curve" smooth="yes"/>
      <point x="279" y="292"/>
      <point x="341" y="236"/>
      <point x="341" y="154" type="curve" smooth="yes"/>
      <point x="341" y="72"/>
      <point x="279" y="16"/>
      <point x="197" y="16" type="curve" smooth="yes"/>
      <point x="115" y="16"/>
      <point x="53" y="72"/>
    </contour>
    <contour>
      <point x="360" y="0" type="line"/>
      <point x="360" y="440" type="line"/>
      <point x="341" y="440" type="line"/>
      <point x="341" y="202" type="line"/>
      <point x="348" y="155" type="line"/>
      <point x="341" y="108" type="line"/>
      <point x="341" y="0" type="line"/>
    </contour>
    <contour>
      <point x="310" y="374" type="move" name="center"/>
    </contour>
    <contour>
      <point x="212" y="0" type="move" name="bottom"/>
    </contour>
    <contour>
      <point x="424" y="440" type="move" name="topright"/>
    </contour>
  </outline>
</glyph>
<glyph name="e" format="1">
  <advance width="391"/>
  <unicode hex="0065"/>
  <outline>
    <contour>
      <point x="337" y="48" type="curve"/>
      <point x="324" y="61" type="line"/>
      <point x="297" y="30"/>
      <point x="255" y="15"/>
      <point x="208" y="15" type="curve" smooth="yes"/>
      <point x="119" y="15"/>
      <point x="53" y="72"/>
      <point x="53" y="154" type="curve" smooth="yes"/>
      <point x="53" y="158" type="line" smooth="yes"/>
      <point x="53" y="235"/>
      <point x="113" y="293"/>
      <point x="196" y="293" type="curve" smooth="yes"/>
      <point x="278" y="293"/>
      <point x="339" y="235"/>
      <point x="339" y="158" type="curve"/>
      <point x="347" y="167" type="line"/>
      <point x="47" y="167" type="line"/>
      <point x="47" y="152" type="line"/>
      <point x="357" y="152" type="line"/>
      <point x="357" y="154"/>
      <point x="357" y="155"/>
      <point x="357" y="157" type="curve" smooth="yes"/>
      <point x="357" y="247"/>
      <point x="287" y="310"/>
      <point x="196" y="310" type="curve" smooth="yes"/>
      <point x="103" y="310"/>
      <point x="34" y="245"/>
      <point x="34" y="154" type="curve" smooth="yes"/>
      <point x="34" y="63"/>
      <point x="107" y="-2"/>
      <point x="208" y="-2" type="curve" smooth="yes"/>
      <point x="259" y="-2"/>
      <point x="306" y="15"/>
    </contour>
    <contour>
      <point x="194" y="308" type="move" name="top"/>
    </contour>
    <contour>
      <point x="319" y="0" type="move" name="ogonek"/>
    </contour>
    <contour>
      <point x="194" y="0" type="move" name="bottom"/>
    </contour>
  </outline>
</glyph>
<glyph name="f" format="1">
  <advance width="204"/>
  <unicode hex="0066"/>
  <outline>
    <contour>
      <point x="97" y="0" type="line"/>
      <point x="97" y="294" type="line"/>
      <point x="97" y="304" type="line"/>
      <point x="97" y="360" type="line" smooth="yes"/>
      <point x="97" y="402"/>
      <point x="119" y="424"/>
      <point x="163" y="424" type="curve" smooth="yes"/>
      <point x="184" y="424"/>
      <point x="203" y="418"/>
      <point x="217" y="406" type="curve"/>
      <point x="228" y="421" type="line"/>
      <point x="212" y="435"/>
      <point x="186" y="442"/>
      <point x="162" y="442" type="curve" smooth="yes"/>
      <point x="108" y="442"/>
      <point x="78" y="410"/>
      <point x="78" y="362" type="curve" smooth="yes"/>
      <point x="78" y="0" type="line"/>
    </contour>
    <contour>
      <point x="207" y="289" type="line"/>
      <point x="207" y="307" type="line"/>
      <point x="14" y="307" type="line"/>
      <point x="14" y="289" type="line"/>
    </contour>
  </outline>
</glyph>
<glyph name="g" format="1">
  <advance width="436"/>
  <unicode hex="0067"/>
  <outline>
    <contour>
      <point x="364" y="30" type="curve" smooth="yes"/>
      <point x="364" y="308" type="line"/>
      <point x="345" y="308" type="line"/>
      <point x="345" y="201" type="line"/>
      <point x="351" y="161" type="line"/>
      <point x="345" y="120" type="line"/>
      <point x="345" y="27" type="line" smooth="yes"/>
      <point x="345" y="-60"/>
      <point x="301" y="-100"/>
      <point x="207" y="-100" type="curve" smooth="yes"/>
      <point x="152" y="-100"/>
      <point x="104" y="-83"/>
      <point x="70" y="-53" type="curve"/>
      <point x="59" y="-67" type="line"/>
      <point x="91" y="-99"/>
      <point x="147" y="-117"/>
      <point x="208" y="-117" type="curve" smooth="yes"/>
      <point x="312" y="-117"/>
      <point x="364" y="-71"/>
    </contour>
    <contour>
      <point x="357" y="161" type="curve" smooth="yes"/>
      <point x="357" y="249"/>
      <point x="290" y="310"/>
      <point x="197" y="310" type="curve" smooth="yes"/>
      <point x="104" y="310"/>
      <point x="34" y="248"/>
      <point x="34" y="161" type="curve" smooth="yes"/>
      <point x="34" y="73"/>
      <point x="104" y="11"/>
      <point x="197" y="11" type="curve" smooth="yes"/>
      <point x="290" y="11"/>
      <point x="357" y="73"/>
    </contour>
    <contour>
      <point x="53" y="161" type="curve" smooth="yes"/>
      <point x="53" y="238"/>
      <point x="115" y="292"/>
      <point x="199" y="292" type="curve" smooth="yes"/>
      <point x="283" y="292"/>
      <point x="345" y="238"/>
      <point x="345" y="161" type="curve" smooth="yes"/>
      <point x="345" y="83"/>
      <point x="283" y="28"/>
      <point x="199" y="28" type="curve" smooth="yes"/>
      <point x="115" y="28"/>
      <point x="53" y="83"/>
    </contour>
    <contour>
      <point x="204" y="308" type="move" name="top"/>
    </contour>
  </outline>
</glyph>
<glyph name="h" format="1">
  <advance width="431"/>
  <unicode hex="0068"/>
  <outline>
    <contour>
      <point x="362" y="0" type="line"/>
      <point x="362" y="181" type="line" smooth="yes"/>
      <point x="362" y="266"/>
      <point x="310" y="310"/>
      <point x="229" y="310" type="curve" smooth="yes"/>
      <point x="136" y="310"/>
      <point x="80" y="254"/>
      <point x="79" y="172" type="curve"/>
      <point x="91" y="166" type="line"/>
      <point x="91" y="241"/>
      <point x="143" y="292"/>
      <point x="227" y="292" type="curve" smooth="yes"/>
      <point x="300" y="292"/>
      <point x="343" y="253"/>
      <point x="343" y="180" type="curve" smooth="yes"/>
      <point x="343" y="0" type="line"/>
    </contour>
    <contour>
      <point x="91" y="0" type="line"/>
      <point x="91" y="440" type="line"/>
      <point x="72" y="440" type="line"/>
      <point x="72" y="0" type="line"/>
    </contour>
    <contour>
      <point x="122" y="374" type="move" name="center"/>
    </contour>
    <contour>
      <point x="82" y="440" type="move" name="top"/>
    </contour>
    <contour>
      <point x="149" y="308" type="move" name="topright"/>
    </contour>
    <contour>
      <point x="216" y="0" type="move" name="bottom"/>
    </contour>
  </outline>
</glyph>
<glyph name="i" format="1">
  <advance width="163"/>
  <unicode hex="0069"/>
  <outline>
    <component base="dotaccentcomb.i" xOffset="-111.352"/>
    <component base="idotless"/>
    <contour>
      <point x="91" y="0" type="move" name="ogonek"/>
    </contour>
    <contour>
      <point x="82" y="0" type="move" name="bottom"/>
    </contour>
  </outline>
</glyph>
<glyph name="k" format="1">
  <advance width="362"/>
  <unicode hex="006B"/>
  <outline>
    <contour>
      <point x="187" y="173" type="line"/>
      <point x="200" y="183" type="line"/>
      <point x="345" y="308" type="line"/>
      <point x="319" y="308" type="line"/>
      <point x="86" y="113" type="line"/>
      <point x="86" y="89" type="line"/>
    </contour>
    <contour>
      <point x="91" y="0" type="line"/>
      <point x="91" y="440" type="line"/>
      <point x="72" y="440" type="line"/>
      <point x="72" y="0" type="line"/>
    </contour>
    <contour>
      <point x="360" y="0" type="line"/>
      <point x="197" y="189" type="line"/>
      <point x="183" y="176" type="line"/>
      <point x="336" y="0" type="line"/>
    </contour>
    <contour>
      <point x="82" y="440" type="move" name="top"/>
    </contour>
    <contour>
      <point x="146" y="308" type="move" name="topright"/>
    </contour>
    <contour>
      <point x="198" y="0" type="move" name="bottom"/>
    </contour>
  </outline>
</glyph>
<glyph name="l" format="1">
  <advance width="163"/>
  <unicode hex="006C"/>
  <outline>
    <contour>
      <point x="91" y="0" type="line"/>
      <point x="91" y="440" type="line"/>
      <point x="72" y="440" type="line"/>
      <point x="72" y="0" type="line"/>
    </contour>
    <contour>
      <point x="82" y="208" type="move" name="center"/>
    </contour>
    <contour>
      <point x="166" y="208" type="move" name="dot"/>
    </contour>
    <contour>
      <point x="82" y="440" type="move" name="top"/>
    </contour>
    <contour>
      <point x="155" y="440" type="move" name="topright"/>
    </contour>
    <contour>
      <point x="82" y="0" type="move" name="bottom"/>
    </contour>
  </outline>
</glyph>
<glyph name="m" format="1">
  <advance width="686"/>
  <unicode hex="006D"/>
  <outline>
    <contour>
      <point x="618" y="0" type="line"/>
      <point x="618" y="181" type="line" smooth="yes"/>
      <point x="618" y="266"/>
      <point x="568" y="310"/>
      <point x="488" y="310" type="curve" smooth="yes"/>
      <point x="399" y="310"/>
      <point x="343" y="254"/>
      <point x="342" y="178" type="curve"/>
      <point x="354" y="166" type="line"/>
      <point x="354" y="241"/>
      <point x="404" y="292"/>
      <point x="486" y="292" type="curve" smooth="yes"/>
      <point x="557" y="292"/>
      <point x="598" y="253"/>
      <point x="598" y="180" type="curve" smooth="yes"/>
      <point x="598" y="0" type="line"/>
    </contour>
    <contour>
      <point x="91" y="0" type="line"/>
      <point x="91" y="189" type="line"/>
      <point x="91" y="202" type="line"/>
      <point x="91" y="308" type="line"/>
      <point x="72" y="308" type="line"/>
      <point x="72" y="0" type="line"/>
    </contour>
    <contour>
      <point x="354" y="0" type="line"/>
      <point x="354" y="181" type="line" smooth="yes"/>
      <point x="354" y="265"/>
      <point x="304" y="310"/>
      <point x="225" y="310" type="curve" smooth="yes"/>
      <point x="135" y="310"/>
      <point x="80" y="254"/>
      <point x="79" y="172" type="curve"/>
      <point x="91" y="166" type="line"/>
      <point x="91" y="241"/>
      <point x="141" y="292"/>
      <point x="223" y="292" type="curve" smooth="yes"/>
      <point x="293" y="292"/>
      <point x="335" y="253"/>
      <point x="335" y="180" type="curve" smooth="yes"/>
      <point x="335" y="0" type="line"/>
    </contour>
    <contour>
      <point x="345" y="0" type="move" name="bottom"/>
    </contour>
  </outline>
</glyph>
<glyph name="n" format="1">
  <advance width="431"/>
  <unicode hex="006E"/>
  <outline>
    <contour>
      <point x="362" y="0" type="line"/>
      <point x="362" y="181" type="line" smooth="yes"/>
      <point x="362" y="266"/>
      <point x="310" y="310"/>
      <point x="229" y="310" type="curve" smooth="yes"/>
      <point x="136" y="310"/>
      <point x="80" y="254"/>
      <point x="79" y="172" type="curve"/>
      <point x="91" y="166" type="line"/>
      <point x="91" y="241"/>
      <point x="143" y="292"/>
      <point x="227" y="292" type="curve" smooth="yes"/>
      <point x="300" y="292"/>
      <point x="343" y="253"/>
      <point x="343" y="180" type="curve" smooth="yes"/>
      <point x="343" y="0" type="line"/>
    </contour>
    <contour>
      <point x="91" y="0" type="line"/>
      <point x="91" y="189" type="line"/>
      <point x="91" y="202" type="line"/>
      <point x="91" y="308" type="line"/>
      <point x="72" y="308" type="line"/>
      <point x="72" y="0" type="line"/>
    </contour>
    <contour>
      <point x="216" y="308" type="move" name="top"/>
    </contour>
    <contour>
      <point x="216" y="0" type="move" name="bottom"/>
    </contour>
  </outline>
</glyph>
<glyph name="o" format="1">
  <advance width="394"/>
  <unicode hex="006F"/>
  <outline>
    <contour>
      <point x="360" y="154" type="curve" smooth="yes"/>
      <point x="360" y="245"/>
      <point x="291" y="310"/>
      <point x="197" y="310" type="curve" smooth="yes"/>
      <point x="103" y="310"/>
      <point x="34" y="245"/>
      <point x="34" y="154" type="curve" smooth="yes"/>
      <point x="34" y="63"/>
      <point x="103" y="-2"/>
      <point x="197" y="-2" type="curve" smooth="yes"/>
      <point x="291" y="-2"/>
      <point x="360" y="63"/>
    </contour>
    <contour>
      <point x="53" y="154" type="curve" smooth="yes"/>
      <point x="53" y="236"/>
      <point x="115" y="292"/>
      <point x="197" y="292" type="curve" smooth="yes"/>
      <point x="279" y="292"/>
      <point x="341" y="236"/>
      <point x="341" y="154" type="curve" smooth="yes"/>
      <point x="341" y="72"/>
      <point x="279" y="16"/>
      <point x="197" y="16" type="curve" smooth="yes"/>
      <point x="115" y="16"/>
      <point x="53" y="72"/>
    </contour>
    <contour>
      <point x="197" y="154" type="move" name="center"/>
    </contour>
    <contour>
      <point x="253" y="0" type="move" name="ogonek"/>
    </contour>
    <contour>
      <point x="197" y="308" type="move" name="top"/>
    </contour>
    <contour>
      <point x="298" y="308" type="move" name="topright"/>
    </contour>
    <contour>
      <point x="197" y="0" type="move" name="bottom"/>
    </contour>
  </outline>
</glyph>
<glyph name="p" format="1">
  <advance width="432"/>
  <unicode hex="0070"/>
  <outline>
    <contour>
      <point x="398" y="154" type="curve" smooth="yes"/>
      <point x="398" y="245"/>
      <point x="328" y="310"/>
      <point x="237" y="310" type="curve" smooth="yes"/>
      <point x="145" y="310"/>
      <point x="79" y="246"/>
      <point x="79" y="154" type="curve" smooth="yes"/>
      <point x="79" y="61"/>
      <point x="145" y="-2"/>
      <point x="237" y="-2" type="curve" smooth="yes"/>
      <point x="328" y="-2"/>
      <point x="398" y="62"/>
    </contour>
    <contour>
      <point x="91" y="-115" type="line"/>
      <point x="91" y="106" type="line"/>
      <point x="85" y="153" type="line"/>
      <point x="91" y="200" type="line"/>
      <point x="91" y="308" type="line"/>
      <point x="72" y="308" type="line"/>
      <point x="72" y="-115" type="line"/>
    </contour>
    <contour>
      <point x="91" y="154" type="curve" smooth="yes"/>
      <point x="91" y="235"/>
      <point x="153" y="292"/>
      <point x="235" y="292" type="curve" smooth="yes"/>
      <point x="318" y="292"/>
      <point x="379" y="235"/>
      <point x="379" y="154" type="curve" smooth="yes"/>
      <point x="379" y="72"/>
      <point x="318" y="16"/>
      <point x="235" y="16" type="curve" smooth="yes"/>
      <point x="153" y="16"/>
      <point x="91" y="72"/>
    </contour>
    <contour>
      <point x="235" y="308" type="move" name="top"/>
    </contour>
    <contour>
      <point x="237" y="0" type="move" name="bottom"/>
    </contour>
  </outline>
</glyph>
<glyph name="q" format="1">
  <advance width="432"/>
  <unicode hex="0071"/>
  <outline>
    <contour>
      <point x="354" y="154" type="curve" smooth="yes"/>
      <point x="354" y="246"/>
      <point x="287" y="310"/>
      <point x="195" y="310" type="curve" smooth="yes"/>
      <point x="104" y="310"/>
      <point x="34" y="245"/>
      <point x="34" y="154" type="curve" smooth="yes"/>
      <point x="34" y="62"/>
      <point x="104" y="-2"/>
      <point x="195" y="-2" type="curve" smooth="yes"/>
      <point x="287" y="-2"/>
      <point x="354" y="61"/>
    </contour>
    <contour>
      <point x="53" y="154" type="curve" smooth="yes"/>
      <point x="53" y="235"/>
      <point x="115" y="292"/>
      <point x="197" y="292" type="curve" smooth="yes"/>
      <point x="279" y="292"/>
      <point x="341" y="235"/>
      <point x="341" y="154" type="curve" smooth="yes"/>
      <point x="341" y="72"/>
      <point x="279" y="16"/>
      <point x="197" y="16" type="curve" smooth="yes"/>
      <point x="115" y="16"/>
      <point x="53" y="72"/>
    </contour>
    <contour>
      <point x="360" y="-115" type="line"/>
      <point x="360" y="308" type="line"/>
      <point x="341" y="308" type="line"/>
      <point x="341" y="200" type="line"/>
      <point x="347" y="153" type="line"/>
      <point x="341" y="106" type="line"/>
      <point x="341" y="-115" type="line"/>
    </contour>
    <contour>
      <point x="197" y="308" type="move" name="top"/>
    </contour>
    <contour>
      <point x="195" y="0" type="move" name="bottom"/>
    </contour>
  </outline>
</glyph>
<glyph name="r" format="1">
  <advance width="249"/>
  <unicode hex="0072"/>
  <outline>
    <contour>
      <point x="91" y="0" type="line"/>
      <point x="91" y="189" type="line"/>
      <point x="91" y="202" type="line"/>
      <point x="91" y="308" type="line"/>
      <point x="72" y="308" type="line"/>
      <point x="72" y="0" type="line"/>
    </contour>
    <contour>
      <point x="215" y="291" type="curve" smooth="yes"/>
      <point x="217" y="291"/>
      <point x="219" y="291"/>
      <point x="221" y="291" type="curve"/>
      <point x="220" y="310" type="line"/>
      <point x="131" y="310"/>
      <point x="80" y="257"/>
      <point x="80" y="169" type="curve"/>
      <point x="91" y="163" type="line"/>
      <point x="91" y="243"/>
      <point x="137" y="291"/>
    </contour>
    <contour>
      <point x="147" y="308" type="move" name="top"/>
    </contour>
    <contour>
      <point x="82" y="0" type="move" name="bottom"/>
    </contour>
  </outline>
</glyph>
<glyph name="s" format="1">
  <advance width="301"/>
  <unicode hex="0073"/>
  <outline>
    <contour>
      <point x="277" y="80" type="curve" smooth="yes"/>
      <point x="277" y="196"/>
      <point x="51" y="129"/>
      <point x="51" y="229" type="curve" smooth="yes"/>
      <point x="51" y="270"/>
      <point x="89" y="293"/>
      <point x="152" y="293" type="curve" smooth="yes"/>
      <point x="189" y="293"/>
      <point x="228" y="283"/>
      <point x="255" y="264" type="curve"/>
      <point x="264" y="279" type="line"/>
      <point x="237" y="298"/>
      <point x="194" y="310"/>
      <point x="152" y="310" type="curve" smooth="yes"/>
      <point x="79" y="310"/>
      <point x="32" y="278"/>
      <point x="32" y="229" type="curve" smooth="yes"/>
      <point x="32" y="109"/>
      <point x="259" y="177"/>
      <point x="259" y="79" type="curve" smooth="yes"/>
      <point x="259" y="37"/>
      <point x="222" y="15"/>
      <point x="152" y="15" type="curve" smooth="yes"/>
      <point x="99" y="15"/>
      <point x="54" y="33"/>
      <point x="30" y="54" type="curve"/>
      <point x="20" y="39" type="line"/>
      <point x="46" y="15"/>
      <point x="97" y="-2"/>
      <point x="152" y="-2" type="curve" smooth="yes"/>
      <point x="231" y="-2"/>
      <point x="277" y="29"/>
    </contour>
    <contour>
      <point x="151" y="308" type="move" name="top"/>
    </contour>
    <contour>
      <point x="151" y="0" type="move" name="bottom"/>
    </contour>
  </outline>
</glyph>
<glyph name="t" format="1">
  <advance width="252"/>
  <unicode hex="0074"/>
  <outline>
    <contour>
      <point x="228" y="20" type="curve"/>
      <point x="217" y="34" type="line"/>
      <point x="203" y="22"/>
      <point x="184" y="16"/>
      <point x="163" y="16" type="curve" smooth="yes"/>
      <point x="119" y="16"/>
      <point x="97" y="38"/>
      <point x="97" y="80" type="curve" smooth="yes"/>
      <point x="97" y="375" type="line"/>
      <point x="78" y="375" type="line"/>
      <point x="78" y="77" type="line" smooth="yes"/>
      <point x="78" y="29"/>
      <point x="107" y="-2"/>
      <point x="162" y="-2" type="curve" smooth="yes"/>
      <point x="186" y="-2"/>
      <point x="212" y="5"/>
    </contour>
    <contour>
      <point x="207" y="289" type="line"/>
      <point x="207" y="307" type="line"/>
      <point x="14" y="307" type="line"/>
      <point x="14" y="289" type="line"/>
    </contour>
    <contour>
      <point x="111" y="180" type="move" name="center"/>
    </contour>
    <contour>
      <point x="87" y="375" type="move" name="top"/>
    </contour>
    <contour>
      <point x="163" y="440" type="move" name="topright"/>
    </contour>
    <contour>
      <point x="156" y="0" type="move" name="bottom"/>
    </contour>
  </outline>
</glyph>
<glyph name="u" format="1">
  <advance width="428"/>
  <unicode hex="0075"/>
  <outline>
    <contour>
      <point x="349" y="136" type="curve"/>
      <point x="337" y="142" type="line"/>
      <point x="337" y="67"/>
      <point x="287" y="16"/>
      <point x="207" y="16" type="curve" smooth="yes"/>
      <point x="131" y="16"/>
      <point x="87" y="55"/>
      <point x="87" y="129" type="curve" smooth="yes"/>
      <point x="87" y="308" type="line"/>
      <point x="68" y="308" type="line"/>
      <point x="68" y="127" type="line" smooth="yes"/>
      <point x="68" y="42"/>
      <point x="121" y="-2"/>
      <point x="205" y="-2" type="curve" smooth="yes"/>
      <point x="294" y="-2"/>
      <point x="348" y="54"/>
    </contour>
    <contour>
      <point x="356" y="0" type="line"/>
      <point x="356" y="308" type="line"/>
      <point x="337" y="308" type="line"/>
      <point x="337" y="119" type="line"/>
      <point x="337" y="106" type="line"/>
      <point x="337" y="0" type="line"/>
    </contour>
    <contour>
      <point x="356" y="0" type="move" name="ogonek"/>
    </contour>
    <contour>
      <point x="212" y="308" type="move" name="top"/>
    </contour>
    <contour>
      <point x="347" y="308" type="move" name="topright"/>
    </contour>
    <contour>
      <point x="212" y="0" type="move" name="bottom"/>
    </contour>
  </outline>
</glyph>
<glyph name="v" format="1">
  <advance width="331"/>
  <unicode hex="0076"/>
  <outline>
    <contour>
      <point x="175" y="0" type="line"/>
      <point x="328" y="308" type="line"/>
      <point x="307" y="308" type="line"/>
      <point x="161" y="12" type="line"/>
      <point x="170" y="12" type="line"/>
      <point x="24" y="308" type="line"/>
      <point x="3" y="308" type="line"/>
      <point x="156" y="0" type="line"/>
    </contour>
    <contour>
      <point x="165" y="308" type="move" name="top"/>
    </contour>
    <contour>
      <point x="165" y="0" type="move" name="bottom"/>
    </contour>
  </outline>
</glyph>
<glyph name="w" format="1">
  <advance width="623"/>
  <unicode hex="0077"/>
  <outline>
    <contour>
      <point x="173" y="0" type="line"/>
      <point x="315" y="289" type="line"/>
      <point x="308" y="289" type="line"/>
      <point x="450" y="0" type="line"/>
      <point x="469" y="0" type="line"/>
      <point x="616" y="308" type="line"/>
      <point x="596" y="308" type="line"/>
      <point x="455" y="12" type="line"/>
      <point x="464" y="12" type="line"/>
      <point x="321" y="308" type="line"/>
      <point x="302" y="308" type="line"/>
      <point x="159" y="12" type="line"/>
      <point x="168" y="12" type="line"/>
      <point x="28" y="308" type="line"/>
      <point x="6" y="308" type="line"/>
      <point x="154" y="0" type="line"/>
    </contour>
    <contour>
      <point x="311" y="308" type="move" name="top"/>
    </contour>
    <contour>
      <point x="311" y="0" type="move" name="bottom"/>
    </contour>
  </outline>
</glyph>
<glyph name="x" format="1">
  <advance width="325"/>
  <unicode hex="0078"/>
  <outline>
    <contour>
      <point x="40" y="0" type="line"/>
      <point x="165" y="149" type="line"/>
      <point x="159" y="149" type="line"/>
      <point x="284" y="0" type="line"/>
      <point x="308" y="0" type="line"/>
      <point x="169" y="165" type="line"/>
      <point x="169" y="153" type="line"/>
      <point x="299" y="308" type="line"/>
      <point x="277" y="308" type="line"/>
      <point x="158" y="168" type="line"/>
      <point x="166" y="168" type="line"/>
      <point x="48" y="308" type="line"/>
      <point x="24" y="308" type="line"/>
      <point x="153" y="155" type="line"/>
      <point x="154" y="164" type="line"/>
      <point x="17" y="0" type="line"/>
    </contour>
  </outline>
</glyph>
<glyph name="y" format="1">
  <advance width="331"/>
  <unicode hex="0079"/>
  <outline>
    <contour>
      <point x="152" y="-46" type="curve" smooth="yes"/>
      <point x="328" y="308" type="line"/>
      <point x="307" y="308" type="line"/>
      <point x="161" y="12" type="line"/>
      <point x="158" y="7" type="line"/>
      <point x="134" y="-42" type="line" smooth="yes"/>
      <point x="111" y="-86"/>
      <point x="87" y="-99"/>
      <point x="55" y="-99" type="curve" smooth="yes"/>
      <point x="29" y="-99"/>
      <point x="10" y="-92"/>
      <point x="-7" y="-74" type="curve"/>
      <point x="-19" y="-90" type="line"/>
      <point x="-1" y="-108"/>
      <point x="25" y="-117"/>
      <point x="55" y="-117" type="curve" smooth="yes"/>
      <point x="96" y="-117"/>
      <point x="127" y="-99"/>
    </contour>
    <contour>
      <point x="170" y="13" type="line"/>
      <point x="24" y="308" type="line"/>
      <point x="3" y="308" type="line"/>
      <point x="159" y="-7" type="line"/>
    </contour>
    <contour>
      <point x="156" y="308" type="move" name="top"/>
    </contour>
    <contour>
      <point x="226" y="0" type="move" name="bottom"/>
    </contour>
  </outline>
</glyph>
<glyph name="z" format="1">
  <advance width="318"/>
  <unicode hex="007A"/>
  <outline>
    <contour>
      <point x="288" y="0" type="line"/>
      <point x="288" y="17" type="line"/>
      <point x="41" y="17" type="line"/>
      <point x="50" y="11" type="line"/>
      <point x="285" y="294" type="line"/>
      <point x="285" y="308" type="line"/>
      <point x="32" y="308" type="line"/>
      <point x="32" y="290" type="line"/>
      <point x="270" y="290" type="line"/>
      <point x="264" y="297" type="line"/>
      <point x="29" y="14" type="line"/>
      <point x="29" y="0" type="line"/>
    </contour>
    <contour>
      <point x="159" y="308" type="move" name="top"/>
    </contour>
    <contour>
      <point x="165" y="0" type="move" name="bottom"/>
    </contour>
  </outline>
</glyph>
<glyph name="braceleft" format="1">
  <advance width="206"/>
  <unicode hex="007B"/>
  <outline>
    <contour>
      <point x="59" y="174" type="line"/>
      <point x="79" y="181" type="line" smooth="yes"/>
      <point x="103" y="187"/>
      <point x="112" y="202"/>
      <point x="112" y="233" type="curve" smooth="yes"/>
      <point x="112" y="375" type="line" smooth="yes"/>
      <point x="112" y="407"/>
      <point x="133" y="422"/>
      <point x="180" y="422" type="curve"/>
      <point x="180" y="440" type="line"/>
      <point x="174" y="440" type="line" smooth="yes"/>
      <point x="119" y="440"/>
      <point x="93" y="421"/>
      <point x="93" y="377" type="curve" smooth="yes"/>
      <point x="93" y="233" type="line" smooth="yes"/>
      <point x="93" y="205"/>
      <point x="82" y="192"/>
      <point x="59" y="192" type="curve" smooth="yes"/>
      <point x="46" y="192" type="line"/>
      <point x="46" y="174" type="line"/>
    </contour>
    <contour>
      <point x="180" y="-75" type="line"/>
      <point x="180" y="-57" type="line"/>
      <point x="133" y="-57"/>
      <point x="112" y="-42"/>
      <point x="112" y="-9" type="curve" smooth="yes"/>
      <point x="112" y="132" type="line" smooth="yes"/>
      <point x="112" y="164"/>
      <point x="103" y="179"/>
      <point x="79" y="184" type="curve" smooth="yes"/>
      <point x="59" y="192" type="line"/>
      <point x="46" y="192" type="line"/>
      <point x="46" y="174" type="line"/>
      <point x="59" y="174" type="line" smooth="yes"/>
      <point x="82" y="174"/>
      <point x="93" y="161"/>
      <point x="93" y="133" type="curve" smooth="yes"/>
      <point x="93" y="-12" type="line" smooth="yes"/>
      <point x="93" y="-55"/>
      <point x="119" y="-75"/>
      <point x="174" y="-75" type="curve" smooth="yes"/>
    </contour>
  </outline>
</glyph>
<glyph name="bar" format="1">
  <advance width="145"/>
  <unicode hex="007C"/>
  <outline>
    <contour>
      <point x="81" y="-75" type="line"/>
      <point x="81" y="487" type="line"/>
      <point x="64" y="487" type="line"/>
      <point x="64" y="-75" type="line"/>
    </contour>
  </outline>
</glyph>
<glyph name="asciitilde" format="1">
  <advance width="310"/>
  <unicode hex="007E"/>
  <outline>
    <contour>
      <point x="258" y="211" type="curve"/>
      <point x="241" y="211" type="line"/>
      <point x="241" y="189"/>
      <point x="230" y="176"/>
      <point x="210" y="176" type="curve" smooth="yes"/>
      <point x="177" y="176"/>
      <point x="137" y="216"/>
      <point x="99" y="216" type="curve" smooth="yes"/>
      <point x="69" y="216"/>
      <point x="52" y="197"/>
      <point x="52" y="164" type="curve"/>
      <point x="69" y="164" type="line"/>
      <point x="69" y="186"/>
      <point x="80" y="199"/>
      <point x="101" y="199" type="curve" smooth="yes"/>
      <point x="134" y="199"/>
      <point x="168" y="158"/>
      <point x="211" y="158" type="curve" smooth="yes"/>
      <point x="241" y="158"/>
      <point x="258" y="177"/>
    </contour>
  </outline>
</glyph>
<glyph name="cent" format="1">
  <advance width="386"/>
  <unicode hex="00A2"/>
  <outline>
    <contour>
      <point x="204" y="-84" type="line"/>
      <point x="204" y="10" type="line"/>
      <point x="187" y="10" type="line"/>
      <point x="187" y="-84" type="line"/>
    </contour>
    <contour>
      <point x="204" y="298" type="line"/>
      <point x="204" y="390" type="line"/>
      <point x="187" y="390" type="line"/>
      <point x="187" y="298" type="line"/>
    </contour>
    <component base="c"/>
  </outline>
</glyph>
<glyph name="sterling" format="1">
  <advance width="343"/>
  <unicode hex="00A3"/>
  <outline>
    <contour>
      <point x="312" y="0" type="line"/>
      <point x="312" y="18" type="line"/>
      <point x="103" y="18" type="line"/>
      <point x="112" y="9" type="line"/>
      <point x="112" y="296" type="line" smooth="yes"/>
      <point x="112" y="361"/>
      <point x="145" y="396"/>
      <point x="206" y="396" type="curve" smooth="yes"/>
      <point x="246" y="396"/>
      <point x="281" y="377"/>
      <point x="308" y="343" type="curve"/>
      <point x="319" y="358" type="line"/>
      <point x="290" y="394"/>
      <point x="250" y="415"/>
      <point x="205" y="415" type="curve" smooth="yes"/>
      <point x="132" y="415"/>
      <point x="92" y="373"/>
      <point x="92" y="296" type="curve" smooth="yes"/>
      <point x="92" y="9" type="line"/>
      <point x="101" y="18" type="line"/>
      <point x="32" y="18" type="line"/>
      <point x="32" y="0" type="line"/>
    </contour>
    <contour>
      <point x="233" y="195" type="line"/>
      <point x="233" y="209" type="line"/>
      <point x="32" y="209" type="line"/>
      <point x="32" y="195" type="line"/>
    </contour>
  </outline>
</glyph>
<glyph name="currency" format="1">
  <advance width="466"/>
  <unicode hex="00A4"/>
  <outline>
    <contour>
      <point x="414" y="188" type="curve" smooth="yes"/>
      <point x="414" y="276"/>
      <point x="333" y="349"/>
      <point x="233" y="349" type="curve" smooth="yes"/>
      <point x="134" y="349"/>
      <point x="54" y="276"/>
      <point x="54" y="188" type="curve" smooth="yes"/>
      <point x="54" y="100"/>
      <point x="134" y="28"/>
      <point x="233" y="28" type="curve" smooth="yes"/>
      <point x="333" y="28"/>
      <point x="414" y="100"/>
    </contour>
    <contour>
      <point x="122" y="74" type="line"/>
      <point x="109" y="87" type="line"/>
      <point x="32" y="16" type="line"/>
      <point x="45" y="3" type="line"/>
    </contour>
    <contour>
      <point x="420" y="34" type="line"/>
      <point x="343" y="105" type="line"/>
      <point x="330" y="92" type="line"/>
      <point x="408" y="21" type="line"/>
    </contour>
    <contour>
      <point x="135" y="285" type="line"/>
      <point x="58" y="356" type="line"/>
      <point x="46" y="343" type="line"/>
      <point x="122" y="272" type="line"/>
    </contour>
    <contour>
      <point x="71" y="188" type="curve" smooth="yes"/>
      <point x="71" y="266"/>
      <point x="144" y="331"/>
      <point x="233" y="331" type="curve" smooth="yes"/>
      <point x="323" y="331"/>
      <point x="396" y="266"/>
      <point x="396" y="188" type="curve" smooth="yes"/>
      <point x="396" y="110"/>
      <point x="323" y="47"/>
      <point x="233" y="47" type="curve" smooth="yes"/>
      <point x="144" y="47"/>
      <point x="71" y="110"/>
    </contour>
    <contour>
      <point x="434" y="361" type="line"/>
      <point x="421" y="374" type="line"/>
      <point x="344" y="303" type="line"/>
      <point x="357" y="290" type="line"/>
    </contour>
  </outline>
</glyph>
<glyph name="yen" format="1">
  <advance width="394"/>
  <unicode hex="00A5"/>
  <outline>
    <contour>
      <point x="200" y="143" type="line"/>
      <point x="388" y="415" type="line"/>
      <point x="366" y="415" type="line"/>
      <point x="198" y="177" type="line"/>
      <point x="28" y="415" type="line"/>
      <point x="6" y="415" type="line"/>
      <point x="196" y="143" type="line"/>
    </contour>
    <contour>
      <point x="208" y="0" type="line"/>
      <point x="208" y="166" type="line"/>
      <point x="188" y="166" type="line"/>
      <point x="188" y="0" type="line"/>
    </contour>
    <contour>
      <point x="348" y="88" type="line"/>
      <point x="348" y="102" type="line"/>
      <point x="48" y="102" type="line"/>
      <point x="48" y="88" type="line"/>
    </contour>
    <contour>
      <point x="348" y="154" type="line"/>
      <point x="348" y="168" type="line"/>
      <point x="48" y="168" type="line"/>
      <point x="48" y="154" type="line"/>
    </contour>
  </outline>
</glyph>
<glyph name="section" format="1">
  <advance width="284"/>
  <unicode hex="00A7"/>
  <outline>
    <contour>
      <point x="257" y="33" type="curve" smooth="yes"/>
      <point x="257" y="67"/>
      <point x="234" y="92"/>
      <point x="182" y="107" type="curve"/>
      <point x="217" y="112"/>
      <point x="260" y="139"/>
      <point x="260" y="186" type="curve" smooth="yes"/>
      <point x="260" y="288"/>
      <point x="59" y="251"/>
      <point x="59" y="337" type="curve" smooth="yes"/>
      <point x="59" y="374"/>
      <point x="95" y="394"/>
      <point x="149" y="394" type="curve" smooth="yes"/>
      <point x="182" y="394"/>
      <point x="211" y="387"/>
      <point x="233" y="373" type="curve"/>
      <point x="242" y="387" type="line"/>
      <point x="215" y="403"/>
      <point x="184" y="412"/>
      <point x="149" y="412" type="curve" smooth="yes"/>
      <point x="85" y="412"/>
      <point x="41" y="384"/>
      <point x="41" y="336" type="curve" smooth="yes"/>
      <point x="41" y="302"/>
      <point x="66" y="277"/>
      <point x="131" y="258" type="curve"/>
      <point x="74" y="253"/>
      <point x="38" y="228"/>
      <point x="38" y="185" type="curve" smooth="yes"/>
      <point x="38" y="82"/>
      <point x="239" y="119"/>
      <point x="239" y="33" type="curve" smooth="yes"/>
      <point x="239" y="-8"/>
      <point x="194" y="-31"/>
      <point x="141" y="-31" type="curve" smooth="yes"/>
      <point x="99" y="-31"/>
      <point x="60" y="-16"/>
      <point x="31" y="9" type="curve"/>
      <point x="20" y="-4" type="line"/>
      <point x="48" y="-30"/>
      <point x="92" y="-48"/>
      <point x="142" y="-48" type="curve" smooth="yes"/>
      <point x="208" y="-48"/>
      <point x="257" y="-17"/>
    </contour>
    <contour>
      <point x="56" y="190" type="curve" smooth="yes"/>
      <point x="56" y="222"/>
      <point x="93" y="244"/>
      <point x="148" y="244" type="curve" smooth="yes"/>
      <point x="207" y="244"/>
      <point x="242" y="219"/>
      <point x="242" y="183" type="curve" smooth="yes"/>
      <point x="242" y="146"/>
      <point x="204" y="120"/>
      <point x="158" y="120" type="curve" smooth="yes"/>
      <point x="106" y="120"/>
      <point x="56" y="153"/>
    </contour>
  </outline>
</glyph>
<glyph name="copyright" format="1">
  <advance width="509"/>
  <unicode hex="00A9"/>
  <outline>
    <contour>
      <point x="472" y="208" type="curve" smooth="yes"/>
      <point x="472" y="318"/>
      <point x="377" y="409"/>
      <point x="255" y="409" type="curve" smooth="yes"/>
      <point x="132" y="409"/>
      <point x="37" y="316"/>
      <point x="37" y="206" type="curve" smooth="yes"/>
      <point x="37" y="97"/>
      <point x="132" y="5"/>
      <point x="254" y="5" type="curve" smooth="yes"/>
      <point x="377" y="5"/>
      <point x="472" y="98"/>
    </contour>
    <contour>
      <point x="340" y="129" type="curve"/>
      <point x="330" y="139" type="line"/>
      <point x="311" y="124"/>
      <point x="285" y="114"/>
      <point x="258" y="114" type="curve" smooth="yes"/>
      <point x="200" y="114"/>
      <point x="153" y="156"/>
      <point x="153" y="207" type="curve" smooth="yes"/>
      <point x="153" y="258"/>
      <point x="200" y="299"/>
      <point x="258" y="299" type="curve" smooth="yes"/>
      <point x="285" y="299"/>
      <point x="311" y="290"/>
      <point x="330" y="274" type="curve"/>
      <point x="340" y="285" type="line"/>
      <point x="318" y="303"/>
      <point x="289" y="314"/>
      <point x="258" y="314" type="curve" smooth="yes"/>
      <point x="191" y="314"/>
      <point x="137" y="266"/>
      <point x="137" y="207" type="curve" smooth="yes"/>
      <point x="137" y="147"/>
      <point x="191" y="99"/>
      <point x="257" y="99" type="curve" smooth="yes"/>
      <point x="288" y="99"/>
      <point x="318" y="111"/>
    </contour>
    <contour>
      <point x="52" y="206" type="curve" smooth="yes"/>
      <point x="52" y="308"/>
      <point x="140" y="393"/>
      <point x="255" y="393" type="curve" smooth="yes"/>
      <point x="369" y="393"/>
      <point x="457" y="310"/>
      <point x="457" y="208" type="curve" smooth="yes"/>
      <point x="457" y="106"/>
      <point x="369" y="21"/>
      <point x="254" y="21" type="curve" smooth="yes"/>
      <point x="139" y="21"/>
      <point x="52" y="104"/>
    </contour>
  </outline>
</glyph>
<glyph name="ordfeminine" format="1">
  <advance width="240"/>
  <unicode hex="00AA"/>
  <outline>
    <contour>
      <point x="197" y="272" type="line"/>
      <point x="196" y="391" type="line" smooth="yes"/>
      <point x="196" y="428"/>
      <point x="169" y="452"/>
      <point x="122" y="452" type="curve" smooth="yes"/>
      <point x="92" y="452"/>
      <point x="67" y="442"/>
      <point x="42" y="427" type="curve"/>
      <point x="49" y="414" type="line"/>
      <point x="71" y="429"/>
      <point x="93" y="437"/>
      <point x="119" y="437" type="curve" smooth="yes"/>
      <point x="159" y="437"/>
      <point x="179" y="420"/>
      <point x="180" y="389" type="curve" smooth="yes"/>
      <point x="180" y="272" type="line"/>
    </contour>
    <contour>
      <point x="187" y="323" type="curve"/>
      <point x="180" y="329" type="line"/>
      <point x="165" y="297"/>
      <point x="138" y="285"/>
      <point x="102" y="285" type="curve" smooth="yes"/>
      <point x="69" y="285"/>
      <point x="48" y="301"/>
      <point x="48" y="325" type="curve" smooth="yes"/>
      <point x="48" y="347"/>
      <point x="71" y="360"/>
      <point x="110" y="360" type="curve" smooth="yes"/>
      <point x="184" y="360" type="line"/>
      <point x="184" y="371" type="line"/>
      <point x="107" y="371" type="line" smooth="yes"/>
      <point x="61" y="371"/>
      <point x="32" y="354"/>
      <point x="32" y="324" type="curve" smooth="yes"/>
      <point x="32" y="293"/>
      <point x="58" y="271"/>
      <point x="98" y="271" type="curve" smooth="yes"/>
      <point x="139" y="271"/>
      <point x="171" y="287"/>
    </contour>
  </outline>
</glyph>
<glyph name="logicalnot" format="1">
  <advance width="347"/>
  <unicode hex="00AC"/>
  <outline>
    <contour>
      <point x="286" y="200" type="line"/>
      <point x="286" y="217" type="line"/>
      <point x="25" y="217" type="line"/>
      <point x="25" y="200" type="line"/>
    </contour>
    <contour>
      <point x="286" y="94" type="line"/>
      <point x="286" y="217" type="line"/>
      <point x="269" y="217" type="line"/>
      <point x="269" y="94" type="line"/>
    </contour>
  </outline>
</glyph>
<glyph name="registered" format="1">
  <advance width="509"/>
  <unicode hex="00AE"/>
  <outline>
    <contour>
      <point x="472" y="208" type="curve" smooth="yes"/>
      <point x="472" y="318"/>
      <point x="377" y="409"/>
      <point x="255" y="409" type="curve" smooth="yes"/>
      <point x="132" y="409"/>
      <point x="37" y="316"/>
      <point x="37" y="206" type="curve" smooth="yes"/>
      <point x="37" y="97"/>
      <point x="132" y="5"/>
      <point x="254" y="5" type="curve" smooth="yes"/>
      <point x="377" y="5"/>
      <point x="472" y="98"/>
    </contour>
    <contour>
      <point x="351" y="101" type="line"/>
      <point x="289" y="182" type="line"/>
      <point x="271" y="182" type="line"/>
      <point x="333" y="101" type="line"/>
    </contour>
    <contour>
      <point x="52" y="206" type="curve" smooth="yes"/>
      <point x="52" y="308"/>
      <point x="140" y="393"/>
      <point x="255" y="393" type="curve" smooth="yes"/>
      <point x="369" y="393"/>
      <point x="457" y="310"/>
      <point x="457" y="208" type="curve" smooth="yes"/>
      <point x="457" y="106"/>
      <point x="369" y="21"/>
      <point x="254" y="21" type="curve" smooth="yes"/>
      <point x="139" y="21"/>
      <point x="52" y="104"/>
    </contour>
    <contour>
      <point x="188" y="101" type="line"/>
      <point x="188" y="174" type="line"/>
      <point x="257" y="174" type="line" smooth="yes"/>
      <point x="317" y="174"/>
      <point x="350" y="202"/>
      <point x="350" y="249" type="curve" smooth="yes"/>
      <point x="350" y="295"/>
      <point x="317" y="321"/>
      <point x="257" y="321" type="curve" smooth="yes"/>
      <point x="173" y="321" type="line"/>
      <point x="173" y="101" type="line"/>
    </contour>
    <contour>
      <point x="188" y="307" type="line"/>
      <point x="257" y="307" type="line" smooth="yes"/>
      <point x="306" y="307"/>
      <point x="335" y="287"/>
      <point x="335" y="249" type="curve" smooth="yes"/>
      <point x="335" y="210"/>
      <point x="306" y="188"/>
      <point x="257" y="188" type="curve" smooth="yes"/>
      <point x="188" y="188" type="line"/>
    </contour>
  </outline>
</glyph>
<glyph name="degree" format="1">
  <advance width="196"/>
  <unicode hex="00B0"/>
  <outline>
    <contour>
      <point x="194" y="408" type="curve" smooth="yes"/>
      <point x="194" y="443"/>
      <point x="161" y="473"/>
      <point x="121" y="473" type="curve" smooth="yes"/>
      <point x="83" y="473"/>
      <point x="49" y="443"/>
      <point x="49" y="408" type="curve" smooth="yes"/>
      <point x="49" y="373"/>
      <point x="83" y="343"/>
      <point x="121" y="343" type="curve" smooth="yes"/>
      <point x="161" y="343"/>
      <point x="194" y="373"/>
    </contour>
    <contour>
      <point x="64" y="408" type="curve" smooth="yes"/>
      <point x="64" y="435"/>
      <point x="90" y="459"/>
      <point x="121" y="459" type="curve" smooth="yes"/>
      <point x="153" y="459"/>
      <point x="180" y="435"/>
      <point x="180" y="408" type="curve" smooth="yes"/>
      <point x="180" y="381"/>
      <point x="153" y="358"/>
      <point x="121" y="358" type="curve" smooth="yes"/>
      <point x="90" y="358"/>
      <point x="64" y="381"/>
    </contour>
  </outline>
</glyph>
<glyph name="paragraph" format="1">
  <advance width="365"/>
  <unicode hex="00B6"/>
  <outline>
    <contour>
      <point x="151" y="-66" type="line"/>
      <point x="151" y="424" type="line"/>
      <point x="265" y="424" type="line"/>
      <point x="265" y="-66" type="line"/>
      <point x="282" y="-66" type="line"/>
      <point x="282" y="440" type="line"/>
      <point x="132" y="440" type="line"/>
      <point x="40" y="440"/>
      <point x="4" y="390"/>
      <point x="4" y="339" type="curve" smooth="yes"/>
      <point x="4" y="301"/>
      <point x="26" y="242"/>
      <point x="110" y="242" type="curve" smooth="yes"/>
      <point x="117" y="242"/>
      <point x="125" y="243"/>
      <point x="134" y="243" type="curve"/>
      <point x="134" y="-66" type="line"/>
    </contour>
  </outline>
</glyph>
<glyph name="periodcentered" format="1">
  <advance width="112"/>
  <unicode hex="00B7"/>
  <outline>
    <contour>
      <point x="75" y="159" type="curve" smooth="yes"/>
      <point x="75" y="169"/>
      <point x="67" y="178"/>
      <point x="56" y="178" type="curve" smooth="yes"/>
      <point x="46" y="178"/>
      <point x="37" y="169"/>
      <point x="37" y="159" type="curve" smooth="yes"/>
      <point x="37" y="149"/>
      <point x="46" y="140"/>
      <point x="56" y="140" type="curve" smooth="yes"/>
      <point x="67" y="140"/>
      <point x="75" y="149"/>
    </contour>
    <contour>
      <point x="57" y="159" type="move" name="_dot"/>
    </contour>
  </outline>
</glyph>
<glyph name="ordmasculine" format="1">
  <advance width="255"/>
  <unicode hex="00BA"/>
  <outline>
    <contour>
      <point x="227" y="362" type="curve" smooth="yes"/>
      <point x="227" y="415"/>
      <point x="185" y="452"/>
      <point x="128" y="452" type="curve" smooth="yes"/>
      <point x="69" y="452"/>
      <point x="28" y="415"/>
      <point x="28" y="362" type="curve" smooth="yes"/>
      <point x="28" y="308"/>
      <point x="69" y="271"/>
      <point x="128" y="271" type="curve" smooth="yes"/>
      <point x="185" y="271"/>
      <point x="227" y="308"/>
    </contour>
    <contour>
      <point x="45" y="362" type="curve" smooth="yes"/>
      <point x="45" y="406"/>
      <point x="80" y="437"/>
      <point x="128" y="437" type="curve" smooth="yes"/>
      <point x="176" y="437"/>
      <point x="210" y="406"/>
      <point x="210" y="362" type="curve" smooth="yes"/>
      <point x="210" y="317"/>
      <point x="176" y="286"/>
      <point x="128" y="286" type="curve" smooth="yes"/>
      <point x="80" y="286"/>
      <point x="45" y="317"/>
    </contour>
  </outline>
</glyph>
<glyph name="AE" format="1">
  <advance width="650"/>
  <unicode hex="00C6"/>
  <outline>
    <contour>
      <point x="26" y="0" type="line"/>
      <point x="302" y="403" type="line"/>
      <point x="289" y="397" type="line"/>
      <point x="309" y="397" type="line"/>
      <point x="309" y="415" type="line"/>
      <point x="289" y="415" type="line"/>
      <point x="5" y="0" type="line"/>
    </contour>
    <contour>
      <point x="309" y="107" type="line"/>
      <point x="309" y="125" type="line"/>
      <point x="100" y="125" type="line"/>
      <point x="94" y="107" type="line"/>
    </contour>
    <contour>
      <point x="606" y="0" type="line"/>
      <point x="606" y="18" type="line"/>
      <point x="323" y="18" type="line"/>
      <point x="323" y="202" type="line"/>
      <point x="568" y="202" type="line"/>
      <point x="568" y="220" type="line"/>
      <point x="323" y="220" type="line"/>
      <point x="323" y="397" type="line"/>
      <point x="597" y="397" type="line"/>
      <point x="597" y="415" type="line"/>
      <point x="303" y="415" type="line"/>
      <point x="303" y="0" type="line"/>
    </contour>
    <contour>
      <point x="313" y="415" type="move" name="top"/>
    </contour>
    <contour>
      <point x="313" y="0" type="move" name="bottom"/>
    </contour>
  </outline>
</glyph>
<glyph name="multiply" format="1">
  <advance width="310"/>
  <unicode hex="00D7"/>
  <outline>
    <contour>
      <point x="58" y="269" type="line"/>
      <point x="69" y="281" type="line"/>
      <point x="252" y="112" type="line"/>
      <point x="240" y="100" type="line"/>
    </contour>
    <contour>
      <point x="252" y="269" type="line"/>
      <point x="240" y="281" type="line"/>
      <point x="58" y="112" type="line"/>
      <point x="69" y="100" type="line"/>
    </contour>
  </outline>
</glyph>
<glyph name="Thorn" format="1">
  <advance width="458"/>
  <unicode hex="00DE"/>
  <outline>
    <contour>
      <point x="239" y="81" type="line"/>
      <point x="350" y="81"/>
      <point x="417" y="132"/>
      <point x="417" y="219" type="curve" smooth="yes"/>
      <point x="417" y="306"/>
      <point x="350" y="357"/>
      <point x="239" y="357" type="curve" smooth="yes"/>
      <point x="96" y="357" type="line"/>
      <point x="96" y="339" type="line"/>
      <point x="239" y="339" type="line" smooth="yes"/>
      <point x="342" y="339"/>
      <point x="397" y="295"/>
      <point x="397" y="219" type="curve" smooth="yes"/>
      <point x="397" y="143"/>
      <point x="342" y="99"/>
      <point x="239" y="99" type="curve" smooth="yes"/>
      <point x="96" y="99" type="line"/>
      <point x="96" y="81" type="line"/>
    </contour>
    <contour>
      <point x="103" y="0" type="line"/>
      <point x="103" y="415" type="line"/>
      <point x="83" y="415" type="line"/>
      <point x="83" y="0" type="line"/>
    </contour>
  </outline>
</glyph>
<glyph name="germandbls" format="1">
  <advance width="421"/>
  <unicode hex="00DF"/>
  <outline>
    <contour>
      <point x="387" y="116" type="curve" smooth="yes"/>
      <point x="387" y="190"/>
      <point x="327" y="232"/>
      <point x="237" y="232" type="curve"/>
      <point x="221" y="222" type="line"/>
      <point x="286" y="222"/>
      <point x="350" y="264"/>
      <point x="350" y="335" type="curve" smooth="yes"/>
      <point x="350" y="397"/>
      <point x="299" y="442"/>
      <point x="216" y="442" type="curve" smooth="yes"/>
      <point x="131" y="442"/>
      <point x="72" y="393"/>
      <point x="72" y="300" type="curve" smooth="yes"/>
      <point x="72" y="0" type="line"/>
      <point x="91" y="0" type="line"/>
      <point x="91" y="300" type="line" smooth="yes"/>
      <point x="91" y="384"/>
      <point x="142" y="424"/>
      <point x="216" y="424" type="curve" smooth="yes"/>
      <point x="289" y="424"/>
      <point x="332" y="387"/>
      <point x="332" y="334" type="curve" smooth="yes"/>
      <point x="332" y="273"/>
      <point x="283" y="233"/>
      <point x="201" y="233" type="curve"/>
      <point x="201" y="216" type="line"/>
      <point x="239" y="216" type="line" smooth="yes"/>
      <point x="315" y="216"/>
      <point x="368" y="180"/>
      <point x="368" y="116" type="curve" smooth="yes"/>
      <point x="368" y="52"/>
      <point x="312" y="16"/>
      <point x="239" y="16" type="curve" smooth="yes"/>
      <point x="215" y="16"/>
      <point x="194" y="19"/>
      <point x="175" y="24" type="curve"/>
      <point x="171" y="7" type="line"/>
      <point x="190" y="1"/>
      <point x="215" y="-2"/>
      <point x="240" y="-2" type="curve" smooth="yes"/>
      <point x="323" y="-2"/>
      <point x="387" y="43"/>
    </contour>
  </outline>
</glyph>
<glyph name="ae" format="1">
  <advance width="641"/>
  <unicode hex="00E6"/>
  <outline>
    <contour>
      <point x="301" y="110" type="curve"/>
      <point x="290" y="111" type="line"/>
      <point x="313" y="35"/>
      <point x="383" y="-2"/>
      <point x="458" y="-2" type="curve" smooth="yes"/>
      <point x="509" y="-2"/>
      <point x="556" y="15"/>
      <point x="586" y="48" type="curve"/>
      <point x="574" y="61" type="line"/>
      <point x="547" y="30"/>
      <point x="504" y="15"/>
      <point x="458" y="15" type="curve" smooth="yes"/>
      <point x="369" y="15"/>
      <point x="303" y="72"/>
      <point x="303" y="154" type="curve" smooth="yes"/>
      <point x="303" y="158" type="line" smooth="yes"/>
      <point x="303" y="235"/>
      <point x="363" y="293"/>
      <point x="446" y="293" type="curve" smooth="yes"/>
      <point x="528" y="293"/>
      <point x="589" y="235"/>
      <point x="589" y="158" type="curve"/>
      <point x="595" y="168" type="line"/>
      <point x="300" y="168" type="line"/>
      <point x="300" y="153" type="line"/>
      <point x="607" y="153" type="line"/>
      <point x="607" y="155"/>
      <point x="607" y="156"/>
      <point x="607" y="158" type="curve" smooth="yes"/>
      <point x="607" y="247"/>
      <point x="537" y="310"/>
      <point x="446" y="310" type="curve" smooth="yes"/>
      <point x="376" y="310"/>
      <point x="319" y="273"/>
      <point x="296" y="217" type="curve"/>
      <point x="301" y="212" type="line"/>
      <point x="295" y="278"/>
      <point x="254" y="310"/>
      <point x="180" y="310" type="curve" smooth="yes"/>
      <point x="130" y="310"/>
      <point x="82" y="292"/>
      <point x="50" y="265" type="curve"/>
      <point x="60" y="251" type="line"/>
      <point x="89" y="276"/>
      <point x="131" y="292"/>
      <point x="180" y="292" type="curve" smooth="yes"/>
      <point x="248" y="292"/>
      <point x="283" y="261"/>
      <point x="283" y="199" type="curve" smooth="yes"/>
      <point x="283" y="120" type="line" smooth="yes"/>
      <point x="283" y="52"/>
      <point x="233" y="14"/>
      <point x="161" y="14" type="curve" smooth="yes"/>
      <point x="96" y="14"/>
      <point x="59" y="42"/>
      <point x="59" y="86" type="curve" smooth="yes"/>
      <point x="59" y="125"/>
      <point x="88" y="153"/>
      <point x="161" y="153" type="curve" smooth="yes"/>
      <point x="288" y="153" type="line"/>
      <point x="288" y="168" type="line"/>
      <point x="161" y="168" type="line" smooth="yes"/>
      <point x="71" y="168"/>
      <point x="40" y="130"/>
      <point x="40" y="85" type="curve" smooth="yes"/>
      <point x="40" y="33"/>
      <point x="84" y="-2"/>
      <point x="160" y="-2" type="curve" smooth="yes"/>
      <point x="231" y="-2"/>
      <point x="293" y="31"/>
    </contour>
    <contour>
      <point x="293" y="308" type="move" name="top"/>
    </contour>
  </outline>
</glyph>
<glyph name="eth" format="1">
  <advance width="399"/>
  <unicode hex="00F0"/>
  <outline>
    <contour>
      <point x="365" y="207" type="curve" smooth="yes"/>
      <point x="365" y="346"/>
      <point x="284" y="419"/>
      <point x="164" y="419" type="curve" smooth="yes"/>
      <point x="126" y="419"/>
      <point x="89" y="413"/>
      <point x="65" y="407" type="curve"/>
      <point x="68" y="390" type="line"/>
      <point x="95" y="397"/>
      <point x="128" y="402"/>
      <point x="164" y="402" type="curve" smooth="yes"/>
      <point x="274" y="402"/>
      <point x="346" y="335"/>
      <point x="346" y="210" type="curve" smooth="yes"/>
      <point x="346" y="190"/>
      <point x="344" y="158"/>
      <point x="334" y="129" type="curve"/>
      <point x="341" y="130" type="line"/>
      <point x="336" y="210"/>
      <point x="271" y="256"/>
      <point x="188" y="256" type="curve" smooth="yes"/>
      <point x="94" y="256"/>
      <point x="34" y="205"/>
      <point x="34" y="128" type="curve" smooth="yes"/>
      <point x="34" y="50"/>
      <point x="96" y="-2"/>
      <point x="184" y="-2" type="curve" smooth="yes"/>
      <point x="303" y="-2"/>
      <point x="365" y="80"/>
    </contour>
    <contour>
      <point x="53" y="127" type="curve" smooth="yes"/>
      <point x="53" y="193"/>
      <point x="104" y="239"/>
      <point x="190" y="239" type="curve" smooth="yes"/>
      <point x="270" y="239"/>
      <point x="326" y="189"/>
      <point x="326" y="127" type="curve" smooth="yes"/>
      <point x="326" y="72"/>
      <point x="277" y="15"/>
      <point x="185" y="15" type="curve" smooth="yes"/>
      <point x="106" y="15"/>
      <point x="53" y="61"/>
    </contour>
    <contour>
      <point x="333" y="403" type="line"/>
      <point x="327" y="418" type="line"/>
      <point x="89" y="320" type="line"/>
      <point x="95" y="306" type="line"/>
    </contour>
  </outline>
</glyph>
<glyph name="divide" format="1">
  <advance width="310"/>
  <unicode hex="00F7"/>
  <outline>
    <contour>
      <point x="284" y="182" type="line"/>
      <point x="284" y="199" type="line"/>
      <point x="25" y="199" type="line"/>
      <point x="25" y="182" type="line"/>
    </contour>
    <component base="dotaccentcomb" xOffset="104.927" yOffset="-96.546" xScale="0.99" yScale="0.986"/>
    <component base="dotaccentcomb" xOffset="104.927" yOffset="-304.511" xScale="0.99" yScale="0.986"/>
  </outline>
</glyph>
<glyph name="oslash" format="1">
  <advance width="394"/>
  <unicode hex="00F8"/>
  <outline>
    <component base="slashlongcomb" xOffset="1.317"/>
    <component base="o"/>
    <contour>
      <point x="197" y="308" type="move" name="top"/>
    </contour>
  </outline>
</glyph>
<glyph name="Dcroat" format="1">
  <advance width="532"/>
  <unicode hex="0110"/>
  <outline>
    <component base="Eth"/>
    <contour>
      <point x="247" y="415" type="move" name="top"/>
    </contour>
    <contour>
      <point x="132" y="208" type="move" name="center"/>
    </contour>
    <contour>
      <point x="269" y="0" type="move" name="bottom"/>
    </contour>
  </outline>
</glyph>
<glyph name="eogonek" format="1">
  <advance width="391"/>
  <unicode hex="0119"/>
  <outline>
    <contour>
      <point x="331" y="-112" type="curve"/>
      <point x="323" y="-99" type="line"/>
      <point x="313" y="-108"/>
      <point x="298" y="-113"/>
      <point x="284" y="-113" type="curve" smooth="yes"/>
      <point x="257" y="-113"/>
      <point x="238" y="-100"/>
      <point x="238" y="-75" type="curve" smooth="yes"/>
      <point x="238" y="-51"/>
      <point x="246" y="-27"/>
      <point x="313" y="28" type="curve" smooth="yes"/>
      <point x="322" y="35"/>
      <point x="330" y="41"/>
      <point x="337" y="48" type="curve"/>
      <point x="324" y="61" type="line"/>
      <point x="297" y="30"/>
      <point x="255" y="15"/>
      <point x="208" y="15" type="curve" smooth="yes"/>
      <point x="119" y="15"/>
      <point x="53" y="72"/>
      <point x="53" y="154" type="curve" smooth="yes"/>
      <point x="53" y="158" type="line" smooth="yes"/>
      <point x="53" y="235"/>
      <point x="113" y="293"/>
      <point x="196" y="293" type="curve" smooth="yes"/>
      <point x="278" y="293"/>
      <point x="339" y="235"/>
      <point x="339" y="158" type="curve"/>
      <point x="347" y="167" type="line"/>
      <point x="47" y="167" type="line"/>
      <point x="47" y="152" type="line"/>
      <point x="357" y="152" type="line"/>
      <point x="357" y="154"/>
      <point x="357" y="155"/>
      <point x="357" y="157" type="curve" smooth="yes"/>
      <point x="357" y="247"/>
      <point x="287" y="310"/>
      <point x="196" y="310" type="curve" smooth="yes"/>
      <point x="103" y="310"/>
      <point x="34" y="245"/>
      <point x="34" y="154" type="curve" smooth="yes"/>
      <point x="34" y="63"/>
      <point x="107" y="-2"/>
      <point x="208" y="-2" type="curve" smooth="yes"/>
      <point x="234" y="-2"/>
      <point x="259" y="2"/>
      <point x="283" y="12" type="curve"/>
      <point x="282" y="15" type="line"/>
      <point x="233" y="-23"/>
      <point x="221" y="-52"/>
      <point x="221" y="-76" type="curve" smooth="yes"/>
      <point x="221" y="-108"/>
      <point x="247" y="-127"/>
      <point x="282" y="-127" type="curve" smooth="yes"/>
      <point x="301" y="-127"/>
      <point x="317" y="-123"/>
    </contour>
    <contour>
      <point x="194" y="308" type="move" name="top"/>
    </contour>
    <contour>
      <point x="194" y="0" type="move" name="bottom"/>
    </contour>
  </outline>
</glyph>
<glyph name="IJ" format="1">
  <advance width="460"/>
  <unicode hex="0132"/>
  <outline>
    <contour>
      <point x="380" y="175" type="curve" smooth="yes"/>
      <point x="380" y="415" type="line"/>
      <point x="361" y="415" type="line"/>
      <point x="361" y="175" type="line" smooth="yes"/>
      <point x="361" y="68"/>
      <point x="304" y="16"/>
      <point x="211" y="16" type="curve" smooth="yes"/>
      <point x="163" y="16"/>
      <point x="119" y="30"/>
      <point x="84" y="53" type="curve"/>
      <point x="74" y="37" type="line"/>
      <point x="110" y="14"/>
      <point x="158" y="-2"/>
      <point x="210" y="-2" type="curve" smooth="yes"/>
      <point x="313" y="-2"/>
      <point x="380" y="57"/>
    </contour>
    <contour>
      <point x="99" y="174" type="line"/>
      <point x="99" y="415" type="line"/>
      <point x="79" y="415" type="line"/>
      <point x="79" y="174" type="line"/>
    </contour>
    <contour>
      <point x="107" y="415" type="move" name="top"/>
    </contour>
  </outline>
</glyph>
<glyph name="Eng" format="1">
  <advance width="524"/>
  <unicode hex="014A"/>
  <outline>
    <contour>
      <point x="103" y="0" type="line"/>
      <point x="103" y="391" type="line"/>
      <point x="93" y="391" type="line"/>
      <point x="425" y="0" type="line"/>
      <point x="431" y="24" type="line"/>
      <point x="100" y="415" type="line"/>
      <point x="83" y="415" type="line"/>
      <point x="83" y="0" type="line"/>
    </contour>
    <contour>
      <point x="441" y="4" type="curve" smooth="yes"/>
      <point x="441" y="415" type="line"/>
      <point x="422" y="415" type="line"/>
      <point x="422" y="4" type="line" smooth="yes"/>
      <point x="422" y="-66"/>
      <point x="391" y="-99"/>
      <point x="327" y="-99" type="curve" smooth="yes"/>
      <point x="286" y="-99"/>
      <point x="250" y="-80"/>
      <point x="226" y="-47" type="curve"/>
      <point x="214" y="-60" type="line"/>
      <point x="239" y="-96"/>
      <point x="281" y="-117"/>
      <point x="327" y="-117" type="curve" smooth="yes"/>
      <point x="403" y="-117"/>
      <point x="441" y="-77"/>
    </contour>
  </outline>
</glyph>
<glyph name="eng" format="1">
  <advance width="431"/>
  <unicode hex="014B"/>
  <outline>
    <contour>
      <point x="362" y="-37" type="curve" smooth="yes"/>
      <point x="362" y="181" type="line" smooth="yes"/>
      <point x="362" y="266"/>
      <point x="310" y="310"/>
      <point x="229" y="310" type="curve" smooth="yes"/>
      <point x="136" y="310"/>
      <point x="80" y="254"/>
      <point x="79" y="172" type="curve"/>
      <point x="91" y="166" type="line"/>
      <point x="91" y="241"/>
      <point x="143" y="292"/>
      <point x="227" y="292" type="curve" smooth="yes"/>
      <point x="300" y="292"/>
      <point x="343" y="253"/>
      <point x="343" y="180" type="curve" smooth="yes"/>
      <point x="343" y="-35" type="line" smooth="yes"/>
      <point x="343" y="-77"/>
      <point x="320" y="-100"/>
      <point x="279" y="-100" type="curve" smooth="yes"/>
      <point x="256" y="-100"/>
      <point x="237" y="-93"/>
      <point x="223" y="-81" type="curve"/>
      <point x="212" y="-96" type="line"/>
      <point x="228" y="-110"/>
      <point x="254" y="-117"/>
      <point x="280" y="-117" type="curve" smooth="yes"/>
      <point x="333" y="-117"/>
      <point x="362" y="-85"/>
    </contour>
    <contour>
      <point x="91" y="0" type="line"/>
      <point x="91" y="189" type="line"/>
      <point x="91" y="202" type="line"/>
      <point x="91" y="308" type="line"/>
      <point x="72" y="308" type="line"/>
      <point x="72" y="0" type="line"/>
    </contour>
  </outline>
</glyph>
<glyph name="OE" format="1">
  <advance width="716"/>
  <unicode hex="0152"/>
  <outline>
    <contour>
      <point x="375" y="0" type="line"/>
      <point x="375" y="18" type="line"/>
      <point x="275" y="18" type="line" smooth="yes"/>
      <point x="143" y="18"/>
      <point x="57" y="97"/>
      <point x="57" y="207" type="curve" smooth="yes"/>
      <point x="57" y="317"/>
      <point x="143" y="397"/>
      <point x="275" y="397" type="curve" smooth="yes"/>
      <point x="375" y="397" type="line"/>
      <point x="375" y="415" type="line"/>
      <point x="275" y="415" type="line" smooth="yes"/>
      <point x="133" y="415"/>
      <point x="37" y="327"/>
      <point x="37" y="207" type="curve" smooth="yes"/>
      <point x="37" y="87"/>
      <point x="133" y="0"/>
      <point x="275" y="0" type="curve" smooth="yes"/>
    </contour>
    <contour>
      <point x="673" y="0" type="line"/>
      <point x="673" y="18" type="line"/>
      <point x="389" y="18" type="line"/>
      <point x="389" y="202" type="line"/>
      <point x="634" y="202" type="line"/>
      <point x="634" y="220" type="line"/>
      <point x="389" y="220" type="line"/>
      <point x="389" y="397" type="line"/>
      <point x="663" y="397" type="line"/>
      <point x="663" y="415" type="line"/>
      <point x="370" y="415" type="line"/>
      <point x="370" y="0" type="line"/>
    </contour>
    <contour>
      <point x="379" y="415" type="move" name="top"/>
    </contour>
    <contour>
      <point x="379" y="0" type="move" name="bottom"/>
    </contour>
  </outline>
</glyph>
<glyph name="oe" format="1">
  <advance width="699"/>
  <unicode hex="0153"/>
  <outline>
    <contour>
      <point x="359" y="154" type="curve" smooth="yes"/>
      <point x="359" y="245"/>
      <point x="290" y="310"/>
      <point x="197" y="310" type="curve" smooth="yes"/>
      <point x="103" y="310"/>
      <point x="34" y="245"/>
      <point x="34" y="154" type="curve" smooth="yes"/>
      <point x="34" y="63"/>
      <point x="103" y="-2"/>
      <point x="197" y="-2" type="curve" smooth="yes"/>
      <point x="290" y="-2"/>
      <point x="359" y="63"/>
    </contour>
    <contour>
      <point x="53" y="154" type="curve" smooth="yes"/>
      <point x="53" y="236"/>
      <point x="115" y="292"/>
      <point x="197" y="292" type="curve" smooth="yes"/>
      <point x="279" y="292"/>
      <point x="341" y="236"/>
      <point x="341" y="154" type="curve" smooth="yes"/>
      <point x="341" y="72"/>
      <point x="279" y="16"/>
      <point x="197" y="16" type="curve" smooth="yes"/>
      <point x="115" y="16"/>
      <point x="53" y="72"/>
    </contour>
    <contour>
      <point x="644" y="48" type="curve"/>
      <point x="632" y="61" type="line"/>
      <point x="604" y="30"/>
      <point x="562" y="15"/>
      <point x="516" y="15" type="curve" smooth="yes"/>
      <point x="426" y="15"/>
      <point x="360" y="72"/>
      <point x="360" y="154" type="curve" smooth="yes"/>
      <point x="360" y="158" type="line" smooth="yes"/>
      <point x="360" y="235"/>
      <point x="421" y="293"/>
      <point x="503" y="293" type="curve" smooth="yes"/>
      <point x="586" y="293"/>
      <point x="647" y="235"/>
      <point x="647" y="158" type="curve"/>
      <point x="653" y="168" type="line"/>
      <point x="357" y="168" type="line"/>
      <point x="357" y="153" type="line"/>
      <point x="665" y="153" type="line"/>
      <point x="665" y="155"/>
      <point x="665" y="156"/>
      <point x="665" y="158" type="curve" smooth="yes"/>
      <point x="665" y="247"/>
      <point x="594" y="310"/>
      <point x="503" y="310" type="curve" smooth="yes"/>
      <point x="410" y="310"/>
      <point x="342" y="245"/>
      <point x="342" y="154" type="curve" smooth="yes"/>
      <point x="342" y="63"/>
      <point x="415" y="-2"/>
      <point x="515" y="-2" type="curve" smooth="yes"/>
      <point x="567" y="-2"/>
      <point x="614" y="15"/>
    </contour>
    <contour>
      <point x="351" y="308" type="move" name="top"/>
    </contour>
    <contour>
      <point x="351" y="0" type="move" name="bottom"/>
    </contour>
  </outline>
</glyph>
<glyph name="Uogonek" format="1">
  <advance width="510"/>
  <unicode hex="0172"/>
  <outline>
    <contour>
      <point x="412" y="176" type="line"/>
      <point x="412" y="68"/>
      <point x="355" y="16"/>
      <point x="255" y="16" type="curve" smooth="yes"/>
      <point x="156" y="16"/>
      <point x="99" y="68"/>
      <point x="99" y="176" type="curve" smooth="yes"/>
      <point x="99" y="415" type="line"/>
      <point x="79" y="415" type="line"/>
      <point x="79" y="175" type="line" smooth="yes"/>
      <point x="79" y="57"/>
      <point x="146" y="-2"/>
      <point x="255" y="-2" type="curve" smooth="yes"/>
      <point x="263" y="-2"/>
      <point x="272" y="-2"/>
      <point x="280" y="-1" type="curve"/>
      <point x="290" y="10" type="line"/>
      <point x="216" y="-16"/>
      <point x="201" y="-51"/>
      <point x="201" y="-77" type="curve" smooth="yes"/>
      <point x="201" y="-108"/>
      <point x="226" y="-127"/>
      <point x="261" y="-127" type="curve" smooth="yes"/>
      <point x="280" y="-127"/>
      <point x="296" y="-123"/>
      <point x="310" y="-112" type="curve"/>
      <point x="302" y="-99" type="line"/>
      <point x="292" y="-108"/>
      <point x="277" y="-113"/>
      <point x="263" y="-113" type="curve" smooth="yes"/>
      <point x="236" y="-113"/>
      <point x="217" y="-100"/>
      <point x="217" y="-76" type="curve" smooth="yes"/>
      <point x="217" y="-54"/>
      <point x="231" y="-21"/>
      <point x="317" y="5" type="curve" smooth="yes"/>
      <point x="389" y="26"/>
      <point x="431" y="79"/>
      <point x="431" y="175" type="curve" smooth="yes"/>
      <point x="431" y="415" type="line"/>
      <point x="412" y="415" type="line"/>
    </contour>
  </outline>
</glyph>
<glyph name="florin" format="1">
  <advance width="203"/>
  <unicode hex="0192"/>
  <outline>
    <contour>
      <point x="59" y="-24" type="curve" smooth="yes"/>
      <point x="109" y="353" type="line" smooth="yes"/>
      <point x="115" y="399"/>
      <point x="146" y="428"/>
      <point x="186" y="428" type="curve" smooth="yes"/>
      <point x="204" y="427"/>
      <point x="226" y="420"/>
      <point x="240" y="409" type="curve"/>
      <point x="251" y="424" type="line"/>
      <point x="234" y="436"/>
      <point x="209" y="445"/>
      <point x="186" y="446" type="curve" smooth="yes"/>
      <point x="135" y="447"/>
      <point x="98" y="410"/>
      <point x="90" y="354" type="curve" smooth="yes"/>
      <point x="40" y="-22" type="line" smooth="yes"/>
      <point x="34" y="-68"/>
      <point x="15" y="-98"/>
      <point x="-25" y="-97" type="curve" smooth="yes"/>
      <point x="-41" y="-97"/>
      <point x="-60" y="-89"/>
      <point x="-72" y="-78" type="curve"/>
      <point x="-82" y="-93" type="line"/>
      <point x="-67" y="-106"/>
      <point x="-45" y="-115"/>
      <point x="-25" y="-115" type="curve" smooth="yes"/>
      <point x="26" y="-116"/>
      <point x="51" y="-80"/>
    </contour>
    <contour>
      <point x="203" y="257" type="line"/>
      <point x="205" y="274" type="line"/>
      <point x="38" y="274" type="line"/>
      <point x="36" y="257" type="line"/>
    </contour>
  </outline>
</glyph>
<glyph name="Ohorn" format="1">
  <advance width="538"/>
  <unicode hex="01A0"/>
  <outline>
    <contour>
      <point x="501" y="208" type="curve" smooth="yes"/>
      <point x="501" y="296"/>
      <point x="445" y="371"/>
      <point x="357" y="401" type="curve"/>
      <point x="341" y="397" type="line"/>
      <point x="360" y="394"/>
      <point x="387" y="392"/>
      <point x="402" y="392" type="curve" smooth="yes"/>
      <point x="460" y="392"/>
      <point x="489" y="414"/>
      <point x="489" y="456" type="curve" smooth="yes"/>
      <point x="489" y="473"/>
      <point x="483" y="490"/>
      <point x="474" y="502" type="curve"/>
      <point x="459" y="496" type="line"/>
      <point x="466" y="484"/>
      <point x="472" y="471"/>
      <point x="472" y="456" type="curve" smooth="yes"/>
      <point x="472" y="424"/>
      <point x="449" y="409"/>
      <point x="402" y="409" type="curve" smooth="yes"/>
      <point x="361" y="409"/>
      <point x="324" y="417"/>
      <point x="269" y="417" type="curve" smooth="yes"/>
      <point x="136" y="417"/>
      <point x="37" y="328"/>
      <point x="37" y="208" type="curve" smooth="yes"/>
      <point x="37" y="87"/>
      <point x="136" y="-2"/>
      <point x="269" y="-2" type="curve" smooth="yes"/>
      <point x="401" y="-2"/>
      <point x="501" y="87"/>
    </contour>
    <contour>
      <point x="57" y="208" type="curve" smooth="yes"/>
      <point x="57" y="316"/>
      <point x="148" y="399"/>
      <point x="269" y="399" type="curve" smooth="yes"/>
      <point x="390" y="399"/>
      <point x="481" y="316"/>
      <point x="481" y="208" type="curve" smooth="yes"/>
      <point x="481" y="99"/>
      <point x="390" y="16"/>
      <point x="269" y="16" type="curve" smooth="yes"/>
      <point x="148" y="16"/>
      <point x="57" y="99"/>
    </contour>
    <contour>
      <point x="269" y="415" type="move" name="top"/>
    </contour>
    <contour>
      <point x="269" y="0" type="move" name="bottom"/>
    </contour>
  </outline>
</glyph>
<glyph name="ohorn" format="1">
  <advance width="394"/>
  <unicode hex="01A1"/>
  <outline>
    <contour>
      <point x="360" y="154" type="curve" smooth="yes"/>
      <point x="360" y="226"/>
      <point x="317" y="281"/>
      <point x="253" y="301" type="curve"/>
      <point x="254" y="292" type="line"/>
      <point x="266" y="291"/>
      <point x="274" y="290"/>
      <point x="280" y="290" type="curve" smooth="yes"/>
      <point x="330" y="290"/>
      <point x="355" y="318"/>
      <point x="355" y="350" type="curve" smooth="yes"/>
      <point x="355" y="366"/>
      <point x="349" y="383"/>
      <point x="340" y="395" type="curve"/>
      <point x="324" y="389" type="line"/>
      <point x="331" y="378"/>
      <point x="337" y="365"/>
      <point x="337" y="350" type="curve" smooth="yes"/>
      <point x="337" y="328"/>
      <point x="320" y="307"/>
      <point x="280" y="307" type="curve" smooth="yes"/>
      <point x="245" y="307"/>
      <point x="232" y="310"/>
      <point x="197" y="310" type="curve" smooth="yes"/>
      <point x="103" y="310"/>
      <point x="34" y="245"/>
      <point x="34" y="154" type="curve" smooth="yes"/>
      <point x="34" y="63"/>
      <point x="103" y="-2"/>
      <point x="197" y="-2" type="curve" smooth="yes"/>
      <point x="291" y="-2"/>
      <point x="360" y="63"/>
    </contour>
    <contour>
      <point x="53" y="154" type="curve" smooth="yes"/>
      <point x="53" y="236"/>
      <point x="115" y="292"/>
      <point x="197" y="292" type="curve" smooth="yes"/>
      <point x="279" y="292"/>
      <point x="341" y="236"/>
      <point x="341" y="154" type="curve" smooth="yes"/>
      <point x="341" y="72"/>
      <point x="279" y="16"/>
      <point x="197" y="16" type="curve" smooth="yes"/>
      <point x="115" y="16"/>
      <point x="53" y="72"/>
    </contour>
    <contour>
      <point x="197" y="308" type="move" name="top"/>
    </contour>
    <contour>
      <point x="197" y="0" type="move" name="bottom"/>
    </contour>
  </outline>
</glyph>
<glyph name="acutecomb" format="1">
  <advance width="386"/>
  <unicode hex="0301"/>
  <outline>
    <contour>
      <point x="185" y="360" type="line"/>
      <point x="283" y="427" type="line"/>
      <point x="252" y="427" type="line"/>
      <point x="162" y="360" type="line"/>
    </contour>
    <contour>
      <point x="193" y="396" type="move" name="top"/>
    </contour>
    <contour>
      <point x="193" y="308" type="move" name="_top"/>
    </contour>
  </outline>
</glyph>
<glyph name="tildecomb" format="1">
  <advance width="386"/>
  <unicode hex="0303"/>
  <outline>
    <contour>
      <point x="283" y="420" type="curve"/>
      <point x="268" y="420" type="line"/>
      <point x="267" y="397"/>
      <point x="254" y="382"/>
      <point x="234" y="382" type="curve" smooth="yes"/>
      <point x="205" y="382"/>
      <point x="189" y="422"/>
      <point x="152" y="422" type="curve" smooth="yes"/>
      <point x="123" y="422"/>
      <point x="104" y="401"/>
      <point x="103" y="368" type="curve"/>
      <point x="118" y="368" type="line"/>
      <point x="119" y="392"/>
      <point x="132" y="407"/>
      <point x="152" y="407" type="curve" smooth="yes"/>
      <point x="181" y="407"/>
      <point x="197" y="366"/>
      <point x="234" y="366" type="curve" smooth="yes"/>
      <point x="263" y="366"/>
      <point x="282" y="388"/>
    </contour>
    <contour>
      <point x="193" y="390" type="move" name="top"/>
    </contour>
    <contour>
      <point x="193" y="308" type="move" name="_top"/>
    </contour>
  </outline>
</glyph>
<glyph name="hookabovecomb" format="1">
  <advance width="386"/>
  <unicode hex="0309"/>
  <outline>
    <contour>
      <point x="243" y="415" type="curve" smooth="yes"/>
      <point x="243" y="442"/>
      <point x="223" y="460"/>
      <point x="191" y="460" type="curve" smooth="yes"/>
      <point x="175" y="460"/>
      <point x="156" y="455"/>
      <point x="144" y="446" type="curve"/>
      <point x="151" y="434" type="line"/>
      <point x="164" y="441"/>
      <point x="176" y="445"/>
      <point x="190" y="445" type="curve" smooth="yes"/>
      <point x="212" y="445"/>
      <point x="227" y="432"/>
      <point x="227" y="414" type="curve" smooth="yes"/>
      <point x="227" y="394"/>
      <point x="214" y="380"/>
      <point x="187" y="369" type="curve"/>
      <point x="195" y="357" type="line"/>
      <point x="228" y="372"/>
      <point x="243" y="390"/>
    </contour>
    <contour>
      <point x="193" y="437" type="move" name="top"/>
    </contour>
    <contour>
      <point x="193" y="308" type="move" name="_top"/>
    </contour>
  </outline>
</glyph>
<glyph name="dotbelowcomb" format="1">
  <advance width="386"/>
  <unicode hex="0323"/>
  <outline>
    <contour>
      <point x="212" y="-88" type="curve" smooth="yes"/>
      <point x="212" y="-79"/>
      <point x="203" y="-70"/>
      <point x="193" y="-70" type="curve" smooth="yes"/>
      <point x="183" y="-70"/>
      <point x="174" y="-79"/>
      <point x="174" y="-88" type="curve" smooth="yes"/>
      <point x="174" y="-98"/>
      <point x="183" y="-106"/>
      <point x="193" y="-106" type="curve" smooth="yes"/>
      <point x="203" y="-106"/>
      <point x="212" y="-98"/>
    </contour>
    <contour>
      <point x="193" y="0" type="move" name="_bottom"/>
    </contour>
    <contour>
      <point x="193" y="-70" type="move" name="bottom"/>
    </contour>
  </outline>
</glyph>
<glyph name="Delta" format="1">
  <advance width="445"/>
  <unicode hex="0394"/>
  <outline>
    <contour>
      <point x="28" y="0" type="line"/>
      <point x="221" y="392" type="line"/>
      <point x="417" y="0" type="line"/>
      <point x="439" y="0" type="line"/>
      <point x="232" y="415" type="line"/>
      <point x="211" y="415" type="line"/>
      <point x="6" y="0" type="line"/>
    </contour>
    <contour>
      <point x="422" y="0" type="line"/>
      <point x="422" y="18" type="line"/>
      <point x="21" y="18" type="line"/>
      <point x="21" y="0" type="line"/>
    </contour>
  </outline>
</glyph>
<glyph name="Omega" format="1">
  <advance width="581"/>
  <unicode hex="03A9"/>
  <outline>
    <contour>
      <point x="201" y="0" type="line"/>
      <point x="201" y="20" type="line"/>
      <point x="129" y="53"/>
      <point x="78" y="133"/>
      <point x="78" y="210" type="curve" smooth="yes"/>
      <point x="78" y="318"/>
      <point x="168" y="396"/>
      <point x="291" y="396" type="curve" smooth="yes"/>
      <point x="414" y="396"/>
      <point x="503" y="318"/>
      <point x="503" y="210" type="curve" smooth="yes"/>
      <point x="503" y="133"/>
      <point x="452" y="54"/>
      <point x="381" y="20" type="curve"/>
      <point x="381" y="0" type="line"/>
      <point x="579" y="0" type="line"/>
      <point x="579" y="19" type="line"/>
      <point x="411" y="19" type="line"/>
      <point x="476" y="59"/>
      <point x="522" y="137"/>
      <point x="522" y="211" type="curve" smooth="yes"/>
      <point x="522" y="328"/>
      <point x="423" y="415"/>
      <point x="291" y="415" type="curve" smooth="yes"/>
      <point x="158" y="415"/>
      <point x="60" y="328"/>
      <point x="60" y="211" type="curve" smooth="yes"/>
      <point x="60" y="137"/>
      <point x="105" y="59"/>
      <point x="170" y="19" type="curve"/>
      <point x="3" y="19" type="line"/>
      <point x="3" y="0" type="line"/>
    </contour>
    <contour>
      <point x="7" y="415" type="move" name="topleft"/>
    </contour>
  </outline>
</glyph>
<glyph name="mu" format="1">
  <advance width="442"/>
  <unicode hex="03BC"/>
  <outline>
    <contour>
      <point x="91" y="-115" type="line"/>
      <point x="91" y="308" type="line"/>
      <point x="72" y="308" type="line"/>
      <point x="72" y="-115" type="line"/>
    </contour>
    <component base="u" xOffset="13.776"/>
  </outline>
</glyph>
<glyph name="pi" format="1">
  <advance width="462"/>
  <unicode hex="03C0"/>
  <outline>
    <contour>
      <point x="38" y="166" type="line"/>
      <point x="25" y="182"/>
      <point x="18" y="201"/>
      <point x="17" y="219" type="curve"/>
      <point x="16" y="259"/>
      <point x="54" y="290"/>
      <point x="105" y="290" type="curve"/>
      <point x="457" y="290" type="line"/>
      <point x="458" y="308" type="line"/>
      <point x="104" y="308" type="line"/>
      <point x="45" y="308"/>
      <point x="-1" y="269"/>
      <point x="-1" y="221" type="curve"/>
      <point x="0" y="199"/>
      <point x="9" y="175"/>
      <point x="23" y="158" type="curve"/>
    </contour>
    <contour>
      <point x="139" y="0" type="line"/>
      <point x="177" y="302" type="line"/>
      <point x="159" y="302" type="line"/>
      <point x="121" y="0" type="line"/>
    </contour>
    <contour>
      <point x="343" y="0" type="line"/>
      <point x="343" y="302" type="line"/>
      <point x="325" y="302" type="line"/>
      <point x="325" y="0" type="line"/>
    </contour>
  </outline>
</glyph>
<glyph name="figuredash" format="1">
  <advance width="397"/>
  <unicode hex="2012"/>
  <outline>
    <contour>
      <point x="397" y="170" type="line"/>
      <point x="397" y="187" type="line"/>
      <point x="0" y="187" type="line"/>
      <point x="0" y="170" type="line"/>
    </contour>
  </outline>
</glyph>
<glyph name="endash" format="1">
  <advance width="258"/>
  <unicode hex="2013"/>
  <outline>
    <contour>
      <point x="258" y="170" type="line"/>
      <point x="258" y="187" type="line"/>
      <point x="0" y="187" type="line"/>
      <point x="0" y="170" type="line"/>
    </contour>
  </outline>
</glyph>
<glyph name="emdash" format="1">
  <advance width="484"/>
  <unicode hex="2014"/>
  <outline>
    <contour>
      <point x="484" y="170" type="line"/>
      <point x="484" y="187" type="line"/>
      <point x="0" y="187" type="line"/>
      <point x="0" y="170" type="line"/>
    </contour>
  </outline>
</glyph>
<glyph name="dagger" format="1">
  <advance width="313"/>
  <unicode hex="2020"/>
  <outline>
    <contour>
      <point x="166" y="-115" type="line"/>
      <point x="166" y="257" type="line"/>
      <point x="306" y="257" type="line"/>
      <point x="306" y="275" type="line"/>
      <point x="166" y="275" type="line"/>
      <point x="166" y="415" type="line"/>
      <point x="147" y="415" type="line"/>
      <point x="147" y="275" type="line"/>
      <point x="7" y="275" type="line"/>
      <point x="7" y="257" type="line"/>
      <point x="147" y="257" type="line"/>
      <point x="147" y="-115" type="line"/>
    </contour>
  </outline>
</glyph>
<glyph name="bullet" format="1">
  <advance width="131"/>
  <unicode hex="2022"/>
  <outline>
    <contour>
      <point x="94" y="161" type="curve" smooth="yes"/>
      <point x="94" y="176"/>
      <point x="81" y="189"/>
      <point x="66" y="189" type="curve" smooth="yes"/>
      <point x="50" y="189"/>
      <point x="37" y="176"/>
      <point x="37" y="161" type="curve" smooth="yes"/>
      <point x="37" y="145"/>
      <point x="50" y="133"/>
      <point x="66" y="133" type="curve" smooth="yes"/>
      <point x="81" y="133"/>
      <point x="94" y="145"/>
    </contour>
  </outline>
</glyph>
<glyph name="perthousand" format="1">
  <advance width="771"/>
  <unicode hex="2030"/>
  <outline>
    <contour>
      <point x="112" y="0" type="line"/>
      <point x="456" y="415" type="line"/>
      <point x="436" y="415" type="line"/>
      <point x="92" y="0" type="line"/>
    </contour>
    <contour>
      <point x="233" y="306" type="curve" smooth="yes"/>
      <point x="233" y="376"/>
      <point x="201" y="417"/>
      <point x="146" y="417" type="curve" smooth="yes"/>
      <point x="90" y="417"/>
      <point x="59" y="376"/>
      <point x="59" y="306" type="curve" smooth="yes"/>
      <point x="59" y="234"/>
      <point x="90" y="195"/>
      <point x="146" y="195" type="curve" smooth="yes"/>
      <point x="201" y="195"/>
      <point x="233" y="234"/>
    </contour>
    <contour>
      <point x="75" y="306" type="curve" smooth="yes"/>
      <point x="75" y="368"/>
      <point x="100" y="403"/>
      <point x="146" y="403" type="curve" smooth="yes"/>
      <point x="192" y="403"/>
      <point x="217" y="368"/>
      <point x="217" y="306" type="curve" smooth="yes"/>
      <point x="217" y="243"/>
      <point x="192" y="209"/>
      <point x="146" y="209" type="curve" smooth="yes"/>
      <point x="100" y="209"/>
      <point x="75" y="243"/>
    </contour>
    <contour>
      <point x="495" y="109" type="curve" smooth="yes"/>
      <point x="495" y="179"/>
      <point x="463" y="220"/>
      <point x="408" y="220" type="curve" smooth="yes"/>
      <point x="352" y="220"/>
      <point x="321" y="179"/>
      <point x="321" y="109" type="curve" smooth="yes"/>
      <point x="321" y="37"/>
      <point x="352" y="-2"/>
      <point x="408" y="-2" type="curve" smooth="yes"/>
      <point x="463" y="-2"/>
      <point x="495" y="37"/>
    </contour>
    <contour>
      <point x="337" y="109" type="curve" smooth="yes"/>
      <point x="337" y="171"/>
      <point x="362" y="206"/>
      <point x="408" y="206" type="curve" smooth="yes"/>
      <point x="454" y="206"/>
      <point x="479" y="171"/>
      <point x="479" y="109" type="curve" smooth="yes"/>
      <point x="479" y="46"/>
      <point x="454" y="12"/>
      <point x="408" y="12" type="curve" smooth="yes"/>
      <point x="362" y="12"/>
      <point x="337" y="46"/>
    </contour>
    <contour>
      <point x="715" y="109" type="curve" smooth="yes"/>
      <point x="715" y="179"/>
      <point x="683" y="220"/>
      <point x="628" y="220" type="curve" smooth="yes"/>
      <point x="573" y="220"/>
      <point x="541" y="179"/>
      <point x="541" y="109" type="curve" smooth="yes"/>
      <point x="541" y="37"/>
      <point x="573" y="-2"/>
      <point x="628" y="-2" type="curve" smooth="yes"/>
      <point x="683" y="-2"/>
      <point x="715" y="37"/>
    </contour>
    <contour>
      <point x="558" y="109" type="curve" smooth="yes"/>
      <point x="558" y="171"/>
      <point x="583" y="206"/>
      <point x="628" y="206" type="curve" smooth="yes"/>
      <point x="674" y="206"/>
      <point x="699" y="171"/>
      <point x="699" y="109" type="curve" smooth="yes"/>
      <point x="699" y="46"/>
      <point x="674" y="12"/>
      <point x="628" y="12" type="curve" smooth="yes"/>
      <point x="583" y="12"/>
      <point x="558" y="46"/>
    </contour>
  </outline>
</glyph>
<glyph name="guilsinglleft" format="1">
  <advance width="173"/>
  <unicode hex="2039"/>
  <outline>
    <contour>
      <point x="126" y="55" type="line"/>
      <point x="56" y="148" type="line"/>
      <point x="126" y="242" type="line"/>
      <point x="106" y="242" type="line"/>
      <point x="35" y="148" type="line"/>
      <point x="106" y="55" type="line"/>
    </contour>
  </outline>
</glyph>
<glyph name="fraction" format="1">
  <advance width="17"/>
  <unicode hex="2044"/>
  <outline>
    <contour>
      <point x="-158" y="0" type="line"/>
      <point x="186" y="415" type="line"/>
      <point x="165" y="415" type="line"/>
      <point x="-179" y="0" type="line"/>
    </contour>
  </outline>
</glyph>
<glyph name="franc" format="1">
  <advance width="354"/>
  <unicode hex="20A3"/>
  <outline>
    <contour>
      <point x="101" y="0" type="line"/>
      <point x="101" y="197" type="line"/>
      <point x="92" y="188" type="line"/>
      <point x="319" y="188" type="line"/>
      <point x="319" y="206" type="line"/>
      <point x="92" y="206" type="line"/>
      <point x="101" y="197" type="line"/>
      <point x="101" y="405" type="line"/>
      <point x="92" y="396" type="line"/>
      <point x="348" y="396" type="line"/>
      <point x="348" y="415" type="line"/>
      <point x="81" y="415" type="line"/>
      <point x="81" y="0" type="line"/>
    </contour>
    <contour>
      <point x="249" y="90" type="line"/>
      <point x="249" y="103" type="line"/>
      <point x="24" y="103" type="line"/>
      <point x="24" y="90" type="line"/>
    </contour>
  </outline>
</glyph>
<glyph name="lira" format="1">
  <advance width="343"/>
  <unicode hex="20A4"/>
  <outline>
    <contour>
      <point x="312" y="0" type="line"/>
      <point x="312" y="18" type="line"/>
      <point x="112" y="18" type="line"/>
      <point x="112" y="296" type="line" smooth="yes"/>
      <point x="112" y="361"/>
      <point x="145" y="396"/>
      <point x="206" y="396" type="curve" smooth="yes"/>
      <point x="246" y="396"/>
      <point x="281" y="377"/>
      <point x="308" y="343" type="curve"/>
      <point x="319" y="358" type="line"/>
      <point x="290" y="394"/>
      <point x="250" y="415"/>
      <point x="205" y="415" type="curve" smooth="yes"/>
      <point x="132" y="415"/>
      <point x="92" y="373"/>
      <point x="92" y="296" type="curve" smooth="yes"/>
      <point x="92" y="0" type="line"/>
    </contour>
    <contour>
      <point x="139" y="0" type="line"/>
      <point x="139" y="18" type="line"/>
      <point x="32" y="18" type="line"/>
      <point x="32" y="0" type="line"/>
    </contour>
    <contour>
      <point x="233" y="163" type="line"/>
      <point x="233" y="177" type="line"/>
      <point x="32" y="177" type="line"/>
      <point x="32" y="163" type="line"/>
    </contour>
    <contour>
      <point x="233" y="228" type="line"/>
      <point x="233" y="242" type="line"/>
      <point x="32" y="242" type="line"/>
      <point x="32" y="228" type="line"/>
    </contour>
  </outline>
</glyph>
<glyph name="peseta" format="1">
  <advance width="870"/>
  <unicode hex="20A7"/>
  <outline>
    <contour>
      <point x="98" y="0" type="line"/>
      <point x="98" y="140" type="line"/>
      <point x="209" y="140" type="line" smooth="yes"/>
      <point x="319" y="140"/>
      <point x="381" y="191"/>
      <point x="381" y="279" type="curve" smooth="yes"/>
      <point x="381" y="365"/>
      <point x="319" y="415"/>
      <point x="209" y="415" type="curve" smooth="yes"/>
      <point x="80" y="415" type="line"/>
      <point x="80" y="0" type="line"/>
    </contour>
    <contour>
      <point x="98" y="397" type="line"/>
      <point x="208" y="397" type="line" smooth="yes"/>
      <point x="307" y="397"/>
      <point x="363" y="354"/>
      <point x="363" y="279" type="curve" smooth="yes"/>
      <point x="363" y="201"/>
      <point x="307" y="157"/>
      <point x="208" y="157" type="curve" smooth="yes"/>
      <point x="98" y="157" type="line"/>
    </contour>
    <contour>
      <point x="597" y="21" type="curve"/>
      <point x="588" y="37" type="line"/>
      <point x="572" y="25"/>
      <point x="552" y="18"/>
      <point x="531" y="18" type="curve"/>
      <point x="494" y="17"/>
      <point x="475" y="42"/>
      <point x="475" y="87" type="curve"/>
      <point x="475" y="375" type="line"/>
      <point x="457" y="375" type="line"/>
      <point x="457" y="86" type="line"/>
      <point x="457" y="29"/>
      <point x="482" y="-1"/>
      <point x="530" y="0" type="curve"/>
      <point x="554" y="0"/>
      <point x="577" y="8"/>
    </contour>
    <contour>
      <point x="590" y="284" type="line"/>
      <point x="590" y="301" type="line"/>
      <point x="408" y="301" type="line"/>
      <point x="408" y="284" type="line"/>
    </contour>
    <contour>
      <point x="846" y="81" type="curve" smooth="yes"/>
      <point x="846" y="187"/>
      <point x="647" y="146"/>
      <point x="647" y="234" type="curve" smooth="yes"/>
      <point x="647" y="274"/>
      <point x="687" y="292"/>
      <point x="738" y="292" type="curve" smooth="yes"/>
      <point x="770" y="292"/>
      <point x="798" y="284"/>
      <point x="820" y="271" type="curve"/>
      <point x="828" y="286" type="line"/>
      <point x="803" y="299"/>
      <point x="773" y="308"/>
      <point x="737" y="308" type="curve" smooth="yes"/>
      <point x="678" y="308"/>
      <point x="630" y="284"/>
      <point x="630" y="233" type="curve" smooth="yes"/>
      <point x="630" y="129"/>
      <point x="832" y="168"/>
      <point x="828" y="78" type="curve" smooth="yes"/>
      <point x="826" y="35"/>
      <point x="783" y="16"/>
      <point x="732" y="16" type="curve" smooth="yes"/>
      <point x="689" y="16"/>
      <point x="651" y="30"/>
      <point x="622" y="55" type="curve"/>
      <point x="612" y="42" type="line"/>
      <point x="642" y="15"/>
      <point x="686" y="0"/>
      <point x="732" y="0" type="curve" smooth="yes"/>
      <point x="792" y="0"/>
      <point x="846" y="25"/>
    </contour>
  </outline>
</glyph>
<glyph name="dong" format="1">
  <advance width="431"/>
  <unicode hex="20AB"/>
  <outline>
    <contour>
      <point x="356" y="154" type="curve"/>
      <point x="356" y="244"/>
      <point x="288" y="309"/>
      <point x="195" y="309" type="curve" smooth="yes"/>
      <point x="101" y="309"/>
      <point x="32" y="244"/>
      <point x="32" y="154" type="curve" smooth="yes"/>
      <point x="32" y="64"/>
      <point x="101" y="-1"/>
      <point x="195" y="-1" type="curve" smooth="yes"/>
      <point x="288" y="-1"/>
      <point x="356" y="64"/>
    </contour>
    <contour>
      <point x="343" y="-54" type="line"/>
      <point x="343" y="-40" type="line"/>
      <point x="84" y="-40" type="line"/>
      <point x="84" y="-54" type="line"/>
    </contour>
    <contour>
      <point x="52" y="154" type="curve" smooth="yes"/>
      <point x="52" y="233"/>
      <point x="113" y="291"/>
      <point x="197" y="291" type="curve" smooth="yes"/>
      <point x="281" y="291"/>
      <point x="342" y="233"/>
      <point x="342" y="154" type="curve" smooth="yes"/>
      <point x="342" y="74"/>
      <point x="281" y="17"/>
      <point x="197" y="17" type="curve" smooth="yes"/>
      <point x="113" y="17"/>
      <point x="52" y="74"/>
    </contour>
    <contour>
      <point x="361" y="0" type="line"/>
      <point x="361" y="440" type="line"/>
      <point x="342" y="440" type="line"/>
      <point x="342" y="0" type="line"/>
    </contour>
    <contour>
      <point x="409" y="355" type="line"/>
      <point x="409" y="369" type="line"/>
      <point x="228" y="369" type="line"/>
      <point x="228" y="355" type="line"/>
    </contour>
  </outline>
</glyph>
<glyph name="trademark" format="1">
  <advance width="553"/>
  <unicode hex="2122"/>
  <outline>
    <contour>
      <point x="262" y="166" type="line"/>
      <point x="262" y="395" type="line"/>
      <point x="372" y="193" type="line"/>
      <point x="382" y="193" type="line"/>
      <point x="492" y="395" type="line"/>
      <point x="493" y="166" type="line"/>
      <point x="509" y="166" type="line"/>
      <point x="509" y="415" type="line"/>
      <point x="484" y="415" type="line"/>
      <point x="378" y="219" type="line" smooth="yes"/>
      <point x="271" y="415" type="line"/>
      <point x="246" y="415" type="line"/>
      <point x="246" y="166" type="line"/>
    </contour>
    <contour>
      <point x="106" y="166" type="line"/>
      <point x="106" y="398" type="line"/>
      <point x="196" y="398" type="line"/>
      <point x="196" y="415" type="line"/>
      <point x="0" y="415" type="line"/>
      <point x="0" y="398" type="line"/>
      <point x="89" y="398" type="line"/>
      <point x="89" y="166" type="line"/>
    </contour>
  </outline>
</glyph>
<glyph name="partialdiff" format="1">
  <advance width="377"/>
  <unicode hex="2202"/>
  <outline>
    <contour>
      <point x="342" y="197" type="curve" smooth="yes"/>
      <point x="342" y="328"/>
      <point x="276" y="415"/>
      <point x="168" y="415" type="curve" smooth="yes"/>
      <point x="131" y="415"/>
      <point x="87" y="402"/>
      <point x="50" y="382" type="curve"/>
      <point x="59" y="366" type="line"/>
      <point x="91" y="385"/>
      <point x="131" y="397"/>
      <point x="167" y="397" type="curve" smooth="yes"/>
      <point x="276" y="397"/>
      <point x="334" y="305"/>
      <point x="320" y="155" type="curve"/>
      <point x="306" y="220"/>
      <point x="251" y="261"/>
      <point x="171" y="261" type="curve" smooth="yes"/>
      <point x="85" y="261"/>
      <point x="31" y="212"/>
      <point x="31" y="132" type="curve" smooth="yes"/>
      <point x="31" y="50"/>
      <point x="88" y="0"/>
      <point x="175" y="0" type="curve" smooth="yes"/>
      <point x="279" y="0"/>
      <point x="342" y="69"/>
    </contour>
    <contour>
      <point x="50" y="133" type="curve" smooth="yes"/>
      <point x="50" y="201"/>
      <point x="99" y="243"/>
      <point x="173" y="243" type="curve" smooth="yes"/>
      <point x="258" y="243"/>
      <point x="309" y="188"/>
      <point x="309" y="129" type="curve"/>
      <point x="309" y="84"/>
      <point x="270" y="18"/>
      <point x="178" y="18" type="curve" smooth="yes"/>
      <point x="103" y="18"/>
      <point x="50" y="62"/>
    </contour>
  </outline>
</glyph>
<glyph name="emptyset" format="1">
  <advance width="335"/>
  <unicode hex="2205"/>
  <outline>
    <contour>
      <point x="318" y="309" type="line"/>
      <point x="307" y="319" type="line"/>
      <point x="17" y="69" type="line"/>
      <point x="27" y="59" type="line"/>
    </contour>
    <contour>
      <point x="294" y="190" type="curve" smooth="yes"/>
      <point x="294" y="255"/>
      <point x="237" y="307"/>
      <point x="168" y="307" type="curve" smooth="yes"/>
      <point x="98" y="307"/>
      <point x="42" y="255"/>
      <point x="42" y="190" type="curve" smooth="yes"/>
      <point x="42" y="126"/>
      <point x="98" y="73"/>
      <point x="168" y="73" type="curve" smooth="yes"/>
      <point x="237" y="73"/>
      <point x="294" y="126"/>
    </contour>
    <contour>
      <point x="58" y="190" type="curve" smooth="yes"/>
      <point x="58" y="245"/>
      <point x="107" y="290"/>
      <point x="168" y="290" type="curve" smooth="yes"/>
      <point x="228" y="290"/>
      <point x="277" y="245"/>
      <point x="277" y="190" type="curve" smooth="yes"/>
      <point x="277" y="135"/>
      <point x="228" y="90"/>
      <point x="168" y="90" type="curve" smooth="yes"/>
      <point x="107" y="90"/>
      <point x="58" y="135"/>
    </contour>
  </outline>
</glyph>
<glyph name="product" format="1">
  <advance width="496"/>
  <unicode hex="220F"/>
  <outline>
    <contour>
      <point x="102" y="-115" type="line"/>
      <point x="102" y="422" type="line"/>
      <point x="394" y="422" type="line"/>
      <point x="394" y="-115" type="line"/>
      <point x="413" y="-115" type="line"/>
      <point x="413" y="440" type="line"/>
      <point x="83" y="440" type="line"/>
      <point x="83" y="-115" type="line"/>
    </contour>
  </outline>
</glyph>
<glyph name="summation" format="1">
  <advance width="388"/>
  <unicode hex="2211"/>
  <outline>
    <contour>
      <point x="388" y="-82" type="line"/>
      <point x="388" y="-63" type="line"/>
      <point x="48" y="-63" type="line"/>
      <point x="267" y="185" type="line"/>
      <point x="50" y="421" type="line"/>
      <point x="382" y="421" type="line"/>
      <point x="382" y="440" type="line"/>
      <point x="27" y="440" type="line"/>
      <point x="27" y="420" type="line"/>
      <point x="243" y="185" type="line"/>
      <point x="25" y="-62" type="line"/>
      <point x="25" y="-82" type="line"/>
    </contour>
  </outline>
</glyph>
<glyph name="minus" format="1">
  <advance width="310"/>
  <unicode hex="2212"/>
  <outline>
    <contour>
      <point x="284" y="182" type="line"/>
      <point x="284" y="199" type="line"/>
      <point x="25" y="199" type="line"/>
      <point x="25" y="182" type="line"/>
    </contour>
  </outline>
</glyph>
<glyph name="radical" format="1">
  <advance width="425"/>
  <unicode hex="221A"/>
  <outline>
    <contour>
      <point x="223" y="-87" type="line"/>
      <point x="410" y="448" type="line"/>
      <point x="390" y="448" type="line"/>
      <point x="213" y="-64" type="line"/>
      <point x="105" y="227" type="line"/>
      <point x="15" y="227" type="line"/>
      <point x="15" y="209" type="line"/>
      <point x="92" y="209" type="line"/>
      <point x="202" y="-87" type="line"/>
    </contour>
  </outline>
</glyph>
<glyph name="infinity" format="1">
  <advance width="586"/>
  <unicode hex="221E"/>
  <outline>
    <contour>
      <point x="552" y="182" type="curve" smooth="yes"/>
      <point x="552" y="242"/>
      <point x="503" y="288"/>
      <point x="438" y="288" type="curve" smooth="yes"/>
      <point x="268" y="288"/>
      <point x="305" y="92"/>
      <point x="148" y="92" type="curve" smooth="yes"/>
      <point x="92" y="92"/>
      <point x="51" y="130"/>
      <point x="51" y="181" type="curve" smooth="yes"/>
      <point x="51" y="233"/>
      <point x="92" y="270"/>
      <point x="148" y="270" type="curve" smooth="yes"/>
      <point x="305" y="270"/>
      <point x="269" y="75"/>
      <point x="438" y="75" type="curve" smooth="yes"/>
      <point x="503" y="75"/>
      <point x="552" y="121"/>
    </contour>
    <contour>
      <point x="437" y="271" type="curve" smooth="yes"/>
      <point x="494" y="271"/>
      <point x="535" y="233"/>
      <point x="535" y="182" type="curve" smooth="yes"/>
      <point x="535" y="130"/>
      <point x="494" y="92"/>
      <point x="437" y="92" type="curve" smooth="yes"/>
      <point x="281" y="92"/>
      <point x="317" y="288"/>
      <point x="148" y="288" type="curve" smooth="yes"/>
      <point x="83" y="288"/>
      <point x="34" y="242"/>
      <point x="34" y="181" type="curve" smooth="yes"/>
      <point x="34" y="120"/>
      <point x="83" y="75"/>
      <point x="148" y="75" type="curve" smooth="yes"/>
      <point x="317" y="75"/>
      <point x="281" y="271"/>
    </contour>
  </outline>
</glyph>
<glyph name="integral" format="1">
  <advance width="176"/>
  <unicode hex="222B"/>
  <outline>
    <contour>
      <point x="102" y="36" type="curve"/>
      <point x="102" y="137"/>
      <point x="92" y="293"/>
      <point x="92" y="389" type="curve"/>
      <point x="92" y="450"/>
      <point x="104" y="473"/>
      <point x="136" y="473" type="curve"/>
      <point x="147" y="473"/>
      <point x="155" y="471"/>
      <point x="164" y="466" type="curve"/>
      <point x="170" y="482" type="line"/>
      <point x="157" y="488"/>
      <point x="147" y="490"/>
      <point x="136" y="490" type="curve"/>
      <point x="91" y="490"/>
      <point x="74" y="462"/>
      <point x="74" y="388" type="curve"/>
      <point x="74" y="292"/>
      <point x="85" y="136"/>
      <point x="85" y="35" type="curve"/>
      <point x="85" y="-26"/>
      <point x="73" y="-49"/>
      <point x="40" y="-49" type="curve"/>
      <point x="28" y="-49"/>
      <point x="20" y="-47"/>
      <point x="11" y="-42" type="curve"/>
      <point x="5" y="-58" type="line"/>
      <point x="18" y="-64"/>
      <point x="28" y="-66"/>
      <point x="41" y="-66" type="curve"/>
      <point x="85" y="-66"/>
      <point x="102" y="-38"/>
    </contour>
  </outline>
</glyph>
<glyph name="approxequal" format="1">
  <advance width="310"/>
  <unicode hex="2248"/>
  <outline>
    <contour>
      <point x="258" y="280" type="curve"/>
      <point x="241" y="280" type="line"/>
      <point x="241" y="258"/>
      <point x="230" y="245"/>
      <point x="210" y="245" type="curve" smooth="yes"/>
      <point x="177" y="245"/>
      <point x="137" y="286"/>
      <point x="99" y="286" type="curve" smooth="yes"/>
      <point x="69" y="286"/>
      <point x="52" y="267"/>
      <point x="52" y="233" type="curve"/>
      <point x="69" y="233" type="line"/>
      <point x="69" y="255"/>
      <point x="80" y="268"/>
      <point x="101" y="268" type="curve" smooth="yes"/>
      <point x="134" y="268"/>
      <point x="168" y="228"/>
      <point x="211" y="228" type="curve" smooth="yes"/>
      <point x="241" y="228"/>
      <point x="258" y="247"/>
    </contour>
    <contour>
      <point x="258" y="159" type="curve"/>
      <point x="241" y="159" type="line"/>
      <point x="241" y="137"/>
      <point x="230" y="124"/>
      <point x="210" y="124" type="curve" smooth="yes"/>
      <point x="177" y="124"/>
      <point x="137" y="165"/>
      <point x="99" y="165" type="curve" smooth="yes"/>
      <point x="69" y="165"/>
      <point x="52" y="146"/>
      <point x="52" y="112" type="curve"/>
      <point x="69" y="112" type="line"/>
      <point x="69" y="135"/>
      <point x="80" y="147"/>
      <point x="101" y="147" type="curve" smooth="yes"/>
      <point x="134" y="147"/>
      <point x="168" y="107"/>
      <point x="211" y="107" type="curve" smooth="yes"/>
      <point x="241" y="107"/>
      <point x="258" y="126"/>
    </contour>
  </outline>
</glyph>
<glyph name="notequal" format="1">
  <advance width="310"/>
  <unicode hex="2260"/>
  <outline>
    <contour>
      <point x="103" y="28" type="line"/>
      <point x="214" y="350" type="line"/>
      <point x="197" y="350" type="line"/>
      <point x="86" y="28" type="line"/>
    </contour>
    <contour>
      <point x="284" y="122" type="line"/>
      <point x="284" y="139" type="line"/>
      <point x="25" y="139" type="line"/>
      <point x="25" y="122" type="line"/>
    </contour>
    <contour>
      <point x="284" y="241" type="line"/>
      <point x="284" y="258" type="line"/>
      <point x="25" y="258" type="line"/>
      <point x="25" y="241" type="line"/>
    </contour>
  </outline>
</glyph>
<glyph name="lozenge" format="1">
  <advance width="323"/>
  <unicode hex="25CA"/>
  <outline>
    <contour>
      <point x="289" y="196" type="line"/>
      <point x="162" y="371" type="line"/>
      <point x="34" y="196" type="line"/>
      <point x="161" y="18" type="line"/>
    </contour>
    <contour>
      <point x="53" y="196" type="line"/>
      <point x="162" y="344" type="line"/>
      <point x="270" y="196" type="line"/>
      <point x="161" y="47" type="line"/>
    </contour>
  </outline>
</glyph>
<glyph name="A.ss01" format="1">
  <advance width="517"/>
  <outline>
    <contour>
      <point x="99" y="0" type="line"/>
      <point x="99" y="242" type="line" smooth="yes"/>
      <point x="99" y="347"/>
      <point x="159" y="399"/>
      <point x="258" y="399" type="curve" smooth="yes"/>
      <point x="358" y="399"/>
      <point x="418" y="347"/>
      <point x="418" y="242" type="curve" smooth="yes"/>
      <point x="418" y="0" type="line"/>
      <point x="437" y="0" type="line"/>
      <point x="437" y="240" type="line" smooth="yes"/>
      <point x="437" y="358"/>
      <point x="367" y="417"/>
      <point x="258" y="417" type="curve" smooth="yes"/>
      <point x="150" y="417"/>
      <point x="79" y="358"/>
      <point x="79" y="240" type="curve" smooth="yes"/>
      <point x="79" y="0" type="line"/>
    </contour>
    <contour>
      <point x="426" y="133" type="line"/>
      <point x="426" y="151" type="line"/>
      <point x="92" y="151" type="line"/>
      <point x="92" y="133" type="line"/>
    </contour>
    <contour>
      <point x="437" y="0" type="move" name="ogonek"/>
    </contour>
    <contour>
      <point x="258" y="415" type="move" name="top"/>
    </contour>
    <contour>
      <point x="57" y="415" type="move" name="topleft"/>
    </contour>
    <contour>
      <point x="258" y="0" type="move" name="bottom"/>
    </contour>
  </outline>
</glyph>
<glyph name="Adieresis.alt" format="1">
  <advance width="446"/>
  <outline>
    <contour>
      <point x="26" y="0" type="line"/>
      <point x="227" y="402" type="line"/>
      <point x="218" y="402" type="line"/>
      <point x="419" y="0" type="line"/>
      <point x="441" y="0" type="line"/>
      <point x="233" y="415" type="line"/>
      <point x="213" y="415" type="line"/>
      <point x="5" y="0" type="line"/>
    </contour>
    <contour>
      <point x="374" y="107" type="line"/>
      <point x="366" y="125" type="line"/>
      <point x="78" y="125" type="line"/>
      <point x="70" y="107" type="line"/>
    </contour>
    <contour>
      <point x="152" y="399" type="curve" smooth="yes"/>
      <point x="152" y="409"/>
      <point x="143" y="417"/>
      <point x="133" y="417" type="curve" smooth="yes"/>
      <point x="123" y="417"/>
      <point x="115" y="409"/>
      <point x="115" y="399" type="curve" smooth="yes"/>
      <point x="115" y="389"/>
      <point x="123" y="381"/>
      <point x="133" y="381" type="curve" smooth="yes"/>
      <point x="143" y="381"/>
      <point x="152" y="389"/>
    </contour>
    <contour>
      <point x="331" y="399" type="curve" smooth="yes"/>
      <point x="331" y="409"/>
      <point x="323" y="417"/>
      <point x="313" y="417" type="curve" smooth="yes"/>
      <point x="303" y="417"/>
      <point x="294" y="409"/>
      <point x="294" y="399" type="curve" smooth="yes"/>
      <point x="294" y="389"/>
      <point x="303" y="381"/>
      <point x="313" y="381" type="curve" smooth="yes"/>
      <point x="323" y="381"/>
      <point x="331" y="389"/>
    </contour>
  </outline>
</glyph>
<glyph name="E.ss01" format="1">
  <advance width="397"/>
  <outline>
    <contour>
      <point x="382" y="53" type="curve"/>
      <point x="371" y="67" type="line"/>
      <point x="338" y="35"/>
      <point x="280" y="16"/>
      <point x="211" y="16" type="curve" smooth="yes"/>
      <point x="109" y="16"/>
      <point x="60" y="55"/>
      <point x="60" y="111" type="curve" smooth="yes"/>
      <point x="60" y="173"/>
      <point x="117" y="202"/>
      <point x="198" y="202" type="curve" smooth="yes"/>
      <point x="304" y="202" type="line"/>
      <point x="304" y="220" type="line"/>
      <point x="198" y="220" type="line" smooth="yes"/>
      <point x="124" y="220"/>
      <point x="79" y="251"/>
      <point x="79" y="307" type="curve" smooth="yes"/>
      <point x="79" y="359"/>
      <point x="126" y="399"/>
      <point x="221" y="399" type="curve" smooth="yes"/>
      <point x="270" y="399"/>
      <point x="315" y="388"/>
      <point x="353" y="366" type="curve"/>
      <point x="361" y="382" type="line"/>
      <point x="326" y="405"/>
      <point x="273" y="417"/>
      <point x="220" y="417" type="curve" smooth="yes"/>
      <point x="114" y="417"/>
      <point x="60" y="368"/>
      <point x="60" y="308" type="curve" smooth="yes"/>
      <point x="60" y="246"/>
      <point x="108" y="206"/>
      <point x="192" y="206" type="curve"/>
      <point x="189" y="216" type="line"/>
      <point x="104" y="216"/>
      <point x="41" y="179"/>
      <point x="41" y="110" type="curve" smooth="yes"/>
      <point x="41" y="45"/>
      <point x="98" y="-2"/>
      <point x="210" y="-2" type="curve" smooth="yes"/>
      <point x="285" y="-2"/>
      <point x="348" y="18"/>
    </contour>
    <contour>
      <point x="365" y="0" type="move" name="ogonek"/>
    </contour>
    <contour>
      <point x="217" y="415" type="move" name="top"/>
    </contour>
    <contour>
      <point x="42" y="415" type="move" name="topleft"/>
    </contour>
    <contour>
      <point x="217" y="0" type="move" name="bottom"/>
    </contour>
  </outline>
</glyph>
<glyph name="Eng.ss01" format="1">
  <advance width="514"/>
  <outline>
    <contour>
      <point x="435" y="3" type="curve" smooth="yes"/>
      <point x="435" y="250" type="line" smooth="yes"/>
      <point x="435" y="359"/>
      <point x="369" y="417"/>
      <point x="262" y="417" type="curve" smooth="yes"/>
      <point x="155" y="417"/>
      <point x="89" y="358"/>
      <point x="89" y="238" type="curve" smooth="yes"/>
      <point x="89" y="178" type="line"/>
      <point x="103" y="178" type="line"/>
      <point x="103" y="237" type="line" smooth="yes"/>
      <point x="103" y="347"/>
      <point x="160" y="399"/>
      <point x="259" y="399" type="curve" smooth="yes"/>
      <point x="358" y="399"/>
      <point x="415" y="348"/>
      <point x="415" y="249" type="curve" smooth="yes"/>
      <point x="415" y="4" type="line" smooth="yes"/>
      <point x="415" y="-66"/>
      <point x="385" y="-99"/>
      <point x="321" y="-99" type="curve" smooth="yes"/>
      <point x="279" y="-99"/>
      <point x="244" y="-80"/>
      <point x="220" y="-47" type="curve"/>
      <point x="208" y="-60" type="line"/>
      <point x="232" y="-96"/>
      <point x="275" y="-117"/>
      <point x="321" y="-117" type="curve" smooth="yes"/>
      <point x="396" y="-117"/>
      <point x="435" y="-77"/>
    </contour>
    <contour>
      <point x="103" y="0" type="line"/>
      <point x="103" y="278" type="line"/>
      <point x="102" y="288" type="line"/>
      <point x="102" y="415" type="line"/>
      <point x="83" y="415" type="line"/>
      <point x="83" y="0" type="line"/>
    </contour>
  </outline>
</glyph>
<glyph name="Eogonek.ss01" format="1">
  <advance width="397"/>
  <outline>
    <contour>
      <point x="376" y="-112" type="curve"/>
      <point x="369" y="-99" type="line"/>
      <point x="359" y="-108"/>
      <point x="344" y="-113"/>
      <point x="329" y="-113" type="curve" smooth="yes"/>
      <point x="303" y="-113"/>
      <point x="284" y="-99"/>
      <point x="284" y="-74" type="curve" smooth="yes"/>
      <point x="284" y="-48"/>
      <point x="298" y="-10"/>
      <point x="382" y="52" type="curve"/>
      <point x="371" y="67" type="line"/>
      <point x="338" y="37"/>
      <point x="280" y="16"/>
      <point x="211" y="16" type="curve" smooth="yes"/>
      <point x="109" y="16"/>
      <point x="60" y="55"/>
      <point x="60" y="111" type="curve" smooth="yes"/>
      <point x="60" y="173"/>
      <point x="117" y="202"/>
      <point x="198" y="202" type="curve" smooth="yes"/>
      <point x="304" y="202" type="line"/>
      <point x="304" y="220" type="line"/>
      <point x="198" y="220" type="line" smooth="yes"/>
      <point x="124" y="220"/>
      <point x="79" y="251"/>
      <point x="79" y="307" type="curve" smooth="yes"/>
      <point x="79" y="359"/>
      <point x="126" y="399"/>
      <point x="221" y="399" type="curve" smooth="yes"/>
      <point x="270" y="399"/>
      <point x="315" y="388"/>
      <point x="353" y="366" type="curve"/>
      <point x="361" y="382" type="line"/>
      <point x="326" y="405"/>
      <point x="273" y="417"/>
      <point x="220" y="417" type="curve" smooth="yes"/>
      <point x="114" y="417"/>
      <point x="60" y="368"/>
      <point x="60" y="308" type="curve" smooth="yes"/>
      <point x="60" y="259"/>
      <point x="91" y="224"/>
      <point x="145" y="211" type="curve"/>
      <point x="83" y="201"/>
      <point x="41" y="166"/>
      <point x="41" y="110" type="curve" smooth="yes"/>
      <point x="41" y="45"/>
      <point x="98" y="-2"/>
      <point x="210" y="-2" type="curve" smooth="yes"/>
      <point x="255" y="-2"/>
      <point x="293" y="5"/>
      <point x="327" y="18" type="curve"/>
      <point x="326" y="22" type="line"/>
      <point x="279" y="-18"/>
      <point x="268" y="-50"/>
      <point x="268" y="-75" type="curve" smooth="yes"/>
      <point x="268" y="-107"/>
      <point x="293" y="-127"/>
      <point x="328" y="-127" type="curve" smooth="yes"/>
      <point x="346" y="-127"/>
      <point x="362" y="-123"/>
    </contour>
    <contour>
      <point x="42" y="415" type="move" name="topleft"/>
    </contour>
    <contour>
      <point x="217" y="415" type="move" name="top"/>
    </contour>
    <contour>
      <point x="217" y="0" type="move" name="bottom"/>
    </contour>
  </outline>
</glyph>
<glyph name="F.ss01" format="1">
  <advance width="384"/>
  <outline>
    <contour>
      <point x="99" y="0" type="line"/>
      <point x="99" y="281" type="line" smooth="yes"/>
      <point x="99" y="355"/>
      <point x="143" y="399"/>
      <point x="241" y="399" type="curve" smooth="yes"/>
      <point x="287" y="399"/>
      <point x="329" y="389"/>
      <point x="362" y="366" type="curve"/>
      <point x="372" y="382" type="line"/>
      <point x="338" y="406"/>
      <point x="292" y="417"/>
      <point x="240" y="417" type="curve" smooth="yes"/>
      <point x="131" y="417"/>
      <point x="79" y="363"/>
      <point x="79" y="282" type="curve" smooth="yes"/>
      <point x="79" y="0" type="line"/>
    </contour>
    <contour>
      <point x="329" y="189" type="line"/>
      <point x="329" y="207" type="line"/>
      <point x="94" y="207" type="line"/>
      <point x="94" y="189" type="line"/>
    </contour>
  </outline>
</glyph>
<glyph name="G.ss01" format="1">
  <advance width="498"/>
  <outline>
    <contour>
      <point x="423" y="62" type="curve"/>
      <point x="415" y="77" type="line"/>
      <point x="374" y="35"/>
      <point x="317" y="16"/>
      <point x="263" y="16" type="curve" smooth="yes"/>
      <point x="157" y="16"/>
      <point x="57" y="86"/>
      <point x="57" y="207" type="curve" smooth="yes"/>
      <point x="57" y="316"/>
      <point x="148" y="399"/>
      <point x="271" y="399" type="curve" smooth="yes"/>
      <point x="327" y="399"/>
      <point x="376" y="385"/>
      <point x="416" y="349" type="curve"/>
      <point x="428" y="363" type="line"/>
      <point x="389" y="399"/>
      <point x="333" y="417"/>
      <point x="271" y="417" type="curve" smooth="yes"/>
      <point x="136" y="417"/>
      <point x="37" y="328"/>
      <point x="37" y="207" type="curve" smooth="yes"/>
      <point x="37" y="72"/>
      <point x="148" y="-2"/>
      <point x="262" y="-2" type="curve" smooth="yes"/>
      <point x="321" y="-2"/>
      <point x="380" y="18"/>
    </contour>
    <contour>
      <point x="428" y="0" type="line"/>
      <point x="428" y="204" type="line"/>
      <point x="410" y="204" type="line"/>
      <point x="410" y="60" type="line"/>
      <point x="411" y="57" type="line"/>
      <point x="411" y="0" type="line"/>
    </contour>
    <contour>
      <point x="259" y="415" type="move" name="top"/>
    </contour>
    <contour>
      <point x="259" y="0" type="move" name="bottom"/>
    </contour>
  </outline>
</glyph>
<glyph name="Germandbls" format="1">
  <advance width="479"/>
  <outline>
    <contour>
      <point x="438" y="115" type="curve" smooth="yes"/>
      <point x="438" y="191"/>
      <point x="380" y="232"/>
      <point x="293" y="232" type="curve" smooth="yes"/>
      <point x="276" y="232"/>
      <point x="258" y="230"/>
      <point x="242" y="226" type="curve"/>
      <point x="246" y="215" type="line"/>
      <point x="399" y="359" type="line"/>
      <point x="399" y="373" type="line"/>
      <point x="362" y="402"/>
      <point x="313" y="415"/>
      <point x="257" y="415" type="curve" smooth="yes"/>
      <point x="146" y="415"/>
      <point x="79" y="352"/>
      <point x="79" y="246" type="curve" smooth="yes"/>
      <point x="79" y="0" type="line"/>
      <point x="99" y="0" type="line"/>
      <point x="99" y="245" type="line" smooth="yes"/>
      <point x="99" y="344"/>
      <point x="157" y="397"/>
      <point x="257" y="397" type="curve" smooth="yes"/>
      <point x="310" y="397"/>
      <point x="354" y="386"/>
      <point x="388" y="359" type="curve"/>
      <point x="389" y="372" type="line"/>
      <point x="229" y="221" type="line"/>
      <point x="234" y="208" type="line"/>
      <point x="251" y="213"/>
      <point x="272" y="215"/>
      <point x="292" y="215" type="curve" smooth="yes"/>
      <point x="369" y="215"/>
      <point x="419" y="181"/>
      <point x="419" y="115" type="curve" smooth="yes"/>
      <point x="419" y="50"/>
      <point x="370" y="16"/>
      <point x="294" y="16" type="curve" smooth="yes"/>
      <point x="263" y="16"/>
      <point x="236" y="21"/>
      <point x="212" y="32" type="curve"/>
      <point x="206" y="14" type="line"/>
      <point x="233" y="3"/>
      <point x="257" y="-2"/>
      <point x="296" y="-2" type="curve" smooth="yes"/>
      <point x="381" y="-2"/>
      <point x="438" y="38"/>
    </contour>
  </outline>
</glyph>
<glyph name="I.ss01" format="1">
  <advance width="274"/>
  <outline>
    <contour>
      <point x="147" y="6" type="line"/>
      <point x="147" y="409" type="line"/>
      <point x="127" y="409" type="line"/>
      <point x="127" y="6" type="line"/>
    </contour>
    <contour>
      <point x="244" y="0" type="line"/>
      <point x="244" y="18" type="line"/>
      <point x="30" y="18" type="line"/>
      <point x="30" y="0" type="line"/>
    </contour>
    <contour>
      <point x="244" y="397" type="line"/>
      <point x="244" y="415" type="line"/>
      <point x="30" y="415" type="line"/>
      <point x="30" y="397" type="line"/>
    </contour>
    <contour>
      <point x="147" y="0" type="move" name="ogonek"/>
    </contour>
    <contour>
      <point x="137" y="415" type="move" name="top"/>
    </contour>
    <contour>
      <point x="4" y="415" type="move" name="topleft"/>
    </contour>
    <contour>
      <point x="137" y="0" type="move" name="bottom"/>
    </contour>
  </outline>
</glyph>
<glyph name="IJ.ss01" format="1">
  <advance width="460"/>
  <outline>
    <contour>
      <point x="380" y="116" type="curve" smooth="yes"/>
      <point x="380" y="415" type="line"/>
      <point x="361" y="415" type="line"/>
      <point x="361" y="116" type="line" smooth="yes"/>
      <point x="361" y="9"/>
      <point x="304" y="-43"/>
      <point x="211" y="-43" type="curve" smooth="yes"/>
      <point x="163" y="-43"/>
      <point x="119" y="-30"/>
      <point x="84" y="-6" type="curve"/>
      <point x="74" y="-22" type="line"/>
      <point x="110" y="-45"/>
      <point x="158" y="-61"/>
      <point x="210" y="-61" type="curve" smooth="yes"/>
      <point x="313" y="-61"/>
      <point x="380" y="-2"/>
    </contour>
    <contour>
      <point x="99" y="115" type="line"/>
      <point x="99" y="415" type="line"/>
      <point x="79" y="415" type="line"/>
      <point x="79" y="115" type="line"/>
    </contour>
    <contour>
      <point x="107" y="415" type="move" name="top"/>
    </contour>
  </outline>
</glyph>
<glyph name="Iacute_J.loclNLD" format="1">
  <advance width="460"/>
  <outline>
    <contour>
      <point x="380" y="175" type="curve" smooth="yes"/>
      <point x="380" y="415" type="line"/>
      <point x="361" y="415" type="line"/>
      <point x="361" y="175" type="line" smooth="yes"/>
      <point x="361" y="68"/>
      <point x="304" y="16"/>
      <point x="211" y="16" type="curve" smooth="yes"/>
      <point x="163" y="16"/>
      <point x="119" y="30"/>
      <point x="84" y="53" type="curve"/>
      <point x="74" y="37" type="line"/>
      <point x="110" y="14"/>
      <point x="158" y="-2"/>
      <point x="210" y="-2" type="curve" smooth="yes"/>
      <point x="313" y="-2"/>
      <point x="380" y="57"/>
    </contour>
    <contour>
      <point x="99" y="174" type="line"/>
      <point x="99" y="415" type="line"/>
      <point x="79" y="415" type="line"/>
      <point x="79" y="174" type="line"/>
    </contour>
    <contour>
      <point x="100" y="449" type="line"/>
      <point x="198" y="516" type="line"/>
      <point x="166" y="516" type="line"/>
      <point x="77" y="449" type="line"/>
    </contour>
    <contour>
      <point x="382" y="449" type="line"/>
      <point x="480" y="516" type="line"/>
      <point x="449" y="516" type="line"/>
      <point x="359" y="449" type="line"/>
    </contour>
  </outline>
</glyph>
<glyph name="J.ss01" format="1">
  <advance width="310"/>
  <outline>
    <contour>
      <point x="230" y="59" type="curve" smooth="yes"/>
      <point x="230" y="415" type="line"/>
      <point x="43" y="415" type="line"/>
      <point x="43" y="397" type="line"/>
      <point x="211" y="397" type="line"/>
      <point x="211" y="59" type="line" smooth="yes"/>
      <point x="211" y="-10"/>
      <point x="180" y="-43"/>
      <point x="116" y="-43" type="curve" smooth="yes"/>
      <point x="75" y="-43"/>
      <point x="39" y="-24"/>
      <point x="14" y="10" type="curve"/>
      <point x="2" y="-3" type="line"/>
      <point x="26" y="-40"/>
      <point x="69" y="-62"/>
      <point x="116" y="-62" type="curve" smooth="yes"/>
      <point x="192" y="-62"/>
      <point x="230" y="-21"/>
    </contour>
    <contour>
      <point x="137" y="415" type="move" name="top"/>
    </contour>
  </outline>
</glyph>
<glyph name="M.ss01" format="1">
  <advance width="721"/>
  <outline>
    <contour>
      <point x="642" y="0" type="line"/>
      <point x="642" y="261" type="line" smooth="yes"/>
      <point x="642" y="365"/>
      <point x="587" y="417"/>
      <point x="500" y="417" type="curve" smooth="yes"/>
      <point x="413" y="417"/>
      <point x="357" y="365"/>
      <point x="357" y="247" type="curve" smooth="yes"/>
      <point x="357" y="194" type="line"/>
      <point x="372" y="194" type="line"/>
      <point x="372" y="249" type="line" smooth="yes"/>
      <point x="372" y="353"/>
      <point x="418" y="399"/>
      <point x="497" y="399" type="curve" smooth="yes"/>
      <point x="577" y="399"/>
      <point x="622" y="354"/>
      <point x="622" y="261" type="curve" smooth="yes"/>
      <point x="622" y="0" type="line"/>
    </contour>
    <contour>
      <point x="103" y="0" type="line"/>
      <point x="103" y="278" type="line"/>
      <point x="102" y="288" type="line"/>
      <point x="102" y="415" type="line"/>
      <point x="83" y="415" type="line"/>
      <point x="83" y="0" type="line"/>
    </contour>
    <contour>
      <point x="372" y="0" type="line"/>
      <point x="372" y="261" type="line" smooth="yes"/>
      <point x="372" y="365"/>
      <point x="318" y="417"/>
      <point x="231" y="417" type="curve" smooth="yes"/>
      <point x="144" y="417"/>
      <point x="90" y="364"/>
      <point x="90" y="244" type="curve" smooth="yes"/>
      <point x="90" y="178" type="line"/>
      <point x="103" y="178" type="line"/>
      <point x="103" y="249" type="line" smooth="yes"/>
      <point x="103" y="353"/>
      <point x="149" y="399"/>
      <point x="228" y="399" type="curve" smooth="yes"/>
      <point x="308" y="399"/>
      <point x="353" y="354"/>
      <point x="353" y="261" type="curve" smooth="yes"/>
      <point x="353" y="0" type="line"/>
    </contour>
    <contour>
      <point x="363" y="415" type="move" name="top"/>
    </contour>
    <contour>
      <point x="363" y="0" type="move" name="bottom"/>
    </contour>
  </outline>
</glyph>
<glyph name="N.ss01" format="1">
  <advance width="514"/>
  <outline>
    <contour>
      <point x="435" y="0" type="line"/>
      <point x="435" y="250" type="line" smooth="yes"/>
      <point x="435" y="359"/>
      <point x="369" y="417"/>
      <point x="262" y="417" type="curve" smooth="yes"/>
      <point x="155" y="417"/>
      <point x="89" y="358"/>
      <point x="89" y="238" type="curve" smooth="yes"/>
      <point x="89" y="178" type="line"/>
      <point x="103" y="178" type="line"/>
      <point x="103" y="237" type="line" smooth="yes"/>
      <point x="103" y="347"/>
      <point x="160" y="399"/>
      <point x="259" y="399" type="curve" smooth="yes"/>
      <point x="358" y="399"/>
      <point x="415" y="348"/>
      <point x="415" y="249" type="curve" smooth="yes"/>
      <point x="415" y="0" type="line"/>
    </contour>
    <contour>
      <point x="103" y="0" type="line"/>
      <point x="103" y="278" type="line"/>
      <point x="102" y="288" type="line"/>
      <point x="102" y="415" type="line"/>
      <point x="83" y="415" type="line"/>
      <point x="83" y="0" type="line"/>
    </contour>
    <contour>
      <point x="259" y="415" type="move" name="top"/>
    </contour>
    <contour>
      <point x="258" y="0" type="move" name="bottom"/>
    </contour>
  </outline>
</glyph>
<glyph name="Oogonek" format="1">
  <advance width="538"/>
  <outline>
    <contour>
      <point x="316" y="-112" type="curve"/>
      <point x="308" y="-99" type="line"/>
      <point x="298" y="-108"/>
      <point x="283" y="-113"/>
      <point x="268" y="-113" type="curve" smooth="yes"/>
      <point x="242" y="-113"/>
      <point x="223" y="-100"/>
      <point x="223" y="-76" type="curve" smooth="yes"/>
      <point x="223" y="-39"/>
      <point x="270" y="-7"/>
      <point x="323" y="4" type="curve" smooth="yes"/>
      <point x="420" y="22"/>
      <point x="501" y="98"/>
      <point x="501" y="208" type="curve" smooth="yes"/>
      <point x="501" y="328"/>
      <point x="401" y="417"/>
      <point x="269" y="417" type="curve" smooth="yes"/>
      <point x="136" y="417"/>
      <point x="37" y="328"/>
      <point x="37" y="208" type="curve" smooth="yes"/>
      <point x="37" y="87"/>
      <point x="136" y="-2"/>
      <point x="269" y="-2" type="curve" smooth="yes"/>
      <point x="274" y="-2"/>
      <point x="279" y="-2"/>
      <point x="285" y="-1" type="curve"/>
      <point x="295" y="11" type="line"/>
      <point x="224" y="-17"/>
      <point x="206" y="-51"/>
      <point x="206" y="-77" type="curve" smooth="yes"/>
      <point x="206" y="-108"/>
      <point x="232" y="-127"/>
      <point x="267" y="-127" type="curve" smooth="yes"/>
      <point x="285" y="-127"/>
      <point x="302" y="-123"/>
    </contour>
    <contour>
      <point x="57" y="208" type="curve" smooth="yes"/>
      <point x="57" y="317"/>
      <point x="148" y="399"/>
      <point x="269" y="399" type="curve" smooth="yes"/>
      <point x="390" y="399"/>
      <point x="481" y="317"/>
      <point x="481" y="208" type="curve" smooth="yes"/>
      <point x="481" y="98"/>
      <point x="390" y="16"/>
      <point x="269" y="16" type="curve" smooth="yes"/>
      <point x="148" y="16"/>
      <point x="57" y="98"/>
    </contour>
    <contour>
      <point x="269" y="415" type="move" name="top"/>
    </contour>
  </outline>
</glyph>
<glyph name="Q.ss01" format="1">
  <advance width="538"/>
  <outline>
    <contour>
      <point x="501" y="208" type="curve" smooth="yes"/>
      <point x="501" y="328"/>
      <point x="401" y="417"/>
      <point x="269" y="417" type="curve" smooth="yes"/>
      <point x="136" y="417"/>
      <point x="37" y="328"/>
      <point x="37" y="208" type="curve" smooth="yes"/>
      <point x="37" y="87"/>
      <point x="136" y="-2"/>
      <point x="269" y="-2" type="curve" smooth="yes"/>
      <point x="401" y="-2"/>
      <point x="501" y="87"/>
    </contour>
    <contour>
      <point x="279" y="-80" type="line"/>
      <point x="279" y="2" type="line"/>
      <point x="278" y="9" type="line"/>
      <point x="278" y="126" type="line"/>
      <point x="259" y="126" type="line"/>
      <point x="259" y="9" type="line"/>
      <point x="259" y="2" type="line"/>
      <point x="259" y="-80" type="line"/>
    </contour>
    <contour>
      <point x="57" y="208" type="curve" smooth="yes"/>
      <point x="57" y="316"/>
      <point x="148" y="399"/>
      <point x="269" y="399" type="curve" smooth="yes"/>
      <point x="390" y="399"/>
      <point x="481" y="316"/>
      <point x="481" y="208" type="curve" smooth="yes"/>
      <point x="481" y="99"/>
      <point x="390" y="16"/>
      <point x="269" y="16" type="curve" smooth="yes"/>
      <point x="148" y="16"/>
      <point x="57" y="99"/>
    </contour>
  </outline>
</glyph>
<glyph name="Saltillo" format="1">
  <advance width="138"/>
  <outline>
    <contour>
      <point x="78" y="177" type="line"/>
      <point x="79" y="415" type="line"/>
      <point x="59" y="415" type="line"/>
      <point x="59" y="177" type="line"/>
    </contour>
  </outline>
</glyph>
<glyph name="Schwa" format="1">
  <advance width="525"/>
  <outline>
    <contour>
      <point x="488" y="208" type="curve" smooth="yes"/>
      <point x="488" y="328"/>
      <point x="388" y="417"/>
      <point x="256" y="417" type="curve" smooth="yes"/>
      <point x="194" y="417"/>
      <point x="138" y="400"/>
      <point x="98" y="365" type="curve"/>
      <point x="109" y="351" type="line"/>
      <point x="151" y="385"/>
      <point x="201" y="399"/>
      <point x="256" y="399" type="curve" smooth="yes"/>
      <point x="376" y="399"/>
      <point x="468" y="316"/>
      <point x="468" y="209" type="curve" smooth="yes"/>
      <point x="468" y="205" type="line" smooth="yes"/>
      <point x="468" y="98"/>
      <point x="375" y="15"/>
      <point x="262" y="15" type="curve" smooth="yes"/>
      <point x="144" y="15"/>
      <point x="57" y="98"/>
      <point x="57" y="206" type="curve"/>
      <point x="49" y="199" type="line"/>
      <point x="472" y="199" type="line"/>
      <point x="472" y="215" type="line"/>
      <point x="37" y="215" type="line"/>
      <point x="37" y="208" type="line" smooth="yes"/>
      <point x="37" y="87"/>
      <point x="132" y="-2"/>
      <point x="262" y="-2" type="curve" smooth="yes"/>
      <point x="388" y="-2"/>
      <point x="488" y="92"/>
    </contour>
    <contour>
      <point x="263" y="415" type="move" name="top"/>
    </contour>
    <contour>
      <point x="263" y="0" type="move" name="bottom"/>
    </contour>
  </outline>
</glyph>
<glyph name="Schwa.ss01" format="1">
  <advance width="525"/>
  <outline>
    <contour>
      <point x="488" y="208" type="curve" smooth="yes"/>
      <point x="488" y="328"/>
      <point x="388" y="417"/>
      <point x="256" y="417" type="curve" smooth="yes"/>
      <point x="194" y="417"/>
      <point x="138" y="400"/>
      <point x="98" y="365" type="curve"/>
      <point x="109" y="351" type="line"/>
      <point x="151" y="385"/>
      <point x="201" y="399"/>
      <point x="256" y="399" type="curve" smooth="yes"/>
      <point x="376" y="399"/>
      <point x="468" y="316"/>
      <point x="468" y="209" type="curve" smooth="yes"/>
      <point x="468" y="205" type="line" smooth="yes"/>
      <point x="468" y="98"/>
      <point x="375" y="15"/>
      <point x="262" y="15" type="curve" smooth="yes"/>
      <point x="180" y="15"/>
      <point x="113" y="55"/>
      <point x="80" y="118" type="curve"/>
      <point x="74" y="109" type="line"/>
      <point x="467" y="259" type="line"/>
      <point x="461" y="274" type="line"/>
      <point x="57" y="119" type="line"/>
      <point x="91" y="46"/>
      <point x="168" y="-2"/>
      <point x="262" y="-2" type="curve" smooth="yes"/>
      <point x="388" y="-2"/>
      <point x="488" y="92"/>
    </contour>
    <contour>
      <point x="262" y="415" type="move" name="top"/>
    </contour>
    <contour>
      <point x="262" y="0" type="move" name="bottom"/>
    </contour>
  </outline>
</glyph>
<glyph name="T.ss01" format="1">
  <advance width="357"/>
  <outline>
    <contour>
      <point x="178" y="399" type="curve" smooth="yes"/>
      <point x="233" y="399"/>
      <point x="293" y="387"/>
      <point x="346" y="358" type="curve"/>
      <point x="355" y="374" type="line"/>
      <point x="298" y="405"/>
      <point x="237" y="417"/>
      <point x="178" y="417" type="curve" smooth="yes"/>
      <point x="119" y="417"/>
      <point x="58" y="405"/>
      <point x="2" y="374" type="curve"/>
      <point x="10" y="358" type="line"/>
      <point x="64" y="387"/>
      <point x="122" y="399"/>
    </contour>
    <contour>
      <point x="188" y="0" type="line"/>
      <point x="188" y="406" type="line"/>
      <point x="169" y="406" type="line"/>
      <point x="169" y="0" type="line"/>
    </contour>
    <contour>
      <point x="178" y="415" type="move" name="top"/>
    </contour>
    <contour>
      <point x="178" y="205" type="move" name="center"/>
    </contour>
    <contour>
      <point x="178" y="0" type="move" name="bottom"/>
    </contour>
  </outline>
</glyph>
<glyph name="T_h" format="1">
  <advance width="743"/>
  <outline>
    <contour>
      <point x="188" y="0" type="line"/>
      <point x="188" y="397" type="line"/>
      <point x="390" y="397" type="line"/>
      <point x="390" y="415" type="line"/>
      <point x="3" y="415" type="line"/>
      <point x="3" y="397" type="line"/>
      <point x="168" y="397" type="line"/>
      <point x="168" y="0" type="line"/>
    </contour>
    <contour>
      <point x="674" y="0" type="line"/>
      <point x="674" y="181" type="line" smooth="yes"/>
      <point x="674" y="266"/>
      <point x="622" y="310"/>
      <point x="541" y="310" type="curve" smooth="yes"/>
      <point x="448" y="310"/>
      <point x="392" y="254"/>
      <point x="391" y="172" type="curve"/>
      <point x="403" y="166" type="line"/>
      <point x="403" y="241"/>
      <point x="455" y="292"/>
      <point x="539" y="292" type="curve" smooth="yes"/>
      <point x="612" y="292"/>
      <point x="655" y="253"/>
      <point x="655" y="180" type="curve" smooth="yes"/>
      <point x="655" y="0" type="line"/>
    </contour>
    <contour>
      <point x="403" y="0" type="line"/>
      <point x="403" y="415" type="line"/>
      <point x="384" y="415" type="line"/>
      <point x="384" y="0" type="line"/>
    </contour>
  </outline>
</glyph>
<glyph name="U.ss01" format="1">
  <advance width="514"/>
  <outline>
    <contour>
      <point x="425" y="177" type="curve" smooth="yes"/>
      <point x="425" y="237" type="line"/>
      <point x="412" y="237" type="line"/>
      <point x="412" y="178" type="line" smooth="yes"/>
      <point x="412" y="68"/>
      <point x="354" y="16"/>
      <point x="255" y="16" type="curve" smooth="yes"/>
      <point x="156" y="16"/>
      <point x="99" y="67"/>
      <point x="99" y="166" type="curve" smooth="yes"/>
      <point x="99" y="415" type="line"/>
      <point x="79" y="415" type="line"/>
      <point x="79" y="166" type="line" smooth="yes"/>
      <point x="79" y="56"/>
      <point x="145" y="-2"/>
      <point x="252" y="-2" type="curve" smooth="yes"/>
      <point x="359" y="-2"/>
      <point x="425" y="57"/>
    </contour>
    <contour>
      <point x="431" y="0" type="line"/>
      <point x="431" y="415" type="line"/>
      <point x="412" y="415" type="line"/>
      <point x="412" y="138" type="line"/>
      <point x="412" y="127" type="line"/>
      <point x="412" y="0" type="line"/>
    </contour>
    <contour>
      <point x="431" y="0" type="move" name="ogonek"/>
    </contour>
    <contour>
      <point x="255" y="415" type="move" name="top"/>
    </contour>
    <contour>
      <point x="424" y="415" type="move" name="topright"/>
    </contour>
    <contour>
      <point x="255" y="0" type="move" name="bottom"/>
    </contour>
  </outline>
</glyph>
<glyph name="Udieresis.alt" format="1">
  <advance width="510"/>
  <outline>
    <contour>
      <point x="431" y="175" type="curve" smooth="yes"/>
      <point x="431" y="415" type="line"/>
      <point x="412" y="415" type="line"/>
      <point x="412" y="176" type="line" smooth="yes"/>
      <point x="412" y="68"/>
      <point x="355" y="16"/>
      <point x="255" y="16" type="curve" smooth="yes"/>
      <point x="156" y="16"/>
      <point x="99" y="68"/>
      <point x="99" y="176" type="curve" smooth="yes"/>
      <point x="99" y="415" type="line"/>
      <point x="79" y="415" type="line"/>
      <point x="79" y="175" type="line" smooth="yes"/>
      <point x="79" y="57"/>
      <point x="146" y="-2"/>
      <point x="255" y="-2" type="curve" smooth="yes"/>
      <point x="364" y="-2"/>
      <point x="431" y="57"/>
    </contour>
    <contour>
      <point x="221" y="399" type="curve" smooth="yes"/>
      <point x="221" y="409"/>
      <point x="213" y="417"/>
      <point x="203" y="417" type="curve" smooth="yes"/>
      <point x="193" y="417"/>
      <point x="184" y="409"/>
      <point x="184" y="399" type="curve" smooth="yes"/>
      <point x="184" y="389"/>
      <point x="193" y="381"/>
      <point x="203" y="381" type="curve" smooth="yes"/>
      <point x="213" y="381"/>
      <point x="221" y="389"/>
    </contour>
    <contour>
      <point x="326" y="399" type="curve" smooth="yes"/>
      <point x="326" y="409"/>
      <point x="318" y="417"/>
      <point x="308" y="417" type="curve" smooth="yes"/>
      <point x="297" y="417"/>
      <point x="289" y="409"/>
      <point x="289" y="399" type="curve" smooth="yes"/>
      <point x="289" y="389"/>
      <point x="297" y="381"/>
      <point x="308" y="381" type="curve" smooth="yes"/>
      <point x="318" y="381"/>
      <point x="326" y="389"/>
    </contour>
  </outline>
</glyph>
